G04*
G04 #@! TF.GenerationSoftware,Altium Limited,Altium Designer,22.8.2 (66)*
G04*
G04 Layer_Color=2752767*
%FSLAX42Y42*%
%MOMM*%
G71*
G04*
G04 #@! TF.SameCoordinates,4064A84C-9049-4DCA-B835-74FE37D69973*
G04*
G04*
G04 #@! TF.FilePolarity,Positive*
G04*
G01*
G75*
%ADD17C,0.05*%
D17*
X1106Y792D02*
Y833D01*
X1147D01*
Y792D01*
X1106D01*
X357Y1008D02*
Y1048D01*
X397D01*
Y1008D01*
X357D01*
Y792D02*
Y833D01*
X397D01*
Y792D01*
X357D01*
Y577D02*
Y617D01*
X397D01*
Y577D01*
X357D01*
Y361D02*
Y402D01*
X397D01*
Y361D01*
X357D01*
Y146D02*
Y186D01*
X397D01*
Y146D01*
X357D01*
X607Y1008D02*
Y1048D01*
X647D01*
Y1008D01*
X607D01*
Y792D02*
Y833D01*
X647D01*
Y792D01*
X607D01*
Y577D02*
Y617D01*
X647D01*
Y577D01*
X607D01*
Y361D02*
Y402D01*
X647D01*
Y361D01*
X607D01*
Y146D02*
Y186D01*
X647D01*
Y146D01*
X607D01*
X857Y1008D02*
Y1048D01*
X897D01*
Y1008D01*
X857D01*
Y792D02*
Y833D01*
X897D01*
Y792D01*
X857D01*
Y577D02*
Y617D01*
X897D01*
Y577D01*
X857D01*
Y361D02*
Y402D01*
X897D01*
Y361D01*
X857D01*
Y146D02*
Y186D01*
X897D01*
Y146D01*
X857D01*
X1605Y1008D02*
Y1048D01*
X1646D01*
Y1008D01*
X1605D01*
Y792D02*
Y833D01*
X1646D01*
Y792D01*
X1605D01*
Y577D02*
Y617D01*
X1646D01*
Y577D01*
X1605D01*
Y361D02*
Y402D01*
X1646D01*
Y361D01*
X1605D01*
Y146D02*
Y186D01*
X1646D01*
Y146D01*
X1605D01*
X1855Y1008D02*
Y1048D01*
X1896D01*
Y1008D01*
X1855D01*
Y792D02*
Y833D01*
X1896D01*
Y792D01*
X1855D01*
Y577D02*
Y617D01*
X1896D01*
Y577D01*
X1855D01*
Y361D02*
Y402D01*
X1896D01*
Y361D01*
X1855D01*
Y146D02*
Y186D01*
X1896D01*
Y146D01*
X1855D01*
X2105Y1008D02*
Y1048D01*
X2146D01*
Y1008D01*
X2105D01*
Y792D02*
Y833D01*
X2146D01*
Y792D01*
X2105D01*
Y577D02*
Y617D01*
X2146D01*
Y577D01*
X2105D01*
Y361D02*
Y402D01*
X2146D01*
Y361D01*
X2105D01*
Y146D02*
Y186D01*
X2146D01*
Y146D01*
X2105D01*
X2854Y1008D02*
Y1048D01*
X2895D01*
Y1008D01*
X2854D01*
X2854Y792D02*
Y833D01*
X2895D01*
Y792D01*
X2854D01*
Y577D02*
Y617D01*
X2895D01*
Y577D01*
X2854D01*
Y361D02*
Y402D01*
X2895D01*
Y361D01*
X2854D01*
Y146D02*
Y186D01*
X2895D01*
Y146D01*
X2854D01*
X3104Y1008D02*
Y1048D01*
X3145D01*
Y1008D01*
X3104D01*
Y792D02*
Y833D01*
X3145D01*
Y792D01*
X3104D01*
Y577D02*
Y617D01*
X3145D01*
Y577D01*
X3104D01*
Y146D02*
Y186D01*
X3145D01*
Y146D01*
X3104D01*
Y361D02*
Y402D01*
X3145D01*
Y361D01*
X3104D01*
X3354Y1008D02*
Y1048D01*
X3395D01*
Y1008D01*
X3354D01*
Y792D02*
Y833D01*
X3395D01*
Y792D01*
X3354D01*
Y577D02*
Y617D01*
X3395D01*
Y577D01*
X3354D01*
Y361D02*
Y402D01*
X3395D01*
Y361D01*
X3354D01*
Y146D02*
Y186D01*
X3395D01*
Y146D01*
X3354D01*
X4103Y1008D02*
Y1048D01*
X4143D01*
Y1008D01*
X4103D01*
X4103Y792D02*
Y833D01*
X4143D01*
Y792D01*
X4103D01*
Y577D02*
Y617D01*
X4143D01*
Y577D01*
X4103D01*
Y361D02*
Y402D01*
X4143D01*
Y361D01*
X4103D01*
Y146D02*
Y186D01*
X4143D01*
Y146D01*
X4103D01*
X4353Y1008D02*
Y1048D01*
X4393D01*
Y1008D01*
X4353D01*
Y792D02*
Y833D01*
X4393D01*
Y792D01*
X4353D01*
Y577D02*
Y617D01*
X4393D01*
Y577D01*
X4353D01*
Y361D02*
Y402D01*
X4393D01*
Y361D01*
X4353D01*
Y146D02*
Y186D01*
X4393D01*
Y146D01*
X4353D01*
X4603Y1008D02*
Y1048D01*
X4643D01*
Y1008D01*
X4603D01*
Y792D02*
Y833D01*
X4643D01*
Y792D01*
X4603D01*
Y577D02*
Y617D01*
X4643D01*
Y577D01*
X4603D01*
Y361D02*
Y402D01*
X4643D01*
Y361D01*
X4603D01*
Y146D02*
Y186D01*
X4643D01*
Y146D01*
X4603D01*
X1106Y1008D02*
Y1048D01*
X1147D01*
Y1008D01*
X1106D01*
Y577D02*
Y617D01*
X1147D01*
Y577D01*
X1106D01*
Y361D02*
Y402D01*
X1147D01*
Y361D01*
X1106D01*
Y146D02*
Y186D01*
X1147D01*
Y146D01*
X1106D01*
X1356Y1008D02*
Y1048D01*
X1396D01*
Y1008D01*
X1356D01*
Y792D02*
Y833D01*
X1396D01*
Y792D01*
X1356D01*
Y577D02*
Y617D01*
X1396D01*
Y577D01*
X1356D01*
Y361D02*
Y402D01*
X1396D01*
Y361D01*
X1356D01*
Y146D02*
Y186D01*
X1396D01*
Y146D01*
X1356D01*
X2343Y1008D02*
Y1048D01*
X2383D01*
Y1008D01*
X2343D01*
X2598D02*
Y1048D01*
X2639D01*
Y1008D01*
X2598D01*
Y792D02*
Y833D01*
X2639D01*
Y792D01*
X2598D01*
X2343D02*
Y833D01*
X2383D01*
Y792D01*
X2343D01*
Y577D02*
Y617D01*
X2383D01*
Y577D01*
X2343D01*
X2598D02*
Y617D01*
X2639D01*
Y577D01*
X2598D01*
Y361D02*
Y402D01*
X2639D01*
Y361D01*
X2598D01*
X2343D02*
Y402D01*
X2383D01*
Y361D01*
X2343D01*
Y146D02*
Y186D01*
X2383D01*
Y146D01*
X2343D01*
X2598D02*
Y186D01*
X2639D01*
Y146D01*
X2598D01*
X3604Y1008D02*
Y1048D01*
X3644D01*
Y1008D01*
X3604D01*
X3853D02*
Y1048D01*
X3894D01*
Y1008D01*
X3853D01*
Y792D02*
Y833D01*
X3894D01*
Y792D01*
X3853D01*
X3604D02*
Y833D01*
X3644D01*
Y792D01*
X3604D01*
Y577D02*
Y617D01*
X3644D01*
Y577D01*
X3604D01*
X3853D02*
Y617D01*
X3894D01*
Y577D01*
X3853D01*
X3604Y361D02*
Y402D01*
X3644D01*
Y361D01*
X3604D01*
X3853D02*
Y402D01*
X3894D01*
Y361D01*
X3853D01*
X3604Y146D02*
Y186D01*
X3644D01*
Y146D01*
X3604D01*
X3853D02*
Y186D01*
X3894D01*
Y146D01*
X3853D01*
M02*
