G04*
G04 #@! TF.GenerationSoftware,Altium Limited,Altium Designer,22.8.2 (66)*
G04*
G04 Layer_Physical_Order=1*
G04 Layer_Color=255*
%FSLAX42Y42*%
%MOMM*%
G71*
G04*
G04 #@! TF.SameCoordinates,4064A84C-9049-4DCA-B835-74FE37D69973*
G04*
G04*
G04 #@! TF.FilePolarity,Positive*
G04*
G01*
G75*
%ADD13R,1.40X2.50*%
%ADD14C,0.51*%
%ADD15C,1.02*%
%ADD16C,1.40*%
D13*
X1876Y1332D02*
D03*
X2874D02*
D03*
X2126D02*
D03*
X1626D02*
D03*
X627D02*
D03*
X377D02*
D03*
X877D02*
D03*
X3124D02*
D03*
X3374D02*
D03*
X4123D02*
D03*
X4373D02*
D03*
X4623Y1332D02*
D03*
D14*
X1876Y1028D02*
Y1332D01*
Y812D02*
Y1028D01*
Y597D02*
Y812D01*
Y381D02*
Y597D01*
Y166D02*
Y381D01*
X2126Y1028D02*
Y1332D01*
Y812D02*
Y1028D01*
Y597D02*
Y812D01*
Y381D02*
Y597D01*
Y166D02*
Y381D01*
X4623Y1028D02*
Y1332D01*
Y812D02*
Y1028D01*
Y597D02*
Y812D01*
Y381D02*
Y597D01*
Y166D02*
Y381D01*
X4373Y1028D02*
Y1332D01*
Y812D02*
Y1028D01*
Y597D02*
Y812D01*
Y381D02*
Y597D01*
Y166D02*
Y381D01*
X4123Y812D02*
Y1332D01*
Y597D02*
Y812D01*
Y381D02*
Y597D01*
Y166D02*
Y381D01*
X3374Y812D02*
Y1028D01*
Y597D02*
Y812D01*
Y381D02*
Y597D01*
Y166D02*
Y381D01*
Y1028D02*
Y1332D01*
X3124Y597D02*
Y812D01*
Y381D02*
Y597D01*
Y166D02*
Y381D01*
Y812D02*
Y1028D01*
Y1332D01*
X2874Y1332D02*
X2874Y1332D01*
X2874Y1028D02*
Y1332D01*
Y812D02*
X2874Y812D01*
X2874Y812D02*
Y1028D01*
X2874Y597D02*
Y812D01*
Y381D02*
Y597D01*
Y166D02*
Y381D01*
X1626Y1028D02*
Y1332D01*
Y166D02*
Y381D01*
Y597D01*
Y812D01*
Y1028D01*
X877Y166D02*
Y381D01*
Y597D01*
Y812D01*
Y1028D01*
Y1332D01*
X627Y1028D02*
Y1332D01*
Y812D02*
Y1028D01*
Y597D02*
Y812D01*
Y381D02*
Y597D01*
Y166D02*
Y381D01*
D15*
X377Y166D02*
Y382D01*
Y597D01*
Y812D01*
Y1028D01*
Y1332D01*
D16*
X1127Y812D02*
D03*
X377Y1028D02*
D03*
Y812D02*
D03*
Y597D02*
D03*
Y382D02*
D03*
Y166D02*
D03*
X627Y1028D02*
D03*
Y812D02*
D03*
Y597D02*
D03*
Y381D02*
D03*
Y166D02*
D03*
X877Y1028D02*
D03*
Y812D02*
D03*
Y597D02*
D03*
Y381D02*
D03*
Y166D02*
D03*
X1626Y1028D02*
D03*
Y812D02*
D03*
Y597D02*
D03*
Y381D02*
D03*
Y166D02*
D03*
X1876Y1028D02*
D03*
Y812D02*
D03*
Y597D02*
D03*
Y381D02*
D03*
Y166D02*
D03*
X2126Y1028D02*
D03*
Y812D02*
D03*
Y597D02*
D03*
Y381D02*
D03*
Y166D02*
D03*
X2874Y1028D02*
D03*
X2874Y812D02*
D03*
Y597D02*
D03*
Y381D02*
D03*
Y166D02*
D03*
X3124Y1028D02*
D03*
Y812D02*
D03*
Y597D02*
D03*
Y166D02*
D03*
Y381D02*
D03*
X3374Y1028D02*
D03*
Y812D02*
D03*
Y597D02*
D03*
Y381D02*
D03*
Y166D02*
D03*
X4123Y1028D02*
D03*
X4123Y812D02*
D03*
Y597D02*
D03*
Y381D02*
D03*
Y166D02*
D03*
X4373Y1028D02*
D03*
Y812D02*
D03*
Y597D02*
D03*
Y381D02*
D03*
Y166D02*
D03*
X4623Y1028D02*
D03*
Y812D02*
D03*
Y597D02*
D03*
Y381D02*
D03*
Y166D02*
D03*
X1127Y1028D02*
D03*
Y597D02*
D03*
Y381D02*
D03*
Y166D02*
D03*
X1376Y1028D02*
D03*
Y812D02*
D03*
Y597D02*
D03*
Y381D02*
D03*
Y166D02*
D03*
X2363Y1028D02*
D03*
X2619D02*
D03*
Y812D02*
D03*
X2363D02*
D03*
Y597D02*
D03*
X2619D02*
D03*
Y381D02*
D03*
X2363D02*
D03*
Y166D02*
D03*
X2619D02*
D03*
X3624Y1028D02*
D03*
X3873D02*
D03*
Y812D02*
D03*
X3624D02*
D03*
Y597D02*
D03*
X3873D02*
D03*
X3624Y381D02*
D03*
X3873D02*
D03*
X3624Y166D02*
D03*
X3873D02*
D03*
M02*
