G04*
G04 #@! TF.GenerationSoftware,Altium Limited,Altium Designer,22.8.2 (66)*
G04*
G04 Layer_Color=65535*
%FSLAX42Y42*%
%MOMM*%
G71*
G04*
G04 #@! TF.SameCoordinates,4064A84C-9049-4DCA-B835-74FE37D69973*
G04*
G04*
G04 #@! TF.FilePolarity,Positive*
G04*
G01*
G75*
%ADD10C,0.11*%
D10*
X225Y1255D02*
X214Y1243D01*
Y1221D01*
X225Y1209D01*
X270D01*
X282Y1221D01*
Y1243D01*
X270Y1255D01*
X248D01*
Y1232D01*
X282Y1277D02*
X214D01*
X282Y1322D01*
X214D01*
Y1345D02*
X282D01*
Y1379D01*
X270Y1390D01*
X225D01*
X214Y1379D01*
Y1345D01*
X470Y1205D02*
X538D01*
Y1239D01*
X527Y1250D01*
X481D01*
X470Y1239D01*
Y1205D01*
Y1307D02*
Y1284D01*
X481Y1273D01*
X527D01*
X538Y1284D01*
Y1307D01*
X527Y1318D01*
X481D01*
X470Y1307D01*
X504Y1340D02*
Y1386D01*
X538Y1442D02*
X470D01*
X504Y1408D01*
Y1453D01*
X1465Y1205D02*
X1533D01*
Y1239D01*
X1522Y1250D01*
X1476D01*
X1465Y1239D01*
Y1205D01*
Y1306D02*
Y1284D01*
X1476Y1273D01*
X1522D01*
X1533Y1284D01*
Y1306D01*
X1522Y1318D01*
X1476D01*
X1465Y1306D01*
X1499Y1340D02*
Y1385D01*
X1476Y1408D02*
X1465Y1419D01*
Y1442D01*
X1476Y1453D01*
X1488D01*
X1499Y1442D01*
Y1431D01*
Y1442D01*
X1510Y1453D01*
X1522D01*
X1533Y1442D01*
Y1419D01*
X1522Y1408D01*
X1718Y1206D02*
X1786D01*
Y1240D01*
X1775Y1251D01*
X1729D01*
X1718Y1240D01*
Y1206D01*
Y1307D02*
Y1285D01*
X1729Y1274D01*
X1775D01*
X1786Y1285D01*
Y1307D01*
X1775Y1319D01*
X1729D01*
X1718Y1307D01*
X1752Y1341D02*
Y1386D01*
X1786Y1454D02*
Y1409D01*
X1741Y1454D01*
X1729D01*
X1718Y1443D01*
Y1420D01*
X1729Y1409D01*
X1967Y1209D02*
X2035D01*
Y1243D01*
X2024Y1254D01*
X1978D01*
X1967Y1243D01*
Y1209D01*
Y1311D02*
Y1288D01*
X1978Y1277D01*
X2024D01*
X2035Y1288D01*
Y1311D01*
X2024Y1322D01*
X1978D01*
X1967Y1311D01*
X2001Y1345D02*
Y1390D01*
X2035Y1412D02*
Y1435D01*
Y1424D01*
X1967D01*
X1978Y1412D01*
X2967Y1206D02*
X3035D01*
Y1240D01*
X3024Y1252D01*
X2978D01*
X2967Y1240D01*
Y1206D01*
Y1274D02*
Y1297D01*
Y1286D01*
X3035D01*
Y1274D01*
Y1297D01*
Y1365D02*
X2967D01*
X3001Y1331D01*
Y1376D01*
X3216Y1203D02*
X3284D01*
Y1237D01*
X3273Y1249D01*
X3227D01*
X3216Y1237D01*
Y1203D01*
Y1271D02*
Y1294D01*
Y1283D01*
X3284D01*
Y1271D01*
Y1294D01*
X3227Y1328D02*
X3216Y1339D01*
Y1362D01*
X3227Y1373D01*
X3239D01*
X3250Y1362D01*
Y1350D01*
Y1362D01*
X3261Y1373D01*
X3273D01*
X3284Y1362D01*
Y1339D01*
X3273Y1328D01*
X3965Y1203D02*
X4033D01*
Y1237D01*
X4022Y1249D01*
X3976D01*
X3965Y1237D01*
Y1203D01*
Y1271D02*
Y1294D01*
Y1283D01*
X4033D01*
Y1271D01*
Y1294D01*
Y1373D02*
Y1328D01*
X3988Y1373D01*
X3976D01*
X3965Y1362D01*
Y1339D01*
X3976Y1328D01*
X4215Y1205D02*
X4283D01*
Y1239D01*
X4272Y1250D01*
X4226D01*
X4215Y1239D01*
Y1205D01*
Y1273D02*
Y1295D01*
Y1284D01*
X4283D01*
Y1273D01*
Y1295D01*
Y1329D02*
Y1352D01*
Y1340D01*
X4215D01*
X4226Y1329D01*
X4532Y1213D02*
Y1236D01*
Y1225D01*
X4464D01*
X4475Y1213D01*
X4532Y1315D02*
Y1270D01*
X4487Y1315D01*
X4475D01*
X4464Y1304D01*
Y1281D01*
X4475Y1270D01*
X4464Y1338D02*
X4509D01*
X4532Y1360D01*
X4509Y1383D01*
X4464D01*
X719Y1259D02*
Y1214D01*
X753D01*
X742Y1236D01*
Y1248D01*
X753Y1259D01*
X776D01*
X787Y1248D01*
Y1225D01*
X776Y1214D01*
X719Y1281D02*
X764D01*
X787Y1304D01*
X764Y1327D01*
X719D01*
X2719Y1215D02*
X2708Y1227D01*
Y1249D01*
X2719Y1261D01*
X2731D01*
X2742Y1249D01*
Y1238D01*
Y1249D01*
X2753Y1261D01*
X2765D01*
X2776Y1249D01*
Y1227D01*
X2765Y1215D01*
X2776Y1283D02*
X2765D01*
Y1294D01*
X2776D01*
Y1283D01*
X2719Y1340D02*
X2708Y1351D01*
Y1374D01*
X2719Y1385D01*
X2731D01*
X2742Y1374D01*
Y1362D01*
Y1374D01*
X2753Y1385D01*
X2765D01*
X2776Y1374D01*
Y1351D01*
X2765Y1340D01*
X2708Y1407D02*
X2753D01*
X2776Y1430D01*
X2753Y1453D01*
X2708D01*
M02*
