M48
;Layer_Color=9474304
;FILE_FORMAT=4:2
METRIC,LZ
;TYPE=PLATED
T1F00S00C1.00
%
T01
X000377Y000166
Y000382
Y000597
Y000812
Y001028
X000627Y001028
Y000812
Y000597
Y000381
Y000166
X000877
Y000381
Y000597
Y000812
Y001028
X001127
Y000812
Y000597
Y000381
Y000166
X001376
Y000381
Y000597
Y000812
Y001028
X001626
Y000812
Y000597
Y000381
Y000166
X001876
Y000381
Y000597
Y000812
Y001028
X002126
Y000812
Y000597
Y000381
Y000166
X002363
Y000381
Y000597
Y000812
Y001028
X002619
Y000812
Y000597
Y000381
Y000166
X002874
Y000381
Y000597
Y000812
X002874Y001028
X003124
Y000812
Y000597
Y000381
Y000166
X003374
Y000381
Y000597
Y000812
Y001028
X003624
Y000812
Y000597
Y000381
Y000166
X003873
Y000381
Y000597
Y000812
Y001028
X004123
X004123Y000812
Y000597
Y000381
Y000166
X004373
Y000381
Y000597
Y000812
Y001028
X004623
Y000812
Y000597
Y000381
Y000166
M30
