G04*
G04 #@! TF.GenerationSoftware,Altium Limited,Altium Designer,22.8.2 (66)*
G04*
G04 Layer_Color=65535*
%FSLAX42Y42*%
%MOMM*%
G71*
G04*
G04 #@! TF.SameCoordinates,0533CB18-9495-43A3-8B9C-2A5BF5C5928D*
G04*
G04*
G04 #@! TF.FilePolarity,Positive*
G04*
G01*
G75*
%ADD10C,0.10*%
%ADD11C,0.20*%
%ADD12C,0.15*%
%ADD13C,0.25*%
%ADD14C,0.15*%
%ADD15C,0.13*%
%ADD16C,0.20*%
G36*
X3200Y2858D02*
X3208D01*
Y2857D01*
X3212D01*
Y2856D01*
X3217D01*
Y2855D01*
X3221D01*
Y2853D01*
X3223D01*
Y2852D01*
X3227D01*
Y2851D01*
X3230D01*
Y2849D01*
X3232D01*
Y2848D01*
X3235D01*
Y2847D01*
X3236D01*
Y2846D01*
X3239D01*
Y2844D01*
X3241D01*
Y2843D01*
X3242D01*
Y2842D01*
X3244D01*
Y2840D01*
X3246D01*
Y2839D01*
X3248D01*
Y2838D01*
X3249D01*
Y2837D01*
X3250D01*
Y2835D01*
X3253D01*
Y2834D01*
X3254D01*
Y2833D01*
X3255D01*
Y2831D01*
X3257D01*
Y2830D01*
X3258D01*
Y2829D01*
X3259D01*
Y2826D01*
X3260D01*
Y2825D01*
X3262D01*
Y2824D01*
X3263D01*
Y2822D01*
X3264D01*
Y2821D01*
X3266D01*
Y2819D01*
X3267D01*
Y2817D01*
X3268D01*
Y2815D01*
X3269D01*
Y2812D01*
X3271D01*
Y2807D01*
X3272D01*
Y2797D01*
X3271D01*
Y2792D01*
X3269D01*
Y2788D01*
X3268D01*
Y2784D01*
X3267D01*
Y2781D01*
X3266D01*
Y2779D01*
X3264D01*
Y2776D01*
X3263D01*
Y2774D01*
X3262D01*
Y2771D01*
X3260D01*
Y2768D01*
X3259D01*
Y2767D01*
X3258D01*
Y2765D01*
X3257D01*
Y2762D01*
X3255D01*
Y2760D01*
X3254D01*
Y2757D01*
X3253D01*
Y2756D01*
Y2754D01*
X3251D01*
Y2752D01*
X3250D01*
Y2749D01*
X3249D01*
Y2748D01*
X3248D01*
Y2745D01*
X3246D01*
Y2743D01*
X3245D01*
Y2740D01*
X3244D01*
Y2738D01*
X3242D01*
Y2735D01*
X3241D01*
Y2733D01*
X3240D01*
Y2730D01*
X3239D01*
Y2729D01*
X3237D01*
Y2726D01*
X3236D01*
Y2724D01*
X3235D01*
Y2721D01*
X3233D01*
Y2718D01*
X3232D01*
Y2716D01*
X3231D01*
Y2713D01*
X3230D01*
Y2712D01*
X3228D01*
Y2709D01*
X3227D01*
Y2707D01*
X3226D01*
Y2704D01*
X3224D01*
Y2703D01*
X3223D01*
Y2702D01*
X3221D01*
Y2700D01*
X3218D01*
Y2699D01*
X3212D01*
Y2700D01*
X3208D01*
Y2702D01*
X3206D01*
Y2703D01*
X3205D01*
Y2704D01*
X3204D01*
Y2706D01*
X3203D01*
Y2708D01*
X3201D01*
Y2717D01*
X3203D01*
Y2720D01*
X3204D01*
Y2722D01*
X3205D01*
Y2725D01*
X3206D01*
Y2727D01*
X3208D01*
Y2730D01*
X3209D01*
Y2733D01*
X3210D01*
Y2734D01*
X3212D01*
Y2736D01*
X3213D01*
Y2739D01*
X3214D01*
Y2742D01*
X3215D01*
Y2744D01*
X3217D01*
Y2747D01*
X3218D01*
Y2748D01*
X3219D01*
Y2751D01*
X3221D01*
Y2753D01*
X3222D01*
Y2756D01*
X3223D01*
Y2758D01*
X3224D01*
Y2761D01*
X3226D01*
Y2763D01*
X3227D01*
Y2765D01*
X3228D01*
Y2767D01*
X3230D01*
Y2770D01*
X3231D01*
Y2772D01*
X3232D01*
Y2775D01*
X3233D01*
Y2777D01*
X3235D01*
Y2780D01*
X3236D01*
Y2783D01*
X3237D01*
Y2785D01*
X3239D01*
Y2786D01*
X3240D01*
Y2789D01*
X3241D01*
Y2792D01*
X3242D01*
Y2794D01*
X3244D01*
Y2798D01*
X3245D01*
Y2802D01*
X3246D01*
Y2817D01*
X3245D01*
Y2821D01*
X3244D01*
Y2824D01*
X3242D01*
Y2826D01*
X3241D01*
Y2828D01*
X3240D01*
Y2829D01*
X3239D01*
Y2830D01*
X3237D01*
Y2831D01*
X3236D01*
Y2833D01*
X3235D01*
Y2834D01*
X3232D01*
Y2835D01*
X3231D01*
Y2837D01*
X3228D01*
Y2838D01*
X3226D01*
Y2839D01*
X3223D01*
Y2840D01*
X3221D01*
Y2842D01*
X3218D01*
Y2843D01*
X3214D01*
Y2844D01*
X3210D01*
Y2846D01*
X3205D01*
Y2847D01*
X3197D01*
Y2848D01*
X3173D01*
Y2847D01*
X3167D01*
Y2846D01*
X3161D01*
Y2844D01*
X3156D01*
Y2843D01*
X3154D01*
Y2842D01*
X3150D01*
Y2840D01*
X3147D01*
Y2839D01*
X3145D01*
Y2838D01*
X3142D01*
Y2837D01*
X3141D01*
Y2835D01*
X3138D01*
Y2834D01*
X3136D01*
Y2833D01*
X3134D01*
Y2831D01*
X3133D01*
Y2830D01*
X3131D01*
Y2829D01*
X3129D01*
Y2828D01*
X3128D01*
Y2826D01*
X3127D01*
Y2825D01*
X3124D01*
Y2824D01*
X3123D01*
Y2822D01*
X3122D01*
Y2821D01*
X3120D01*
Y2820D01*
X3119D01*
Y2819D01*
X3118D01*
Y2816D01*
X3117D01*
Y2815D01*
X3115D01*
Y2813D01*
X3114D01*
Y2812D01*
X3113D01*
Y2810D01*
X3111D01*
Y2808D01*
X3110D01*
Y2807D01*
X3109D01*
Y2804D01*
X3108D01*
Y2803D01*
X3106D01*
Y2801D01*
X3105D01*
Y2798D01*
X3104D01*
Y2797D01*
X3102D01*
Y2794D01*
X3101D01*
Y2792D01*
X3100D01*
Y2789D01*
X3099D01*
Y2786D01*
X3097D01*
Y2783D01*
X3096D01*
Y2780D01*
X3095D01*
Y2776D01*
X3093D01*
Y2771D01*
X3092D01*
Y2766D01*
X3091D01*
Y2757D01*
X3090D01*
Y2743D01*
X3088D01*
Y2748D01*
X3087D01*
Y2774D01*
X3088D01*
Y2781D01*
X3090D01*
Y2786D01*
X3091D01*
Y2792D01*
X3092D01*
Y2794D01*
X3093D01*
Y2798D01*
X3095D01*
Y2801D01*
X3096D01*
Y2804D01*
X3097D01*
Y2807D01*
X3099D01*
Y2810D01*
X3100D01*
Y2811D01*
X3101D01*
Y2813D01*
X3102D01*
Y2815D01*
X3104D01*
Y2817D01*
X3105D01*
Y2819D01*
X3106D01*
Y2821D01*
X3108D01*
Y2822D01*
X3109D01*
Y2824D01*
X3110D01*
Y2825D01*
X3111D01*
Y2828D01*
X3113D01*
Y2829D01*
X3114D01*
Y2830D01*
X3115D01*
Y2831D01*
X3117D01*
Y2833D01*
X3118D01*
Y2834D01*
X3119D01*
Y2835D01*
X3122D01*
Y2837D01*
X3123D01*
Y2838D01*
X3124D01*
Y2839D01*
X3125D01*
Y2840D01*
X3128D01*
Y2842D01*
X3129D01*
Y2843D01*
X3131D01*
Y2844D01*
X3133D01*
Y2846D01*
X3136D01*
Y2847D01*
X3137D01*
Y2848D01*
X3140D01*
Y2849D01*
X3142D01*
Y2851D01*
X3145D01*
Y2852D01*
X3149D01*
Y2853D01*
X3151D01*
Y2855D01*
X3155D01*
Y2856D01*
X3160D01*
Y2857D01*
X3164D01*
Y2858D01*
X3172D01*
Y2860D01*
X3200D01*
Y2858D01*
D02*
G37*
G36*
X3214Y2819D02*
X3218D01*
Y2817D01*
X3219D01*
Y2816D01*
X3221D01*
Y2815D01*
X3222D01*
Y2813D01*
X3223D01*
Y2811D01*
X3224D01*
Y2802D01*
X3223D01*
Y2799D01*
X3222D01*
Y2797D01*
X3221D01*
Y2794D01*
X3219D01*
Y2792D01*
X3218D01*
Y2790D01*
X3217D01*
Y2788D01*
X3215D01*
Y2785D01*
X3214D01*
Y2783D01*
X3213D01*
Y2781D01*
Y2780D01*
X3212D01*
Y2777D01*
X3210D01*
Y2775D01*
X3209D01*
Y2772D01*
X3208D01*
Y2771D01*
X3206D01*
Y2768D01*
X3205D01*
Y2766D01*
X3204D01*
Y2763D01*
X3203D01*
Y2761D01*
X3201D01*
Y2758D01*
X3200D01*
Y2756D01*
X3199D01*
Y2753D01*
X3197D01*
Y2752D01*
X3196D01*
Y2749D01*
X3195D01*
Y2747D01*
X3194D01*
Y2744D01*
X3192D01*
Y2742D01*
X3191D01*
Y2739D01*
X3190D01*
Y2736D01*
X3188D01*
Y2735D01*
X3187D01*
Y2733D01*
X3186D01*
Y2730D01*
X3185D01*
Y2727D01*
X3183D01*
Y2725D01*
X3182D01*
Y2722D01*
X3181D01*
Y2720D01*
X3179D01*
Y2717D01*
X3178D01*
Y2716D01*
X3177D01*
Y2713D01*
X3176D01*
Y2711D01*
X3174D01*
Y2708D01*
X3173D01*
Y2706D01*
X3172D01*
Y2704D01*
X3170D01*
Y2703D01*
X3169D01*
Y2702D01*
X3168D01*
Y2700D01*
X3164D01*
Y2699D01*
X3158D01*
Y2700D01*
X3155D01*
Y2702D01*
X3152D01*
Y2703D01*
X3151D01*
Y2704D01*
X3150D01*
Y2707D01*
X3149D01*
Y2718D01*
X3150D01*
Y2721D01*
X3151D01*
Y2724D01*
X3152D01*
Y2726D01*
X3154D01*
Y2729D01*
X3155D01*
Y2731D01*
X3156D01*
Y2733D01*
X3158D01*
Y2735D01*
X3159D01*
Y2738D01*
X3160D01*
Y2740D01*
X3161D01*
Y2743D01*
X3163D01*
Y2745D01*
X3164D01*
Y2748D01*
X3165D01*
Y2751D01*
X3167D01*
Y2752D01*
X3168D01*
Y2754D01*
X3169D01*
Y2757D01*
X3170D01*
Y2760D01*
X3172D01*
Y2762D01*
X3173D01*
Y2765D01*
X3174D01*
Y2767D01*
X3176D01*
Y2770D01*
X3177D01*
Y2771D01*
X3178D01*
Y2774D01*
X3179D01*
Y2776D01*
X3181D01*
Y2779D01*
X3182D01*
Y2781D01*
X3183D01*
Y2784D01*
X3185D01*
Y2786D01*
X3186D01*
Y2788D01*
X3187D01*
Y2790D01*
X3188D01*
Y2793D01*
X3190D01*
Y2795D01*
X3191D01*
Y2798D01*
X3192D01*
Y2801D01*
X3194D01*
Y2803D01*
X3195D01*
Y2806D01*
X3196D01*
Y2807D01*
X3197D01*
Y2810D01*
X3199D01*
Y2812D01*
X3200D01*
Y2815D01*
X3201D01*
Y2816D01*
X3203D01*
Y2817D01*
X3205D01*
Y2819D01*
X3208D01*
Y2820D01*
X3214D01*
Y2819D01*
D02*
G37*
G36*
X3668Y2811D02*
X3678D01*
Y2810D01*
X3683D01*
Y2808D01*
X3687D01*
Y2807D01*
X3690D01*
Y2806D01*
X3692D01*
Y2804D01*
X3695D01*
Y2803D01*
X3697D01*
Y2802D01*
X3699D01*
Y2801D01*
X3700D01*
Y2799D01*
X3701D01*
Y2798D01*
X3703D01*
Y2797D01*
X3704D01*
Y2795D01*
X3705D01*
Y2794D01*
X3706D01*
Y2793D01*
X3708D01*
Y2790D01*
X3709D01*
Y2788D01*
X3710D01*
Y2784D01*
X3712D01*
Y2780D01*
X3713D01*
Y2775D01*
X3714D01*
Y2762D01*
Y2761D01*
Y2752D01*
X3713D01*
Y2747D01*
X3712D01*
Y2743D01*
X3710D01*
Y2739D01*
X3709D01*
Y2736D01*
X3708D01*
Y2735D01*
X3706D01*
Y2733D01*
X3705D01*
Y2731D01*
X3704D01*
Y2730D01*
X3703D01*
Y2729D01*
X3701D01*
Y2727D01*
X3700D01*
Y2726D01*
X3699D01*
Y2725D01*
X3696D01*
Y2724D01*
X3694D01*
Y2722D01*
X3692D01*
Y2721D01*
X3688D01*
Y2720D01*
X3685D01*
Y2718D01*
X3681D01*
Y2717D01*
X3674D01*
Y2716D01*
X3622D01*
Y2663D01*
X3595D01*
Y2812D01*
X3668D01*
Y2811D01*
D02*
G37*
G36*
X3498Y2813D02*
X3510D01*
Y2812D01*
X3514D01*
Y2811D01*
X3518D01*
Y2810D01*
X3520D01*
Y2808D01*
X3523D01*
Y2807D01*
X3525D01*
Y2806D01*
X3527D01*
Y2804D01*
X3528D01*
Y2803D01*
X3529D01*
Y2802D01*
X3530D01*
Y2801D01*
X3532D01*
Y2799D01*
X3533D01*
Y2797D01*
X3534D01*
Y2795D01*
X3535D01*
Y2792D01*
X3537D01*
Y2788D01*
X3538D01*
Y2770D01*
X3537D01*
Y2766D01*
X3535D01*
Y2763D01*
X3534D01*
Y2761D01*
X3533D01*
Y2758D01*
X3532D01*
Y2757D01*
X3530D01*
Y2754D01*
X3529D01*
Y2753D01*
X3528D01*
Y2752D01*
X3527D01*
Y2751D01*
X3525D01*
Y2749D01*
X3523D01*
Y2748D01*
X3521D01*
Y2747D01*
X3520D01*
Y2745D01*
X3518D01*
Y2744D01*
X3516D01*
Y2743D01*
X3514D01*
Y2742D01*
X3511D01*
Y2740D01*
X3509D01*
Y2739D01*
X3506D01*
Y2736D01*
X3507D01*
Y2735D01*
X3509D01*
Y2733D01*
X3510D01*
Y2731D01*
X3511D01*
Y2730D01*
X3512D01*
Y2729D01*
X3514D01*
Y2727D01*
X3515D01*
Y2726D01*
X3516D01*
Y2725D01*
X3518D01*
Y2724D01*
X3519D01*
Y2722D01*
X3520D01*
Y2721D01*
X3521D01*
Y2720D01*
X3523D01*
Y2717D01*
X3524D01*
Y2716D01*
X3525D01*
Y2715D01*
X3527D01*
Y2713D01*
X3528D01*
Y2712D01*
X3529D01*
Y2711D01*
X3530D01*
Y2709D01*
X3532D01*
Y2708D01*
X3533D01*
Y2707D01*
X3534D01*
Y2706D01*
X3537D01*
Y2708D01*
X3538D01*
Y2711D01*
X3539D01*
Y2715D01*
X3541D01*
Y2720D01*
X3542D01*
Y2742D01*
X3565D01*
Y2739D01*
X3566D01*
Y2727D01*
X3565D01*
Y2718D01*
X3564D01*
Y2713D01*
X3562D01*
Y2708D01*
X3561D01*
Y2706D01*
X3560D01*
Y2702D01*
X3559D01*
Y2699D01*
X3557D01*
Y2698D01*
X3556D01*
Y2695D01*
X3555D01*
Y2693D01*
X3553D01*
Y2691D01*
X3552D01*
Y2690D01*
X3551D01*
Y2686D01*
X3552D01*
Y2685D01*
X3553D01*
Y2684D01*
X3555D01*
Y2682D01*
X3556D01*
Y2681D01*
X3557D01*
Y2680D01*
X3559D01*
Y2679D01*
X3560D01*
Y2677D01*
X3561D01*
Y2676D01*
X3562D01*
Y2675D01*
X3564D01*
Y2672D01*
X3565D01*
Y2671D01*
X3566D01*
Y2670D01*
X3568D01*
Y2668D01*
X3569D01*
Y2667D01*
X3570D01*
Y2666D01*
X3571D01*
Y2664D01*
X3573D01*
Y2663D01*
X3541D01*
Y2664D01*
X3539D01*
Y2666D01*
X3538D01*
Y2667D01*
X3537D01*
Y2668D01*
X3535D01*
Y2671D01*
X3534D01*
Y2672D01*
X3532D01*
Y2671D01*
X3529D01*
Y2670D01*
X3527D01*
Y2668D01*
X3524D01*
Y2667D01*
X3521D01*
Y2666D01*
X3518D01*
Y2664D01*
X3514D01*
Y2663D01*
X3510D01*
Y2662D01*
X3502D01*
Y2661D01*
X3482D01*
Y2662D01*
X3475D01*
Y2663D01*
X3470D01*
Y2664D01*
X3466D01*
Y2666D01*
X3464D01*
Y2667D01*
X3461D01*
Y2668D01*
X3460D01*
Y2670D01*
X3457D01*
Y2671D01*
X3456D01*
Y2672D01*
X3455D01*
Y2673D01*
X3453D01*
Y2675D01*
X3452D01*
Y2676D01*
X3451D01*
Y2677D01*
X3449D01*
Y2680D01*
X3448D01*
Y2681D01*
X3447D01*
Y2684D01*
X3446D01*
Y2688D01*
X3444D01*
Y2693D01*
X3443D01*
Y2711D01*
X3444D01*
Y2716D01*
X3446D01*
Y2718D01*
X3447D01*
Y2722D01*
X3448D01*
Y2724D01*
X3449D01*
Y2726D01*
X3451D01*
Y2727D01*
X3452D01*
Y2730D01*
X3453D01*
Y2731D01*
X3455D01*
Y2733D01*
X3456D01*
Y2734D01*
X3457D01*
Y2735D01*
X3458D01*
Y2736D01*
X3461D01*
Y2738D01*
X3462D01*
Y2739D01*
X3464D01*
Y2740D01*
X3466D01*
Y2742D01*
X3467D01*
Y2743D01*
X3469D01*
Y2744D01*
X3467D01*
Y2747D01*
X3466D01*
Y2748D01*
X3465D01*
Y2749D01*
X3464D01*
Y2752D01*
X3462D01*
Y2753D01*
X3461D01*
Y2756D01*
X3460D01*
Y2757D01*
X3458D01*
Y2760D01*
X3457D01*
Y2763D01*
X3456D01*
Y2767D01*
X3455D01*
Y2774D01*
X3453D01*
Y2780D01*
X3455D01*
Y2788D01*
X3456D01*
Y2792D01*
X3457D01*
Y2794D01*
X3458D01*
Y2797D01*
X3460D01*
Y2798D01*
X3461D01*
Y2801D01*
X3462D01*
Y2802D01*
X3464D01*
Y2803D01*
X3465D01*
Y2804D01*
X3466D01*
Y2806D01*
X3469D01*
Y2807D01*
X3470D01*
Y2808D01*
X3473D01*
Y2810D01*
X3475D01*
Y2811D01*
X3479D01*
Y2812D01*
X3484D01*
Y2813D01*
X3494D01*
Y2815D01*
X3498D01*
Y2813D01*
D02*
G37*
G36*
X3437Y2806D02*
Y2804D01*
Y2788D01*
X3353D01*
Y2748D01*
X3420D01*
Y2724D01*
X3353D01*
Y2663D01*
X3326D01*
Y2812D01*
X3437D01*
Y2806D01*
D02*
G37*
G36*
X3161Y2819D02*
X3164D01*
Y2817D01*
X3167D01*
Y2816D01*
X3168D01*
Y2815D01*
X3169D01*
Y2812D01*
X3170D01*
Y2808D01*
X3172D01*
Y2804D01*
X3170D01*
Y2801D01*
X3169D01*
Y2798D01*
X3168D01*
Y2795D01*
X3167D01*
Y2793D01*
X3165D01*
Y2790D01*
X3164D01*
Y2789D01*
X3163D01*
Y2786D01*
X3161D01*
Y2784D01*
X3160D01*
Y2781D01*
X3159D01*
Y2779D01*
X3158D01*
Y2776D01*
X3156D01*
Y2775D01*
X3155D01*
Y2772D01*
X3154D01*
Y2770D01*
X3152D01*
Y2767D01*
X3151D01*
Y2765D01*
X3150D01*
Y2762D01*
X3149D01*
Y2760D01*
X3147D01*
Y2758D01*
X3146D01*
Y2756D01*
X3145D01*
Y2753D01*
X3143D01*
Y2751D01*
X3142D01*
Y2748D01*
X3141D01*
Y2745D01*
X3140D01*
Y2743D01*
X3138D01*
Y2740D01*
X3137D01*
Y2739D01*
X3136D01*
Y2736D01*
X3134D01*
Y2734D01*
X3133D01*
Y2731D01*
X3132D01*
Y2729D01*
X3131D01*
Y2726D01*
X3129D01*
Y2724D01*
X3128D01*
Y2720D01*
X3127D01*
Y2715D01*
X3125D01*
Y2704D01*
X3127D01*
Y2699D01*
X3128D01*
Y2697D01*
X3129D01*
Y2694D01*
X3131D01*
Y2693D01*
X3132D01*
Y2690D01*
X3133D01*
Y2689D01*
X3134D01*
Y2688D01*
X3136D01*
Y2686D01*
X3137D01*
Y2685D01*
X3140D01*
Y2684D01*
X3142D01*
Y2682D01*
X3143D01*
Y2681D01*
X3146D01*
Y2680D01*
X3149D01*
Y2679D01*
X3151D01*
Y2677D01*
X3155D01*
Y2676D01*
X3158D01*
Y2675D01*
X3163D01*
Y2673D01*
X3168D01*
Y2672D01*
X3174D01*
Y2671D01*
X3199D01*
Y2672D01*
X3206D01*
Y2673D01*
X3212D01*
Y2675D01*
X3215D01*
Y2676D01*
X3219D01*
Y2677D01*
X3222D01*
Y2679D01*
X3224D01*
Y2680D01*
X3227D01*
Y2681D01*
X3230D01*
Y2682D01*
X3232D01*
Y2684D01*
X3233D01*
Y2685D01*
X3236D01*
Y2686D01*
X3237D01*
Y2688D01*
X3240D01*
Y2689D01*
X3241D01*
Y2690D01*
X3242D01*
Y2691D01*
X3245D01*
Y2693D01*
X3246D01*
Y2694D01*
X3248D01*
Y2695D01*
X3249D01*
Y2697D01*
X3250D01*
Y2698D01*
X3251D01*
Y2699D01*
X3253D01*
Y2700D01*
X3254D01*
Y2702D01*
X3255D01*
Y2703D01*
X3257D01*
Y2706D01*
X3258D01*
Y2707D01*
X3259D01*
Y2708D01*
X3260D01*
Y2709D01*
X3262D01*
Y2712D01*
X3263D01*
Y2713D01*
X3264D01*
Y2716D01*
X3266D01*
Y2717D01*
X3267D01*
Y2720D01*
X3268D01*
Y2722D01*
X3269D01*
Y2724D01*
X3271D01*
Y2726D01*
X3272D01*
Y2729D01*
X3273D01*
Y2733D01*
X3275D01*
Y2735D01*
X3276D01*
Y2738D01*
X3277D01*
Y2742D01*
X3278D01*
Y2745D01*
X3280D01*
Y2752D01*
X3281D01*
Y2758D01*
X3282D01*
Y2777D01*
X3284D01*
Y2774D01*
X3285D01*
Y2762D01*
X3286D01*
Y2753D01*
X3285D01*
Y2742D01*
X3284D01*
Y2735D01*
X3282D01*
Y2731D01*
X3281D01*
Y2726D01*
X3280D01*
Y2724D01*
X3278D01*
Y2720D01*
X3277D01*
Y2717D01*
X3276D01*
Y2715D01*
X3275D01*
Y2712D01*
X3273D01*
Y2709D01*
X3272D01*
Y2707D01*
X3271D01*
Y2706D01*
X3269D01*
Y2703D01*
X3268D01*
Y2702D01*
X3267D01*
Y2699D01*
X3266D01*
Y2698D01*
X3264D01*
Y2697D01*
X3263D01*
Y2694D01*
X3262D01*
Y2693D01*
X3260D01*
Y2691D01*
X3259D01*
Y2690D01*
X3258D01*
Y2689D01*
X3257D01*
Y2688D01*
X3255D01*
Y2686D01*
X3254D01*
Y2685D01*
X3253D01*
Y2684D01*
X3251D01*
Y2682D01*
X3250D01*
Y2681D01*
X3248D01*
Y2680D01*
X3246D01*
Y2679D01*
X3245D01*
Y2677D01*
X3242D01*
Y2676D01*
X3241D01*
Y2675D01*
X3239D01*
Y2673D01*
X3237D01*
Y2672D01*
X3235D01*
Y2671D01*
X3232D01*
Y2670D01*
X3230D01*
Y2668D01*
X3227D01*
Y2667D01*
X3224D01*
Y2666D01*
X3221D01*
Y2664D01*
X3217D01*
Y2663D01*
X3213D01*
Y2662D01*
X3208D01*
Y2661D01*
X3200D01*
Y2659D01*
X3172D01*
Y2661D01*
X3165D01*
Y2662D01*
X3160D01*
Y2663D01*
X3156D01*
Y2664D01*
X3152D01*
Y2666D01*
X3149D01*
Y2667D01*
X3146D01*
Y2668D01*
X3143D01*
Y2670D01*
X3141D01*
Y2671D01*
X3138D01*
Y2672D01*
X3136D01*
Y2673D01*
X3133D01*
Y2675D01*
X3132D01*
Y2676D01*
X3129D01*
Y2677D01*
X3128D01*
Y2679D01*
X3127D01*
Y2680D01*
X3124D01*
Y2681D01*
X3123D01*
Y2682D01*
X3122D01*
Y2684D01*
X3120D01*
Y2685D01*
X3119D01*
Y2686D01*
X3118D01*
Y2688D01*
X3117D01*
Y2689D01*
X3115D01*
Y2690D01*
X3114D01*
Y2691D01*
X3113D01*
Y2693D01*
X3111D01*
Y2694D01*
X3110D01*
Y2695D01*
X3109D01*
Y2698D01*
X3108D01*
Y2699D01*
X3106D01*
Y2700D01*
X3105D01*
Y2703D01*
X3104D01*
Y2706D01*
X3102D01*
Y2708D01*
X3101D01*
Y2716D01*
X3100D01*
Y2718D01*
X3101D01*
Y2726D01*
X3102D01*
Y2730D01*
X3104D01*
Y2734D01*
X3105D01*
Y2736D01*
X3106D01*
Y2739D01*
X3108D01*
Y2742D01*
X3109D01*
Y2744D01*
X3110D01*
Y2747D01*
X3111D01*
Y2749D01*
X3113D01*
Y2752D01*
X3114D01*
Y2754D01*
X3115D01*
Y2756D01*
X3117D01*
Y2758D01*
X3118D01*
Y2761D01*
X3119D01*
Y2763D01*
X3120D01*
Y2766D01*
X3122D01*
Y2768D01*
X3123D01*
Y2771D01*
X3124D01*
Y2774D01*
X3125D01*
Y2775D01*
X3127D01*
Y2777D01*
X3128D01*
Y2780D01*
X3129D01*
Y2783D01*
X3131D01*
Y2785D01*
X3132D01*
Y2788D01*
X3133D01*
Y2790D01*
X3134D01*
Y2793D01*
X3136D01*
Y2794D01*
X3137D01*
Y2797D01*
X3138D01*
Y2799D01*
X3140D01*
Y2802D01*
X3141D01*
Y2804D01*
X3142D01*
Y2807D01*
X3143D01*
Y2810D01*
X3145D01*
Y2812D01*
X3146D01*
Y2813D01*
X3147D01*
Y2815D01*
X3149D01*
Y2816D01*
X3150D01*
Y2817D01*
X3151D01*
Y2819D01*
X3154D01*
Y2820D01*
X3161D01*
Y2819D01*
D02*
G37*
G36*
X3625Y2631D02*
X3627D01*
Y2630D01*
X3628D01*
Y2626D01*
X3627D01*
Y2625D01*
X3622D01*
Y2627D01*
X3620D01*
Y2628D01*
X3622D01*
Y2631D01*
X3624D01*
Y2632D01*
X3625D01*
Y2631D01*
D02*
G37*
G36*
X3316Y2617D02*
X3320D01*
Y2616D01*
X3322D01*
Y2614D01*
X3323D01*
Y2613D01*
X3325D01*
Y2610D01*
X3326D01*
Y2608D01*
X3327D01*
Y2581D01*
X3322D01*
Y2605D01*
X3321D01*
Y2608D01*
X3320D01*
Y2609D01*
X3318D01*
Y2610D01*
X3317D01*
Y2612D01*
X3314D01*
Y2613D01*
X3308D01*
Y2612D01*
X3305D01*
Y2610D01*
X3303D01*
Y2609D01*
X3302D01*
Y2607D01*
X3300D01*
Y2601D01*
X3299D01*
Y2586D01*
Y2585D01*
Y2581D01*
X3294D01*
Y2617D01*
X3299D01*
Y2612D01*
X3300D01*
Y2613D01*
X3302D01*
Y2614D01*
X3303D01*
Y2616D01*
X3304D01*
Y2617D01*
X3309D01*
Y2618D01*
X3316D01*
Y2617D01*
D02*
G37*
G36*
X3208D02*
X3210D01*
Y2616D01*
X3212D01*
Y2612D01*
X3200D01*
Y2610D01*
X3197D01*
Y2609D01*
Y2608D01*
X3196D01*
Y2605D01*
X3195D01*
Y2581D01*
X3188D01*
Y2617D01*
X3194D01*
Y2612D01*
X3195D01*
Y2614D01*
X3196D01*
Y2616D01*
X3199D01*
Y2617D01*
X3203D01*
Y2618D01*
X3208D01*
Y2617D01*
D02*
G37*
G36*
X3691D02*
X3696D01*
Y2616D01*
X3697D01*
Y2614D01*
X3699D01*
Y2609D01*
X3696D01*
Y2610D01*
X3695D01*
Y2612D01*
X3690D01*
Y2613D01*
X3683D01*
Y2612D01*
X3681D01*
Y2610D01*
X3679D01*
Y2609D01*
X3678D01*
Y2604D01*
X3679D01*
Y2603D01*
X3683D01*
Y2601D01*
X3694D01*
Y2600D01*
X3696D01*
Y2599D01*
X3697D01*
Y2598D01*
X3699D01*
Y2596D01*
X3700D01*
Y2586D01*
X3699D01*
Y2585D01*
X3697D01*
Y2583D01*
X3696D01*
Y2582D01*
X3695D01*
Y2581D01*
X3691D01*
Y2580D01*
X3679D01*
Y2581D01*
X3676D01*
Y2582D01*
X3673D01*
Y2583D01*
X3672D01*
Y2590D01*
X3673D01*
Y2589D01*
X3674D01*
Y2587D01*
X3677D01*
Y2586D01*
X3681D01*
Y2585D01*
X3690D01*
Y2586D01*
X3692D01*
Y2587D01*
X3694D01*
Y2589D01*
X3695D01*
Y2594D01*
X3694D01*
Y2595D01*
X3690D01*
Y2596D01*
X3681D01*
Y2598D01*
X3677D01*
Y2599D01*
X3674D01*
Y2601D01*
X3673D01*
Y2605D01*
X3672D01*
Y2607D01*
X3673D01*
Y2610D01*
Y2612D01*
X3674D01*
Y2613D01*
X3676D01*
Y2614D01*
X3677D01*
Y2616D01*
X3678D01*
Y2617D01*
X3683D01*
Y2618D01*
X3691D01*
Y2617D01*
D02*
G37*
G36*
X3233D02*
X3239D01*
Y2616D01*
X3241D01*
Y2609D01*
X3240D01*
Y2610D01*
X3237D01*
Y2612D01*
X3232D01*
Y2613D01*
X3227D01*
Y2612D01*
X3223D01*
Y2610D01*
X3222D01*
Y2609D01*
X3221D01*
Y2604D01*
X3222D01*
Y2603D01*
X3227D01*
Y2601D01*
X3236D01*
Y2600D01*
X3239D01*
Y2599D01*
X3241D01*
Y2596D01*
X3242D01*
Y2592D01*
X3244D01*
Y2589D01*
X3242D01*
Y2586D01*
X3241D01*
Y2583D01*
X3240D01*
Y2582D01*
X3237D01*
Y2581D01*
X3233D01*
Y2580D01*
X3223D01*
Y2581D01*
X3218D01*
Y2582D01*
X3217D01*
Y2583D01*
X3215D01*
Y2590D01*
X3217D01*
Y2589D01*
X3218D01*
Y2587D01*
X3219D01*
Y2586D01*
X3223D01*
Y2585D01*
X3233D01*
Y2586D01*
X3235D01*
Y2587D01*
X3236D01*
Y2589D01*
X3237D01*
Y2594D01*
X3236D01*
Y2595D01*
X3233D01*
Y2596D01*
X3223D01*
Y2598D01*
X3219D01*
Y2599D01*
X3218D01*
Y2600D01*
X3217D01*
Y2601D01*
X3215D01*
Y2610D01*
X3217D01*
Y2613D01*
X3218D01*
Y2614D01*
X3219D01*
Y2616D01*
X3222D01*
Y2617D01*
X3226D01*
Y2618D01*
X3233D01*
Y2617D01*
D02*
G37*
G36*
X3658D02*
X3663D01*
Y2616D01*
X3665D01*
Y2614D01*
X3667D01*
Y2608D01*
X3665D01*
Y2609D01*
X3663D01*
Y2610D01*
X3661D01*
Y2612D01*
X3658D01*
Y2613D01*
X3651D01*
Y2612D01*
X3647D01*
Y2610D01*
X3645D01*
Y2609D01*
X3643D01*
Y2608D01*
X3642D01*
Y2605D01*
X3641D01*
Y2599D01*
X3640D01*
Y2598D01*
X3641D01*
Y2592D01*
X3642D01*
Y2590D01*
X3643D01*
Y2589D01*
X3645D01*
Y2587D01*
X3647D01*
Y2586D01*
X3650D01*
Y2585D01*
X3659D01*
Y2586D01*
X3661D01*
Y2587D01*
X3664D01*
Y2589D01*
X3665D01*
Y2590D01*
X3667D01*
Y2583D01*
X3665D01*
Y2582D01*
X3663D01*
Y2581D01*
X3659D01*
Y2580D01*
X3649D01*
Y2581D01*
X3645D01*
Y2582D01*
X3642D01*
Y2583D01*
X3641D01*
Y2585D01*
X3640D01*
Y2586D01*
X3638D01*
Y2587D01*
X3637D01*
Y2590D01*
X3636D01*
Y2594D01*
X3634D01*
Y2604D01*
X3636D01*
Y2608D01*
X3637D01*
Y2610D01*
X3638D01*
Y2612D01*
X3640D01*
Y2613D01*
X3641D01*
Y2614D01*
X3643D01*
Y2616D01*
X3646D01*
Y2617D01*
X3650D01*
Y2618D01*
X3658D01*
Y2617D01*
D02*
G37*
G36*
X3627Y2595D02*
Y2594D01*
Y2581D01*
X3622D01*
Y2617D01*
X3627D01*
Y2595D01*
D02*
G37*
G36*
X3443Y2631D02*
X3447D01*
Y2630D01*
X3449D01*
Y2628D01*
X3451D01*
Y2627D01*
X3452D01*
Y2626D01*
X3453D01*
Y2625D01*
X3455D01*
Y2619D01*
X3456D01*
Y2613D01*
X3455D01*
Y2609D01*
X3453D01*
Y2607D01*
X3452D01*
Y2605D01*
X3451D01*
Y2604D01*
X3449D01*
Y2603D01*
X3446D01*
Y2601D01*
X3443D01*
Y2600D01*
X3444D01*
Y2599D01*
X3446D01*
Y2596D01*
X3447D01*
Y2595D01*
X3448D01*
Y2592D01*
X3449D01*
Y2591D01*
X3451D01*
Y2589D01*
X3452D01*
Y2587D01*
X3453D01*
Y2585D01*
X3455D01*
Y2583D01*
X3456D01*
Y2581D01*
X3449D01*
Y2582D01*
X3448D01*
Y2583D01*
X3447D01*
Y2586D01*
X3446D01*
Y2587D01*
X3444D01*
Y2590D01*
X3443D01*
Y2591D01*
X3442D01*
Y2594D01*
X3440D01*
Y2596D01*
X3439D01*
Y2598D01*
X3438D01*
Y2600D01*
X3421D01*
Y2581D01*
X3415D01*
Y2632D01*
X3443D01*
Y2631D01*
D02*
G37*
G36*
X3388Y2617D02*
Y2616D01*
Y2581D01*
X3381D01*
Y2635D01*
X3388D01*
Y2617D01*
D02*
G37*
G36*
X3357D02*
X3361D01*
Y2616D01*
X3363D01*
Y2614D01*
X3365D01*
Y2613D01*
X3366D01*
Y2612D01*
X3367D01*
Y2617D01*
X3372D01*
Y2612D01*
Y2610D01*
Y2581D01*
X3367D01*
Y2585D01*
X3366D01*
Y2583D01*
X3363D01*
Y2582D01*
X3362D01*
Y2581D01*
X3358D01*
Y2580D01*
X3348D01*
Y2581D01*
X3344D01*
Y2582D01*
X3343D01*
Y2583D01*
X3340D01*
Y2585D01*
X3339D01*
Y2586D01*
X3338D01*
Y2589D01*
X3336D01*
Y2591D01*
X3335D01*
Y2596D01*
X3334D01*
Y2600D01*
X3335D01*
Y2607D01*
X3336D01*
Y2609D01*
X3338D01*
Y2610D01*
X3339D01*
Y2612D01*
X3340D01*
Y2613D01*
X3341D01*
Y2614D01*
X3343D01*
Y2616D01*
X3345D01*
Y2617D01*
X3349D01*
Y2618D01*
X3357D01*
Y2617D01*
D02*
G37*
G36*
X3128Y2631D02*
X3132D01*
Y2630D01*
X3134D01*
Y2628D01*
X3136D01*
Y2627D01*
X3137D01*
Y2626D01*
X3138D01*
Y2625D01*
X3140D01*
Y2619D01*
X3141D01*
Y2613D01*
X3140D01*
Y2608D01*
X3138D01*
Y2607D01*
X3137D01*
Y2604D01*
X3134D01*
Y2603D01*
X3133D01*
Y2601D01*
X3129D01*
Y2600D01*
X3106D01*
Y2581D01*
X3100D01*
Y2618D01*
Y2619D01*
Y2631D01*
X3101D01*
Y2632D01*
X3128D01*
Y2631D01*
D02*
G37*
G36*
X3602Y2626D02*
X3604D01*
Y2617D01*
X3615D01*
Y2612D01*
X3604D01*
Y2587D01*
X3605D01*
Y2586D01*
X3606D01*
Y2585D01*
X3613D01*
Y2586D01*
X3615D01*
Y2581D01*
X3613D01*
Y2580D01*
X3605D01*
Y2581D01*
X3602D01*
Y2582D01*
X3601D01*
Y2583D01*
X3600D01*
Y2585D01*
X3598D01*
Y2587D01*
X3597D01*
Y2612D01*
X3591D01*
Y2617D01*
X3597D01*
Y2621D01*
X3598D01*
Y2627D01*
X3602D01*
Y2626D01*
D02*
G37*
G36*
X3573Y2617D02*
X3577D01*
Y2616D01*
X3579D01*
Y2614D01*
X3582D01*
Y2613D01*
X3583D01*
Y2612D01*
X3584D01*
Y2610D01*
X3586D01*
Y2608D01*
X3587D01*
Y2604D01*
X3588D01*
Y2592D01*
X3587D01*
Y2590D01*
X3586D01*
Y2587D01*
X3584D01*
Y2586D01*
X3583D01*
Y2585D01*
X3582D01*
Y2583D01*
X3580D01*
Y2582D01*
X3578D01*
Y2581D01*
X3574D01*
Y2580D01*
X3564D01*
Y2581D01*
X3560D01*
Y2582D01*
X3557D01*
Y2583D01*
X3556D01*
Y2585D01*
X3555D01*
Y2586D01*
X3553D01*
Y2587D01*
X3552D01*
Y2590D01*
X3551D01*
Y2594D01*
X3550D01*
Y2604D01*
X3551D01*
Y2608D01*
X3552D01*
Y2609D01*
X3553D01*
Y2612D01*
X3555D01*
Y2613D01*
X3556D01*
Y2614D01*
X3559D01*
Y2616D01*
X3561D01*
Y2617D01*
X3565D01*
Y2618D01*
X3573D01*
Y2617D01*
D02*
G37*
G36*
X3512Y2613D02*
X3514D01*
Y2614D01*
X3515D01*
Y2616D01*
X3518D01*
Y2617D01*
X3523D01*
Y2618D01*
X3529D01*
Y2617D01*
X3534D01*
Y2616D01*
X3537D01*
Y2614D01*
X3538D01*
Y2613D01*
X3539D01*
Y2612D01*
X3541D01*
Y2610D01*
X3542D01*
Y2608D01*
X3543D01*
Y2604D01*
X3544D01*
Y2598D01*
Y2596D01*
Y2592D01*
X3543D01*
Y2590D01*
X3542D01*
Y2587D01*
X3541D01*
Y2586D01*
X3539D01*
Y2585D01*
X3538D01*
Y2583D01*
X3537D01*
Y2582D01*
X3534D01*
Y2581D01*
X3530D01*
Y2580D01*
X3521D01*
Y2581D01*
X3518D01*
Y2582D01*
X3515D01*
Y2583D01*
X3514D01*
Y2585D01*
X3512D01*
Y2586D01*
X3511D01*
Y2581D01*
X3506D01*
Y2635D01*
X3512D01*
Y2613D01*
D02*
G37*
G36*
X3483Y2617D02*
X3488D01*
Y2616D01*
X3491D01*
Y2614D01*
X3492D01*
Y2613D01*
X3493D01*
Y2612D01*
X3494D01*
Y2610D01*
X3496D01*
Y2609D01*
X3497D01*
Y2607D01*
X3498D01*
Y2601D01*
X3500D01*
Y2596D01*
X3498D01*
Y2591D01*
X3497D01*
Y2589D01*
X3496D01*
Y2587D01*
X3494D01*
Y2585D01*
X3493D01*
Y2583D01*
X3491D01*
Y2582D01*
X3488D01*
Y2581D01*
X3484D01*
Y2580D01*
X3475D01*
Y2581D01*
X3471D01*
Y2582D01*
X3469D01*
Y2583D01*
X3467D01*
Y2585D01*
X3466D01*
Y2586D01*
X3465D01*
Y2587D01*
X3464D01*
Y2589D01*
X3462D01*
Y2591D01*
X3461D01*
Y2605D01*
X3462D01*
Y2609D01*
X3464D01*
Y2610D01*
X3465D01*
Y2612D01*
X3466D01*
Y2613D01*
X3467D01*
Y2614D01*
X3469D01*
Y2616D01*
X3471D01*
Y2617D01*
X3476D01*
Y2618D01*
X3483D01*
Y2617D01*
D02*
G37*
G36*
X3271D02*
X3275D01*
Y2616D01*
X3278D01*
Y2614D01*
X3280D01*
Y2613D01*
X3281D01*
Y2612D01*
X3282D01*
Y2610D01*
X3284D01*
Y2608D01*
X3285D01*
Y2605D01*
X3286D01*
Y2594D01*
Y2592D01*
X3285D01*
Y2589D01*
X3284D01*
Y2587D01*
X3282D01*
Y2586D01*
X3281D01*
Y2585D01*
X3280D01*
Y2583D01*
X3278D01*
Y2582D01*
X3276D01*
Y2581D01*
X3272D01*
Y2580D01*
X3262D01*
Y2581D01*
X3258D01*
Y2582D01*
X3257D01*
Y2583D01*
X3254D01*
Y2585D01*
X3253D01*
Y2586D01*
X3251D01*
Y2589D01*
X3250D01*
Y2590D01*
X3249D01*
Y2595D01*
X3248D01*
Y2603D01*
X3249D01*
Y2607D01*
X3250D01*
Y2609D01*
X3251D01*
Y2610D01*
X3253D01*
Y2613D01*
X3255D01*
Y2614D01*
X3257D01*
Y2616D01*
X3259D01*
Y2617D01*
X3264D01*
Y2618D01*
X3271D01*
Y2617D01*
D02*
G37*
G36*
X3167D02*
X3172D01*
Y2616D01*
X3174D01*
Y2614D01*
X3176D01*
Y2613D01*
X3177D01*
Y2612D01*
X3178D01*
Y2610D01*
X3179D01*
Y2608D01*
X3181D01*
Y2601D01*
X3182D01*
Y2598D01*
X3181D01*
Y2596D01*
X3150D01*
Y2594D01*
X3151D01*
Y2592D01*
Y2591D01*
X3152D01*
Y2589D01*
X3155D01*
Y2587D01*
X3156D01*
Y2586D01*
X3160D01*
Y2585D01*
X3170D01*
Y2586D01*
X3174D01*
Y2587D01*
X3176D01*
Y2589D01*
X3178D01*
Y2590D01*
X3179D01*
Y2585D01*
X3178D01*
Y2583D01*
X3177D01*
Y2582D01*
X3174D01*
Y2581D01*
X3170D01*
Y2580D01*
X3159D01*
Y2581D01*
X3155D01*
Y2582D01*
X3152D01*
Y2583D01*
X3150D01*
Y2585D01*
X3149D01*
Y2586D01*
X3147D01*
Y2589D01*
X3146D01*
Y2591D01*
X3145D01*
Y2595D01*
X3143D01*
Y2603D01*
X3145D01*
Y2607D01*
X3146D01*
Y2609D01*
X3147D01*
Y2610D01*
X3149D01*
Y2613D01*
X3151D01*
Y2614D01*
X3152D01*
Y2616D01*
X3155D01*
Y2617D01*
X3159D01*
Y2618D01*
X3167D01*
Y2617D01*
D02*
G37*
%LPC*%
G36*
X3664Y2788D02*
X3622D01*
Y2775D01*
Y2774D01*
Y2740D01*
X3669D01*
Y2742D01*
X3673D01*
Y2743D01*
X3676D01*
Y2744D01*
X3678D01*
Y2745D01*
X3679D01*
Y2747D01*
X3681D01*
Y2748D01*
X3682D01*
Y2749D01*
X3683D01*
Y2751D01*
X3685D01*
Y2753D01*
X3686D01*
Y2760D01*
X3687D01*
Y2767D01*
X3686D01*
Y2774D01*
X3685D01*
Y2776D01*
X3683D01*
Y2779D01*
X3682D01*
Y2780D01*
X3681D01*
Y2781D01*
X3679D01*
Y2783D01*
X3677D01*
Y2784D01*
X3674D01*
Y2785D01*
X3672D01*
Y2786D01*
X3664D01*
Y2788D01*
D02*
G37*
G36*
X3498Y2793D02*
X3497D01*
Y2792D01*
X3489D01*
Y2790D01*
X3485D01*
Y2789D01*
X3484D01*
Y2788D01*
X3483D01*
Y2786D01*
X3482D01*
Y2785D01*
X3480D01*
Y2784D01*
X3479D01*
Y2781D01*
Y2780D01*
X3478D01*
Y2774D01*
X3479D01*
Y2768D01*
X3480D01*
Y2766D01*
X3482D01*
Y2763D01*
X3483D01*
Y2762D01*
X3484D01*
Y2761D01*
X3485D01*
Y2758D01*
X3487D01*
Y2757D01*
X3488D01*
Y2756D01*
X3489D01*
Y2754D01*
X3491D01*
Y2753D01*
X3492D01*
Y2754D01*
X3494D01*
Y2756D01*
X3497D01*
Y2757D01*
X3500D01*
Y2758D01*
X3502D01*
Y2760D01*
X3505D01*
Y2761D01*
X3506D01*
Y2762D01*
X3509D01*
Y2763D01*
X3510D01*
Y2765D01*
X3511D01*
Y2766D01*
X3512D01*
Y2767D01*
X3514D01*
Y2770D01*
X3515D01*
Y2772D01*
X3516D01*
Y2783D01*
X3515D01*
Y2785D01*
X3514D01*
Y2786D01*
X3512D01*
Y2788D01*
X3511D01*
Y2789D01*
X3509D01*
Y2790D01*
X3506D01*
Y2792D01*
X3498D01*
Y2793D01*
D02*
G37*
G36*
X3484Y2727D02*
X3483D01*
Y2726D01*
X3480D01*
Y2725D01*
X3479D01*
Y2724D01*
X3478D01*
Y2722D01*
X3475D01*
Y2721D01*
X3474D01*
Y2718D01*
X3473D01*
Y2717D01*
X3471D01*
Y2716D01*
X3470D01*
Y2713D01*
X3469D01*
Y2709D01*
X3467D01*
Y2698D01*
X3469D01*
Y2694D01*
X3470D01*
Y2693D01*
X3471D01*
Y2690D01*
X3473D01*
Y2689D01*
X3474D01*
Y2688D01*
X3475D01*
Y2686D01*
X3478D01*
Y2685D01*
X3480D01*
Y2684D01*
X3484D01*
Y2682D01*
X3505D01*
Y2684D01*
X3510D01*
Y2685D01*
X3514D01*
Y2686D01*
X3516D01*
Y2688D01*
X3519D01*
Y2689D01*
X3518D01*
Y2690D01*
X3516D01*
Y2691D01*
X3515D01*
Y2693D01*
X3514D01*
Y2694D01*
X3512D01*
Y2697D01*
X3511D01*
Y2698D01*
X3510D01*
Y2699D01*
X3509D01*
Y2700D01*
X3507D01*
Y2702D01*
X3506D01*
Y2703D01*
X3505D01*
Y2704D01*
X3503D01*
Y2706D01*
X3502D01*
Y2708D01*
X3501D01*
Y2709D01*
X3500D01*
Y2711D01*
X3498D01*
Y2712D01*
X3497D01*
Y2713D01*
X3496D01*
Y2715D01*
X3494D01*
Y2716D01*
X3493D01*
Y2717D01*
X3492D01*
Y2718D01*
X3491D01*
Y2721D01*
X3489D01*
Y2722D01*
X3488D01*
Y2724D01*
X3487D01*
Y2725D01*
X3485D01*
Y2726D01*
X3484D01*
Y2727D01*
D02*
G37*
G36*
X3444Y2626D02*
X3421D01*
Y2607D01*
X3443D01*
Y2608D01*
X3446D01*
Y2609D01*
X3447D01*
Y2610D01*
X3448D01*
Y2613D01*
X3449D01*
Y2619D01*
X3448D01*
Y2622D01*
X3447D01*
Y2623D01*
X3446D01*
Y2625D01*
X3444D01*
Y2626D01*
D02*
G37*
G36*
X3357Y2613D02*
X3350D01*
Y2612D01*
X3347D01*
Y2610D01*
X3345D01*
Y2609D01*
X3344D01*
Y2608D01*
X3343D01*
Y2607D01*
X3341D01*
Y2604D01*
X3340D01*
Y2594D01*
X3341D01*
Y2591D01*
X3343D01*
Y2589D01*
X3344D01*
Y2587D01*
X3347D01*
Y2586D01*
X3349D01*
Y2585D01*
X3358D01*
Y2586D01*
X3361D01*
Y2587D01*
X3362D01*
Y2589D01*
X3363D01*
Y2590D01*
X3365D01*
Y2591D01*
X3366D01*
Y2594D01*
X3367D01*
Y2604D01*
X3366D01*
Y2607D01*
X3365D01*
Y2608D01*
X3363D01*
Y2609D01*
X3362D01*
Y2610D01*
X3361D01*
Y2612D01*
X3357D01*
Y2613D01*
D02*
G37*
G36*
X3129Y2626D02*
X3106D01*
Y2605D01*
X3124D01*
Y2607D01*
X3129D01*
Y2608D01*
X3132D01*
Y2610D01*
X3133D01*
Y2613D01*
X3134D01*
Y2619D01*
X3133D01*
Y2622D01*
X3132D01*
Y2623D01*
X3131D01*
Y2625D01*
X3129D01*
Y2626D01*
D02*
G37*
G36*
X3571Y2613D02*
X3566D01*
Y2612D01*
X3562D01*
Y2610D01*
X3560D01*
Y2609D01*
X3559D01*
Y2607D01*
X3557D01*
Y2605D01*
X3556D01*
Y2592D01*
X3557D01*
Y2590D01*
X3559D01*
Y2589D01*
X3560D01*
Y2587D01*
X3562D01*
Y2586D01*
X3565D01*
Y2585D01*
X3573D01*
Y2586D01*
X3577D01*
Y2587D01*
X3578D01*
Y2589D01*
X3579D01*
Y2590D01*
X3580D01*
Y2592D01*
X3582D01*
Y2596D01*
X3583D01*
Y2600D01*
X3582D01*
Y2605D01*
X3580D01*
Y2608D01*
X3579D01*
Y2609D01*
X3578D01*
Y2610D01*
X3575D01*
Y2612D01*
X3571D01*
Y2613D01*
D02*
G37*
G36*
X3528D02*
X3523D01*
Y2612D01*
X3519D01*
Y2610D01*
X3516D01*
Y2609D01*
X3515D01*
Y2607D01*
X3514D01*
Y2605D01*
X3512D01*
Y2594D01*
Y2592D01*
X3514D01*
Y2590D01*
X3515D01*
Y2589D01*
X3516D01*
Y2587D01*
X3519D01*
Y2586D01*
X3521D01*
Y2585D01*
X3529D01*
Y2586D01*
X3533D01*
Y2587D01*
X3534D01*
Y2589D01*
X3535D01*
Y2590D01*
X3537D01*
Y2592D01*
X3538D01*
Y2596D01*
X3539D01*
Y2600D01*
X3538D01*
Y2605D01*
X3537D01*
Y2608D01*
X3535D01*
Y2609D01*
X3534D01*
Y2610D01*
X3532D01*
Y2612D01*
X3528D01*
Y2613D01*
D02*
G37*
G36*
X3483D02*
X3476D01*
Y2612D01*
X3474D01*
Y2610D01*
X3471D01*
Y2609D01*
X3470D01*
Y2608D01*
X3469D01*
Y2607D01*
X3467D01*
Y2603D01*
X3466D01*
Y2601D01*
Y2594D01*
X3467D01*
Y2591D01*
X3469D01*
Y2590D01*
X3470D01*
Y2589D01*
X3471D01*
Y2587D01*
X3473D01*
Y2586D01*
X3475D01*
Y2585D01*
X3484D01*
Y2586D01*
X3487D01*
Y2587D01*
X3489D01*
Y2589D01*
X3491D01*
Y2591D01*
X3492D01*
Y2594D01*
X3493D01*
Y2604D01*
X3492D01*
Y2607D01*
X3491D01*
Y2608D01*
X3489D01*
Y2609D01*
X3488D01*
Y2610D01*
X3487D01*
Y2612D01*
X3483D01*
Y2613D01*
D02*
G37*
G36*
X3269D02*
X3264D01*
Y2612D01*
X3260D01*
Y2610D01*
X3259D01*
Y2609D01*
X3258D01*
Y2608D01*
X3257D01*
Y2607D01*
X3255D01*
Y2604D01*
X3254D01*
Y2592D01*
X3255D01*
Y2591D01*
X3257D01*
Y2589D01*
X3258D01*
Y2587D01*
X3260D01*
Y2586D01*
X3263D01*
Y2585D01*
X3272D01*
Y2586D01*
X3275D01*
Y2587D01*
X3276D01*
Y2589D01*
X3277D01*
Y2590D01*
X3278D01*
Y2591D01*
X3280D01*
Y2595D01*
X3281D01*
Y2601D01*
X3280D01*
Y2605D01*
X3278D01*
Y2608D01*
X3277D01*
Y2609D01*
X3276D01*
Y2610D01*
X3273D01*
Y2612D01*
X3269D01*
Y2613D01*
D02*
G37*
G36*
X3165D02*
X3160D01*
Y2612D01*
X3156D01*
Y2610D01*
X3154D01*
Y2609D01*
X3152D01*
Y2607D01*
X3151D01*
Y2605D01*
X3150D01*
Y2601D01*
X3176D01*
Y2605D01*
X3174D01*
Y2608D01*
X3173D01*
Y2609D01*
X3172D01*
Y2610D01*
X3169D01*
Y2612D01*
X3165D01*
Y2613D01*
D02*
G37*
%LPD*%
D10*
X1348Y2644D02*
G03*
X1348Y2644I-5J0D01*
G01*
X1351Y2408D02*
G03*
X1351Y2408I-5J0D01*
G01*
X1355Y2878D02*
G03*
X1355Y2878I-5J0D01*
G01*
X4621Y5556D02*
Y5606D01*
Y5206D02*
Y5256D01*
Y5206D02*
X5521D01*
Y5256D01*
X5421Y5606D02*
X5511D01*
X5521D01*
Y5556D02*
Y5606D01*
X4621D02*
X4721D01*
X6770Y5556D02*
Y5606D01*
X6760D02*
X6770D01*
X6670D02*
X6760D01*
X6770Y5206D02*
Y5256D01*
X5870Y5206D02*
X6770D01*
X5870D02*
Y5256D01*
Y5556D02*
Y5606D01*
X5970D01*
X3024Y5556D02*
Y5606D01*
X3014D02*
X3024D01*
X2924D02*
X3014D01*
X3024Y5206D02*
Y5256D01*
X2124Y5206D02*
X3024D01*
X2124D02*
Y5256D01*
Y5556D02*
Y5606D01*
X2224D01*
X4273Y5556D02*
Y5606D01*
X4263D02*
X4273D01*
X4173D02*
X4263D01*
X4273Y5206D02*
Y5256D01*
X3373Y5206D02*
X4273D01*
X3373D02*
Y5256D01*
Y5556D02*
Y5606D01*
X3473D01*
D11*
X2081Y3293D02*
G03*
X2081Y3293I-10J0D01*
G01*
X3166D02*
G03*
X3166Y3293I-10J0D01*
G01*
X2081Y4155D02*
G03*
X2081Y4155I-10J0D01*
G01*
X3166D02*
G03*
X3166Y4155I-10J0D01*
G01*
D12*
X6301Y1064D02*
G03*
X6301Y1064I-10J0D01*
G01*
X3541Y1197D02*
G03*
X3541Y1197I-10J0D01*
G01*
X773Y1210D02*
G03*
X773Y1210I-10J0D01*
G01*
X7016Y763D02*
Y818D01*
X6940Y763D02*
Y818D01*
X6678Y2393D02*
Y2448D01*
X2277Y2438D02*
X2332D01*
X2277Y2362D02*
X2332D01*
X5041Y2434D02*
X5096D01*
X5041Y2358D02*
X5096D01*
X3644Y1894D02*
X3699D01*
X3644Y1970D02*
X3699D01*
X3650Y1740D02*
X3705D01*
X3650Y1816D02*
X3705D01*
X3708Y1574D02*
X3763D01*
X3708Y1650D02*
X3763D01*
X6043Y1016D02*
X6198D01*
X6043Y1262D02*
X6198D01*
X6458Y1284D02*
Y1339D01*
X6382Y1284D02*
Y1339D01*
X5765Y1108D02*
Y1164D01*
X5688Y1108D02*
Y1164D01*
X5587Y1108D02*
Y1164D01*
X5511Y1108D02*
Y1164D01*
X5902Y1219D02*
Y1275D01*
X5826Y1219D02*
Y1275D01*
X6602Y2393D02*
Y2448D01*
X955Y1088D02*
X1010D01*
X955Y1012D02*
X1010D01*
X714Y1303D02*
Y1458D01*
X961Y1303D02*
Y1458D01*
X820Y1749D02*
X876D01*
X820Y1825D02*
X876D01*
X820Y1888D02*
X876D01*
X820Y1965D02*
X876D01*
X918Y1610D02*
X973D01*
X918Y1686D02*
X973D01*
X3483Y1290D02*
Y1445D01*
X3729Y1290D02*
Y1445D01*
X3760Y1040D02*
X3815D01*
X3760Y1116D02*
X3815D01*
X528Y763D02*
Y818D01*
X452Y763D02*
Y818D01*
X7022Y4976D02*
Y5031D01*
X7098Y4976D02*
Y5031D01*
X500Y4905D02*
Y4960D01*
X424Y4905D02*
Y4960D01*
D13*
X7297Y1975D02*
Y2467D01*
X7204Y2560D02*
X7297Y2467D01*
X7132Y2560D02*
X7204D01*
X6837Y2540D02*
X6857Y2560D01*
X6857D02*
X6932D01*
X6767Y1975D02*
Y2470D01*
X6837Y2540D01*
X6767Y1975D02*
X6932D01*
X7132D02*
X7297D01*
X6817Y2443D02*
X6914D01*
X6867Y2397D02*
Y2486D01*
X5531Y1717D02*
X5597D01*
X5731D02*
X5797D01*
X5597D02*
X5731D01*
X5531D02*
Y2733D01*
X5797D01*
X6267D02*
X6534D01*
Y1717D02*
Y2733D01*
X6267Y1717D02*
X6534D01*
X4193Y660D02*
Y927D01*
Y660D02*
X5209D01*
Y927D01*
Y1397D02*
Y1663D01*
X4193D02*
X5209D01*
X4193Y1463D02*
Y1597D01*
Y1397D02*
Y1463D01*
Y1597D02*
Y1663D01*
X2383Y2146D02*
Y2243D01*
X1914Y1763D02*
Y1928D01*
Y2128D02*
Y2293D01*
X2409D02*
X2479Y2223D01*
X1914Y2293D02*
X2409D01*
X2499Y2128D02*
Y2203D01*
X2479Y2223D02*
X2499Y2203D01*
Y1856D02*
Y1928D01*
X2407Y1763D02*
X2499Y1856D01*
X1914Y1763D02*
X2407D01*
X1472Y682D02*
Y949D01*
Y682D02*
X2488D01*
Y949D01*
Y1419D02*
Y1685D01*
X1472D02*
X2488D01*
X1472Y1485D02*
Y1619D01*
Y1419D02*
Y1485D01*
Y1619D02*
Y1685D01*
X5055Y2155D02*
X5144D01*
X5101Y2108D02*
Y2205D01*
X4633Y1725D02*
Y1890D01*
Y2090D02*
Y2255D01*
X5128D02*
X5198Y2185D01*
X4633Y2255D02*
X5128D01*
X5218Y2090D02*
Y2165D01*
X5198Y2185D02*
X5218Y2165D01*
Y1817D02*
Y1890D01*
X5126Y1725D02*
X5218Y1817D01*
X4633Y1725D02*
X5126D01*
X2336Y2193D02*
X2425D01*
X4288Y2969D02*
X4262Y2995D01*
Y3046D01*
X4288Y3071D01*
X4313D01*
X4338Y3046D01*
Y3020D01*
Y3046D01*
X4364Y3071D01*
X4389D01*
X4415Y3046D01*
Y2995D01*
X4389Y2969D01*
X4415Y3122D02*
X4389D01*
Y3147D01*
X4415D01*
Y3122D01*
X4288Y3249D02*
X4262Y3274D01*
Y3325D01*
X4288Y3350D01*
X4313D01*
X4338Y3325D01*
Y3299D01*
Y3325D01*
X4364Y3350D01*
X4389D01*
X4415Y3325D01*
Y3274D01*
X4389Y3249D01*
X4262Y3401D02*
X4364D01*
X4415Y3452D01*
X4364Y3503D01*
X4262D01*
X4282Y4209D02*
X4256Y4235D01*
Y4286D01*
X4282Y4311D01*
X4307D01*
X4332Y4286D01*
Y4260D01*
Y4286D01*
X4358Y4311D01*
X4383D01*
X4409Y4286D01*
Y4235D01*
X4383Y4209D01*
X4409Y4362D02*
X4383D01*
Y4387D01*
X4409D01*
Y4362D01*
X4282Y4489D02*
X4256Y4514D01*
Y4565D01*
X4282Y4590D01*
X4307D01*
X4332Y4565D01*
Y4539D01*
Y4565D01*
X4358Y4590D01*
X4383D01*
X4409Y4565D01*
Y4514D01*
X4383Y4489D01*
X4256Y4641D02*
X4358D01*
X4409Y4692D01*
X4358Y4743D01*
X4256D01*
X5284Y3123D02*
X5437D01*
Y3200D01*
X5411Y3225D01*
X5310D01*
X5284Y3200D01*
Y3123D01*
Y3276D02*
Y3327D01*
Y3301D01*
X5437D01*
Y3276D01*
Y3327D01*
Y3504D02*
Y3403D01*
X5335Y3504D01*
X5310D01*
X5284Y3479D01*
Y3428D01*
X5310Y3403D01*
X5028Y3123D02*
X5181D01*
Y3200D01*
X5155Y3225D01*
X5054D01*
X5028Y3200D01*
Y3123D01*
Y3276D02*
Y3327D01*
Y3301D01*
X5181D01*
Y3276D01*
Y3327D01*
X5054Y3403D02*
X5028Y3428D01*
Y3479D01*
X5054Y3504D01*
X5079D01*
X5104Y3479D01*
Y3453D01*
Y3479D01*
X5130Y3504D01*
X5155D01*
X5181Y3479D01*
Y3428D01*
X5155Y3403D01*
X5542Y3123D02*
X5695D01*
Y3200D01*
X5669Y3225D01*
X5568D01*
X5542Y3200D01*
Y3123D01*
Y3276D02*
Y3327D01*
Y3301D01*
X5695D01*
Y3276D01*
Y3327D01*
Y3403D02*
Y3453D01*
Y3428D01*
X5542D01*
X5568Y3403D01*
X4002Y3349D02*
Y3247D01*
X4078D01*
X4053Y3298D01*
Y3324D01*
X4078Y3349D01*
X4129D01*
X4155Y3324D01*
Y3273D01*
X4129Y3247D01*
X4002Y3400D02*
X4104D01*
X4155Y3451D01*
X4104Y3501D01*
X4002D01*
X4665Y3119D02*
Y3170D01*
Y3145D01*
X4512D01*
X4538Y3119D01*
X4665Y3348D02*
Y3246D01*
X4563Y3348D01*
X4538D01*
X4512Y3323D01*
Y3272D01*
X4538Y3246D01*
X4512Y3399D02*
X4614D01*
X4665Y3449D01*
X4614Y3500D01*
X4512D01*
X5282Y4195D02*
X5435D01*
Y4272D01*
X5409Y4297D01*
X5308D01*
X5282Y4272D01*
Y4195D01*
Y4424D02*
Y4373D01*
X5308Y4348D01*
X5409D01*
X5435Y4373D01*
Y4424D01*
X5409Y4449D01*
X5308D01*
X5282Y4424D01*
X5435Y4602D02*
Y4500D01*
X5333Y4602D01*
X5308D01*
X5282Y4576D01*
Y4525D01*
X5308Y4500D01*
X5358Y4652D02*
Y4754D01*
X5536Y4199D02*
X5689D01*
Y4276D01*
X5663Y4301D01*
X5562D01*
X5536Y4276D01*
Y4199D01*
Y4428D02*
Y4377D01*
X5562Y4352D01*
X5663D01*
X5689Y4377D01*
Y4428D01*
X5663Y4453D01*
X5562D01*
X5536Y4428D01*
X5689Y4504D02*
Y4555D01*
Y4529D01*
X5536D01*
X5562Y4504D01*
X5612Y4631D02*
Y4733D01*
X4772Y4195D02*
X4925D01*
Y4272D01*
X4899Y4297D01*
X4798D01*
X4772Y4272D01*
Y4195D01*
Y4424D02*
Y4373D01*
X4798Y4348D01*
X4899D01*
X4925Y4373D01*
Y4424D01*
X4899Y4449D01*
X4798D01*
X4772Y4424D01*
X4925Y4576D02*
X4772D01*
X4848Y4500D01*
Y4602D01*
Y4652D02*
Y4754D01*
X5024Y4197D02*
X5177D01*
Y4274D01*
X5151Y4299D01*
X5050D01*
X5024Y4274D01*
Y4197D01*
Y4426D02*
Y4375D01*
X5050Y4350D01*
X5151D01*
X5177Y4375D01*
Y4426D01*
X5151Y4451D01*
X5050D01*
X5024Y4426D01*
X5050Y4502D02*
X5024Y4527D01*
Y4578D01*
X5050Y4604D01*
X5075D01*
X5100Y4578D01*
Y4553D01*
Y4578D01*
X5126Y4604D01*
X5151D01*
X5177Y4578D01*
Y4527D01*
X5151Y4502D01*
X5100Y4654D02*
Y4756D01*
X4667Y4209D02*
Y4260D01*
Y4235D01*
X4514D01*
X4540Y4209D01*
X4667Y4438D02*
Y4336D01*
X4565Y4438D01*
X4540D01*
X4514Y4413D01*
Y4362D01*
X4540Y4336D01*
X4514Y4489D02*
X4616D01*
X4667Y4539D01*
X4616Y4590D01*
X4514D01*
X4002Y4303D02*
Y4201D01*
X4078D01*
X4053Y4252D01*
Y4278D01*
X4078Y4303D01*
X4129D01*
X4155Y4278D01*
Y4227D01*
X4129Y4201D01*
X4002Y4354D02*
X4104D01*
X4155Y4405D01*
X4104Y4455D01*
X4002D01*
X4766Y3123D02*
X4919D01*
Y3200D01*
X4893Y3225D01*
X4792D01*
X4766Y3200D01*
Y3123D01*
Y3276D02*
Y3327D01*
Y3301D01*
X4919D01*
Y3276D01*
Y3327D01*
Y3479D02*
X4766D01*
X4842Y3403D01*
Y3504D01*
X3764Y3191D02*
X3738Y3166D01*
Y3115D01*
X3764Y3089D01*
X3865D01*
X3891Y3115D01*
Y3166D01*
X3865Y3191D01*
X3814D01*
Y3140D01*
X3891Y3242D02*
X3738D01*
X3891Y3343D01*
X3738D01*
Y3394D02*
X3891D01*
Y3470D01*
X3865Y3496D01*
X3764D01*
X3738Y3470D01*
Y3394D01*
X3766Y4303D02*
X3740Y4278D01*
Y4227D01*
X3766Y4201D01*
X3867D01*
X3893Y4227D01*
Y4278D01*
X3867Y4303D01*
X3816D01*
Y4252D01*
X3893Y4354D02*
X3740D01*
X3893Y4455D01*
X3740D01*
Y4506D02*
X3893D01*
Y4582D01*
X3867Y4608D01*
X3766D01*
X3740Y4582D01*
Y4506D01*
D14*
X453Y2704D02*
X728D01*
X450Y2412D02*
Y2856D01*
X730Y2412D02*
Y2856D01*
X700Y2412D02*
X730D01*
X450D02*
X480D01*
X450Y2856D02*
X480D01*
X700D02*
X730D01*
X1015Y3035D02*
Y3048D01*
X1305Y3035D02*
Y3048D01*
X1015Y2868D02*
Y2881D01*
X1305Y2868D02*
Y2881D01*
X1015Y3048D02*
X1305D01*
X1015Y2868D02*
X1305D01*
X1202D02*
Y3048D01*
X1011Y2566D02*
Y2578D01*
X1301Y2566D02*
Y2578D01*
X1011Y2398D02*
Y2410D01*
X1301Y2398D02*
Y2410D01*
X1011Y2578D02*
X1301D01*
X1011Y2398D02*
X1301D01*
X1198D02*
Y2578D01*
X1007Y2801D02*
Y2814D01*
X1298Y2801D02*
Y2814D01*
X1007Y2634D02*
Y2647D01*
X1298Y2634D02*
Y2647D01*
X1007Y2814D02*
X1298D01*
X1007Y2634D02*
X1298D01*
X1195D02*
Y2814D01*
X6907Y1206D02*
Y1336D01*
X7147Y1206D02*
Y1336D01*
X6552Y1206D02*
Y1336D01*
X6792Y1206D02*
Y1336D01*
X955Y302D02*
X1085D01*
X955Y542D02*
X1085D01*
X957Y646D02*
X1087D01*
X957Y886D02*
X1087D01*
X3643Y552D02*
X3773D01*
X3643Y312D02*
X3773D01*
X3647Y930D02*
X3777D01*
X3647Y690D02*
X3777D01*
X3681Y3894D02*
Y4148D01*
X3935Y3894D02*
Y4148D01*
X3681Y4148D02*
X4697D01*
X4951Y4148D02*
X5205D01*
X3681Y3894D02*
X4697D01*
X4189D02*
Y4148D01*
X4443Y3894D02*
Y4148D01*
X5666Y3894D02*
X5711Y3940D01*
X5459Y3894D02*
Y4148D01*
X4951Y3894D02*
Y4148D01*
X4697Y3894D02*
Y4148D01*
X4697D02*
X5713D01*
X4697Y3894D02*
X5713D01*
Y4148D01*
X5205Y3894D02*
Y4148D01*
Y3551D02*
Y3805D01*
X5713Y3551D02*
Y3805D01*
X4697Y3551D02*
X5713D01*
X4697Y3805D02*
X5713D01*
X4697Y3551D02*
Y3805D01*
X4951Y3551D02*
Y3805D01*
X5459Y3551D02*
Y3805D01*
X5666Y3551D02*
X5711Y3597D01*
X4443Y3551D02*
Y3805D01*
X4189Y3551D02*
Y3805D01*
X3681Y3551D02*
X4697D01*
X4951Y3805D02*
X5205D01*
X3681Y3805D02*
X4697D01*
X3935Y3551D02*
Y3805D01*
X3681Y3551D02*
Y3805D01*
D15*
X1171Y4599D02*
X1497D01*
X1171Y4817D02*
X1497D01*
X3397Y4340D02*
Y4460D01*
X3105D02*
X3176D01*
X3326D02*
X3397D01*
X3105Y4340D02*
Y4460D01*
X2312Y4340D02*
Y4460D01*
X2020D02*
X2091D01*
X2241D02*
X2312D01*
X2020Y4340D02*
Y4460D01*
X3397Y3478D02*
Y3598D01*
X3105D02*
X3176D01*
X3326D02*
X3397D01*
X3105Y3478D02*
Y3598D01*
X2312Y3478D02*
Y3598D01*
X2020D02*
X2091D01*
X2241D02*
X2312D01*
X2020Y3478D02*
Y3598D01*
X1045Y1952D02*
X1033Y1965D01*
X1007D01*
X995Y1952D01*
Y1901D01*
X1007Y1888D01*
X1033D01*
X1045Y1901D01*
X1109Y1888D02*
Y1965D01*
X1071Y1927D01*
X1121D01*
X3942Y1629D02*
X3929Y1642D01*
X3903D01*
X3891Y1629D01*
Y1579D01*
X3903Y1566D01*
X3929D01*
X3942Y1579D01*
X3967Y1566D02*
X3992D01*
X3980D01*
Y1642D01*
X3967Y1629D01*
X4069Y1566D02*
Y1642D01*
X4030Y1604D01*
X4081D01*
X3123Y2518D02*
X3085D01*
Y2461D01*
X3123D01*
X3085Y2489D02*
X3104D01*
X3142Y2461D02*
X3161D01*
X3151D01*
Y2518D01*
X3142D01*
X3218Y2461D02*
X3199D01*
X3189Y2470D01*
Y2489D01*
X3199Y2499D01*
X3218D01*
X3228Y2489D01*
Y2480D01*
X3189D01*
X3285Y2499D02*
X3256D01*
X3247Y2489D01*
Y2470D01*
X3256Y2461D01*
X3285D01*
X3313Y2508D02*
Y2499D01*
X3304D01*
X3323D01*
X3313D01*
Y2470D01*
X3323Y2461D01*
X3351Y2499D02*
Y2461D01*
Y2480D01*
X3361Y2489D01*
X3370Y2499D01*
X3380D01*
X3408Y2461D02*
X3427D01*
X3418D01*
Y2499D01*
X3408D01*
X3494D02*
X3466D01*
X3456Y2489D01*
Y2470D01*
X3466Y2461D01*
X3494D01*
X3570Y2518D02*
X3589D01*
X3580D01*
Y2461D01*
X3570D01*
X3589D01*
X3618D02*
Y2499D01*
X3646D01*
X3656Y2489D01*
Y2461D01*
X3685Y2508D02*
Y2499D01*
X3675D01*
X3694D01*
X3685D01*
Y2470D01*
X3694Y2461D01*
X3751D02*
X3732D01*
X3723Y2470D01*
Y2489D01*
X3732Y2499D01*
X3751D01*
X3761Y2489D01*
Y2480D01*
X3723D01*
X3780Y2499D02*
Y2461D01*
Y2480D01*
X3789Y2489D01*
X3799Y2499D01*
X3808D01*
X3846Y2461D02*
Y2508D01*
Y2489D01*
X3837D01*
X3856D01*
X3846D01*
Y2508D01*
X3856Y2518D01*
X3894Y2499D02*
X3913D01*
X3923Y2489D01*
Y2461D01*
X3894D01*
X3885Y2470D01*
X3894Y2480D01*
X3923D01*
X3980Y2499D02*
X3951D01*
X3942Y2489D01*
Y2470D01*
X3951Y2461D01*
X3980D01*
X4027D02*
X4008D01*
X3999Y2470D01*
Y2489D01*
X4008Y2499D01*
X4027D01*
X4037Y2489D01*
Y2480D01*
X3999D01*
X4113Y2518D02*
Y2461D01*
X4151D01*
X4170D02*
X4189D01*
X4180D01*
Y2499D01*
X4170D01*
X4227Y2461D02*
X4246D01*
X4256Y2470D01*
Y2489D01*
X4246Y2499D01*
X4227D01*
X4218Y2489D01*
Y2470D01*
X4227Y2461D01*
X3085Y2419D02*
Y2362D01*
X3113D01*
X3123Y2371D01*
Y2409D01*
X3113Y2419D01*
X3085D01*
X3170Y2362D02*
X3151D01*
X3142Y2371D01*
Y2390D01*
X3151Y2400D01*
X3170D01*
X3180Y2390D01*
Y2381D01*
X3142D01*
X3199Y2362D02*
X3228D01*
X3237Y2371D01*
X3228Y2381D01*
X3208D01*
X3199Y2390D01*
X3208Y2400D01*
X3237D01*
X3256Y2362D02*
X3275D01*
X3266D01*
Y2400D01*
X3256D01*
X3323Y2343D02*
X3332D01*
X3342Y2352D01*
Y2400D01*
X3313D01*
X3304Y2390D01*
Y2371D01*
X3313Y2362D01*
X3342D01*
X3361D02*
Y2400D01*
X3389D01*
X3399Y2390D01*
Y2362D01*
X3447D02*
X3427D01*
X3418Y2371D01*
Y2390D01*
X3427Y2400D01*
X3447D01*
X3456Y2390D01*
Y2381D01*
X3418D01*
X3475Y2400D02*
Y2362D01*
Y2381D01*
X3485Y2390D01*
X3494Y2400D01*
X3504D01*
X3532D02*
X3542D01*
Y2390D01*
X3532D01*
Y2400D01*
Y2371D02*
X3542D01*
Y2362D01*
X3532D01*
Y2371D01*
X3637Y2419D02*
Y2409D01*
X3656Y2390D01*
X3675Y2409D01*
Y2419D01*
X3656Y2390D02*
Y2362D01*
X3704Y2400D02*
X3723D01*
X3732Y2390D01*
Y2362D01*
X3704D01*
X3694Y2371D01*
X3704Y2381D01*
X3732D01*
X3751Y2362D02*
Y2400D01*
X3780D01*
X3789Y2390D01*
Y2362D01*
X3904Y2409D02*
X3894Y2419D01*
X3875D01*
X3865Y2409D01*
Y2371D01*
X3875Y2362D01*
X3894D01*
X3904Y2371D01*
Y2390D01*
X3885D01*
X3923Y2400D02*
Y2362D01*
Y2381D01*
X3932Y2390D01*
X3942Y2400D01*
X3951D01*
X3980Y2362D02*
X3999D01*
X3989D01*
Y2400D01*
X3980D01*
X4065Y2419D02*
Y2362D01*
X4037D01*
X4027Y2371D01*
Y2390D01*
X4037Y2400D01*
X4065D01*
X4085Y2362D02*
X4104D01*
X4094D01*
Y2419D01*
X4085D01*
X4132Y2362D02*
X4151D01*
X4142D01*
Y2400D01*
X4132D01*
X4180Y2362D02*
Y2400D01*
X4208D01*
X4218Y2390D01*
Y2362D01*
X4256Y2343D02*
X4265D01*
X4275Y2352D01*
Y2400D01*
X4246D01*
X4237Y2390D01*
Y2371D01*
X4246Y2362D01*
X4275D01*
X3085Y2301D02*
Y2244D01*
X3113D01*
X3123Y2253D01*
Y2291D01*
X3113Y2301D01*
X3085D01*
X3151Y2282D02*
X3170D01*
X3180Y2272D01*
Y2244D01*
X3151D01*
X3142Y2253D01*
X3151Y2263D01*
X3180D01*
X3208Y2291D02*
Y2282D01*
X3199D01*
X3218D01*
X3208D01*
Y2253D01*
X3218Y2244D01*
X3275D02*
X3256D01*
X3247Y2253D01*
Y2272D01*
X3256Y2282D01*
X3275D01*
X3285Y2272D01*
Y2263D01*
X3247D01*
X3304Y2282D02*
X3313D01*
Y2272D01*
X3304D01*
Y2282D01*
Y2253D02*
X3313D01*
Y2244D01*
X3304D01*
Y2253D01*
X3447Y2244D02*
X3408D01*
X3447Y2282D01*
Y2291D01*
X3437Y2301D01*
X3418D01*
X3408Y2291D01*
X3466D02*
X3475Y2301D01*
X3494D01*
X3504Y2291D01*
Y2282D01*
X3494Y2272D01*
X3504Y2263D01*
Y2253D01*
X3494Y2244D01*
X3475D01*
X3466Y2253D01*
Y2263D01*
X3475Y2272D01*
X3466Y2282D01*
Y2291D01*
X3475Y2272D02*
X3494D01*
X3523Y2244D02*
Y2253D01*
X3532D01*
Y2244D01*
X3523D01*
X3570Y2291D02*
X3580Y2301D01*
X3599D01*
X3608Y2291D01*
Y2253D01*
X3599Y2244D01*
X3580D01*
X3570Y2253D01*
Y2291D01*
X3666Y2301D02*
X3627D01*
Y2272D01*
X3646Y2282D01*
X3656D01*
X3666Y2272D01*
Y2253D01*
X3656Y2244D01*
X3637D01*
X3627Y2253D01*
X3685Y2244D02*
Y2253D01*
X3694D01*
Y2244D01*
X3685D01*
X3770D02*
X3732D01*
X3770Y2282D01*
Y2291D01*
X3761Y2301D01*
X3742D01*
X3732Y2291D01*
X3789D02*
X3799Y2301D01*
X3818D01*
X3827Y2291D01*
Y2253D01*
X3818Y2244D01*
X3799D01*
X3789Y2253D01*
Y2291D01*
X3885Y2244D02*
X3846D01*
X3885Y2282D01*
Y2291D01*
X3875Y2301D01*
X3856D01*
X3846Y2291D01*
X3932Y2244D02*
Y2301D01*
X3904Y2272D01*
X3942D01*
X3085Y2202D02*
Y2164D01*
X3104Y2145D01*
X3123Y2164D01*
Y2202D01*
X3170Y2145D02*
X3151D01*
X3142Y2154D01*
Y2173D01*
X3151Y2183D01*
X3170D01*
X3180Y2173D01*
Y2164D01*
X3142D01*
X3199Y2183D02*
Y2145D01*
Y2164D01*
X3208Y2173D01*
X3218Y2183D01*
X3228D01*
X3256Y2145D02*
X3285D01*
X3294Y2154D01*
X3285Y2164D01*
X3266D01*
X3256Y2173D01*
X3266Y2183D01*
X3294D01*
X3313Y2145D02*
X3332D01*
X3323D01*
Y2183D01*
X3313D01*
X3370Y2145D02*
X3389D01*
X3399Y2154D01*
Y2173D01*
X3389Y2183D01*
X3370D01*
X3361Y2173D01*
Y2154D01*
X3370Y2145D01*
X3418D02*
Y2183D01*
X3447D01*
X3456Y2173D01*
Y2145D01*
X3475Y2183D02*
X3485D01*
Y2173D01*
X3475D01*
Y2183D01*
Y2154D02*
X3485D01*
Y2145D01*
X3475D01*
Y2154D01*
X3580Y2145D02*
X3599D01*
X3589D01*
Y2202D01*
X3580Y2192D01*
X3627Y2145D02*
Y2154D01*
X3637D01*
Y2145D01*
X3627D01*
X3713D02*
X3675D01*
X3713Y2183D01*
Y2192D01*
X3704Y2202D01*
X3685D01*
X3675Y2192D01*
X7110Y996D02*
Y1072D01*
X7149D01*
X7161Y1059D01*
Y1034D01*
X7149Y1021D01*
X7110D01*
X7136D02*
X7161Y996D01*
X7237D02*
X7187D01*
X7237Y1047D01*
Y1059D01*
X7225Y1072D01*
X7199D01*
X7187Y1059D01*
X7263Y1072D02*
X7314D01*
Y1059D01*
X7263Y1009D01*
Y996D01*
X144D02*
Y1072D01*
X183D01*
X195Y1059D01*
Y1034D01*
X183Y1021D01*
X144D01*
X170D02*
X195Y996D01*
X271D02*
X221D01*
X271Y1047D01*
Y1059D01*
X259Y1072D01*
X233D01*
X221Y1059D01*
X348Y1072D02*
X322Y1059D01*
X297Y1034D01*
Y1009D01*
X309Y996D01*
X335D01*
X348Y1009D01*
Y1021D01*
X335Y1034D01*
X297D01*
X7138Y4736D02*
Y4812D01*
X7177D01*
X7189Y4799D01*
Y4774D01*
X7177Y4761D01*
X7138D01*
X7164D02*
X7189Y4736D01*
X7265D02*
X7215D01*
X7265Y4787D01*
Y4799D01*
X7253Y4812D01*
X7227D01*
X7215Y4799D01*
X7342Y4812D02*
X7291D01*
Y4774D01*
X7316Y4787D01*
X7329D01*
X7342Y4774D01*
Y4749D01*
X7329Y4736D01*
X7303D01*
X7291Y4749D01*
X166Y4652D02*
Y4728D01*
X205D01*
X217Y4715D01*
Y4690D01*
X205Y4677D01*
X166D01*
X192D02*
X217Y4652D01*
X293D02*
X243D01*
X293Y4703D01*
Y4715D01*
X281Y4728D01*
X255D01*
X243Y4715D01*
X357Y4652D02*
Y4728D01*
X319Y4690D01*
X370D01*
X7049Y142D02*
X6998D01*
Y66D01*
X7049D01*
X6998Y104D02*
X7024D01*
X7125Y129D02*
X7113Y142D01*
X7087D01*
X7075Y129D01*
Y79D01*
X7087Y66D01*
X7113D01*
X7125Y79D01*
X7189Y66D02*
Y142D01*
X7151Y104D01*
X7202D01*
X353Y158D02*
X302D01*
Y82D01*
X353D01*
X302Y120D02*
X328D01*
X429Y145D02*
X417Y158D01*
X391D01*
X379Y145D01*
Y95D01*
X391Y82D01*
X417D01*
X429Y95D01*
X455Y145D02*
X467Y158D01*
X493D01*
X506Y145D01*
Y133D01*
X493Y120D01*
X480D01*
X493D01*
X506Y107D01*
Y95D01*
X493Y82D01*
X467D01*
X455Y95D01*
X7063Y5728D02*
X7012D01*
Y5652D01*
X7063D01*
X7012Y5690D02*
X7038D01*
X7139Y5715D02*
X7127Y5728D01*
X7101D01*
X7089Y5715D01*
Y5665D01*
X7101Y5652D01*
X7127D01*
X7139Y5665D01*
X7216Y5652D02*
X7165D01*
X7216Y5703D01*
Y5715D01*
X7203Y5728D01*
X7177D01*
X7165Y5715D01*
X366Y5728D02*
X315D01*
Y5652D01*
X366D01*
X315Y5690D02*
X341D01*
X442Y5715D02*
X429Y5728D01*
X404D01*
X391Y5715D01*
Y5665D01*
X404Y5652D01*
X429D01*
X442Y5665D01*
X467Y5652D02*
X493D01*
X480D01*
Y5728D01*
X467Y5715D01*
X6857Y979D02*
X6845Y992D01*
X6819D01*
X6806Y979D01*
Y929D01*
X6819Y916D01*
X6845D01*
X6857Y929D01*
X6933Y916D02*
X6883D01*
X6933Y967D01*
Y979D01*
X6921Y992D01*
X6895D01*
X6883Y979D01*
X6959D02*
X6971Y992D01*
X6997D01*
X7010Y979D01*
Y967D01*
X6997Y954D01*
X7010Y941D01*
Y929D01*
X6997Y916D01*
X6971D01*
X6959Y929D01*
Y941D01*
X6971Y954D01*
X6959Y967D01*
Y979D01*
X6971Y954D02*
X6997D01*
X473Y1004D02*
X461Y1016D01*
X435D01*
X422Y1004D01*
Y953D01*
X435Y940D01*
X461D01*
X473Y953D01*
X549Y940D02*
X499D01*
X549Y991D01*
Y1004D01*
X537Y1016D01*
X511D01*
X499Y1004D01*
X575Y1016D02*
X626D01*
Y1004D01*
X575Y953D01*
Y940D01*
X6929Y4807D02*
X6917Y4820D01*
X6891D01*
X6878Y4807D01*
Y4757D01*
X6891Y4744D01*
X6917D01*
X6929Y4757D01*
X7005Y4744D02*
X6955D01*
X7005Y4795D01*
Y4807D01*
X6993Y4820D01*
X6967D01*
X6955Y4807D01*
X7082Y4820D02*
X7056Y4807D01*
X7031Y4782D01*
Y4757D01*
X7043Y4744D01*
X7069D01*
X7082Y4757D01*
Y4769D01*
X7069Y4782D01*
X7031D01*
X467Y4773D02*
X455Y4786D01*
X429D01*
X416Y4773D01*
Y4723D01*
X429Y4710D01*
X455D01*
X467Y4723D01*
X543Y4710D02*
X493D01*
X543Y4761D01*
Y4773D01*
X531Y4786D01*
X505D01*
X493Y4773D01*
X620Y4786D02*
X569D01*
Y4748D01*
X594Y4761D01*
X607D01*
X620Y4748D01*
Y4723D01*
X607Y4710D01*
X581D01*
X569Y4723D01*
X310Y2458D02*
X386D01*
Y2496D01*
X373Y2509D01*
X322D01*
X310Y2496D01*
Y2458D01*
X398Y2534D02*
Y2585D01*
X322Y2611D02*
X310Y2623D01*
Y2649D01*
X322Y2661D01*
X335D01*
X348Y2649D01*
Y2636D01*
Y2649D01*
X360Y2661D01*
X373D01*
X386Y2649D01*
Y2623D01*
X373Y2611D01*
X322Y2687D02*
X310Y2699D01*
Y2725D01*
X322Y2738D01*
X373D01*
X386Y2725D01*
Y2699D01*
X373Y2687D01*
X322D01*
X310Y2763D02*
X360D01*
X386Y2788D01*
X360Y2814D01*
X310D01*
X1391Y2996D02*
Y2920D01*
X1429D01*
X1441Y2933D01*
Y2983D01*
X1429Y2996D01*
X1391D01*
X1467Y2983D02*
X1479Y2996D01*
X1505D01*
X1517Y2983D01*
Y2971D01*
X1505Y2958D01*
X1492D01*
X1505D01*
X1517Y2945D01*
Y2933D01*
X1505Y2920D01*
X1479D01*
X1467Y2933D01*
X1391Y2760D02*
Y2684D01*
X1429D01*
X1441Y2697D01*
Y2747D01*
X1429Y2760D01*
X1391D01*
X1517Y2684D02*
X1467D01*
X1517Y2735D01*
Y2747D01*
X1505Y2760D01*
X1479D01*
X1467Y2747D01*
X1387Y2528D02*
Y2452D01*
X1425D01*
X1438Y2465D01*
Y2515D01*
X1425Y2528D01*
X1387D01*
X1463Y2452D02*
X1489D01*
X1476D01*
Y2528D01*
X1463Y2515D01*
X5921Y5138D02*
X5908Y5150D01*
X5883D01*
X5870Y5138D01*
Y5125D01*
X5883Y5112D01*
X5908D01*
X5921Y5100D01*
Y5087D01*
X5908Y5074D01*
X5883D01*
X5870Y5087D01*
X5997Y5138D02*
X5985Y5150D01*
X5959D01*
X5947Y5138D01*
Y5087D01*
X5959Y5074D01*
X5985D01*
X5997Y5087D01*
X6023Y5062D02*
X6073D01*
X6137Y5074D02*
Y5150D01*
X6099Y5112D01*
X6150D01*
X4669Y5138D02*
X4656Y5150D01*
X4631D01*
X4618Y5138D01*
Y5125D01*
X4631Y5112D01*
X4656D01*
X4669Y5100D01*
Y5087D01*
X4656Y5074D01*
X4631D01*
X4618Y5087D01*
X4745Y5138D02*
X4733Y5150D01*
X4707D01*
X4695Y5138D01*
Y5087D01*
X4707Y5074D01*
X4733D01*
X4745Y5087D01*
X4771Y5062D02*
X4821D01*
X4847Y5138D02*
X4860Y5150D01*
X4885D01*
X4898Y5138D01*
Y5125D01*
X4885Y5112D01*
X4872D01*
X4885D01*
X4898Y5100D01*
Y5087D01*
X4885Y5074D01*
X4860D01*
X4847Y5087D01*
X3419Y5150D02*
X3406Y5162D01*
X3381D01*
X3368Y5150D01*
Y5137D01*
X3381Y5124D01*
X3406D01*
X3419Y5112D01*
Y5099D01*
X3406Y5086D01*
X3381D01*
X3368Y5099D01*
X3495Y5150D02*
X3483Y5162D01*
X3457D01*
X3445Y5150D01*
Y5099D01*
X3457Y5086D01*
X3483D01*
X3495Y5099D01*
X3521Y5074D02*
X3571D01*
X3648Y5086D02*
X3597D01*
X3648Y5137D01*
Y5150D01*
X3635Y5162D01*
X3610D01*
X3597Y5150D01*
X2178Y5154D02*
X2165Y5166D01*
X2140D01*
X2127Y5154D01*
Y5141D01*
X2140Y5128D01*
X2165D01*
X2178Y5116D01*
Y5103D01*
X2165Y5090D01*
X2140D01*
X2127Y5103D01*
X2254Y5154D02*
X2241Y5166D01*
X2216D01*
X2203Y5154D01*
Y5103D01*
X2216Y5090D01*
X2241D01*
X2254Y5103D01*
X2279Y5077D02*
X2330D01*
X2356Y5090D02*
X2381D01*
X2368D01*
Y5166D01*
X2356Y5154D01*
X7226Y1127D02*
X7276D01*
X7302Y1152D01*
X7276Y1178D01*
X7226D01*
X7314Y1203D02*
Y1254D01*
X7302Y1279D02*
X7226D01*
Y1317D01*
X7238Y1330D01*
X7264D01*
X7276Y1317D01*
Y1279D01*
Y1305D02*
X7302Y1330D01*
X7314Y1355D02*
Y1406D01*
X7302Y1431D02*
Y1457D01*
Y1444D01*
X7226D01*
X7238Y1431D01*
X7302Y1546D02*
Y1495D01*
X7251Y1546D01*
X7238D01*
X7226Y1533D01*
Y1508D01*
X7238Y1495D01*
X7226Y1571D02*
X7276D01*
X7302Y1597D01*
X7276Y1622D01*
X7226D01*
X7314Y1647D02*
Y1698D01*
X7302Y1736D02*
Y1762D01*
X7289Y1774D01*
X7264D01*
X7251Y1762D01*
Y1736D01*
X7264Y1723D01*
X7289D01*
X7302Y1736D01*
X7251Y1800D02*
X7289D01*
X7302Y1812D01*
Y1850D01*
X7251D01*
X7238Y1889D02*
X7251D01*
Y1876D01*
Y1901D01*
Y1889D01*
X7289D01*
X7302Y1901D01*
X1409Y270D02*
Y220D01*
X1434Y194D01*
X1459Y220D01*
Y270D01*
X1485Y182D02*
X1535D01*
X1561Y194D02*
Y270D01*
X1599D01*
X1612Y258D01*
Y232D01*
X1599Y220D01*
X1561D01*
X1586D02*
X1612Y194D01*
X1637Y182D02*
X1688D01*
X1764Y270D02*
X1713D01*
Y232D01*
X1739Y245D01*
X1751D01*
X1764Y232D01*
Y207D01*
X1751Y194D01*
X1726D01*
X1713Y207D01*
X1789Y270D02*
Y220D01*
X1815Y194D01*
X1840Y220D01*
Y270D01*
X1866Y182D02*
X1916D01*
X1954Y194D02*
X1980D01*
X1993Y207D01*
Y232D01*
X1980Y245D01*
X1954D01*
X1942Y232D01*
Y207D01*
X1954Y194D01*
X2018Y245D02*
Y207D01*
X2031Y194D01*
X2069D01*
Y245D01*
X2107Y258D02*
Y245D01*
X2094D01*
X2119D01*
X2107D01*
Y207D01*
X2119Y194D01*
X3441Y242D02*
Y192D01*
X3466Y166D01*
X3491Y192D01*
Y242D01*
X3517Y154D02*
X3568D01*
X3593Y166D02*
Y242D01*
X3631D01*
X3644Y230D01*
Y204D01*
X3631Y192D01*
X3593D01*
X3618D02*
X3644Y166D01*
X3669Y154D02*
X3720D01*
X3745Y230D02*
X3758Y242D01*
X3783D01*
X3796Y230D01*
Y217D01*
X3783Y204D01*
X3771D01*
X3783D01*
X3796Y192D01*
Y179D01*
X3783Y166D01*
X3758D01*
X3745Y179D01*
X3822Y166D02*
Y179D01*
X3834D01*
Y166D01*
X3822D01*
X3885Y230D02*
X3898Y242D01*
X3923D01*
X3936Y230D01*
Y217D01*
X3923Y204D01*
X3910D01*
X3923D01*
X3936Y192D01*
Y179D01*
X3923Y166D01*
X3898D01*
X3885Y179D01*
X3961Y242D02*
Y192D01*
X3987Y166D01*
X4012Y192D01*
Y242D01*
X4037Y154D02*
X4088D01*
X4126Y166D02*
X4152D01*
X4164Y179D01*
Y204D01*
X4152Y217D01*
X4126D01*
X4114Y204D01*
Y179D01*
X4126Y166D01*
X4190Y217D02*
Y179D01*
X4202Y166D01*
X4241D01*
Y217D01*
X4279Y230D02*
Y217D01*
X4266D01*
X4291D01*
X4279D01*
Y179D01*
X4291Y166D01*
X1810Y4291D02*
Y4342D01*
Y4317D01*
X1886D01*
Y4405D02*
X1810D01*
X1848Y4367D01*
Y4418D01*
X1816Y3451D02*
Y3502D01*
Y3477D01*
X1892D01*
X1829Y3527D02*
X1816Y3540D01*
Y3565D01*
X1829Y3578D01*
X1842D01*
X1854Y3565D01*
Y3553D01*
Y3565D01*
X1867Y3578D01*
X1880D01*
X1892Y3565D01*
Y3540D01*
X1880Y3527D01*
X2883Y4320D02*
Y4371D01*
Y4345D01*
X2959D01*
Y4447D02*
Y4396D01*
X2908Y4447D01*
X2896D01*
X2883Y4434D01*
Y4409D01*
X2896Y4396D01*
X2908Y3467D02*
Y3518D01*
Y3493D01*
X2985D01*
Y3543D02*
Y3569D01*
Y3556D01*
X2908D01*
X2921Y3543D01*
X1237Y4518D02*
X1186D01*
Y4480D01*
X1212D01*
X1186D01*
Y4442D01*
X1263Y4493D02*
Y4455D01*
X1275Y4442D01*
X1313D01*
Y4493D01*
X1339Y4442D02*
X1377D01*
X1389Y4455D01*
X1377Y4467D01*
X1351D01*
X1339Y4480D01*
X1351Y4493D01*
X1389D01*
X1453Y4442D02*
X1428D01*
X1415Y4455D01*
Y4480D01*
X1428Y4493D01*
X1453D01*
X1466Y4480D01*
Y4467D01*
X1415D01*
X2216Y3774D02*
Y3850D01*
X2255D01*
X2267Y3837D01*
Y3812D01*
X2255Y3799D01*
X2216D01*
X2242D02*
X2267Y3774D01*
X2343D02*
X2293D01*
X2343Y3825D01*
Y3837D01*
X2331Y3850D01*
X2305D01*
X2293Y3837D01*
X2369D02*
X2381Y3850D01*
X2407D01*
X2420Y3837D01*
Y3825D01*
X2407Y3812D01*
X2394D01*
X2407D01*
X2420Y3799D01*
Y3787D01*
X2407Y3774D01*
X2381D01*
X2369Y3787D01*
X1780Y3774D02*
Y3850D01*
X1819D01*
X1831Y3837D01*
Y3812D01*
X1819Y3799D01*
X1780D01*
X1806D02*
X1831Y3774D01*
X1907D02*
X1857D01*
X1907Y3825D01*
Y3837D01*
X1895Y3850D01*
X1869D01*
X1857Y3837D01*
X1984Y3774D02*
X1933D01*
X1984Y3825D01*
Y3837D01*
X1971Y3850D01*
X1945D01*
X1933Y3837D01*
X2225Y2932D02*
Y3008D01*
X2263D01*
X2276Y2995D01*
Y2970D01*
X2263Y2957D01*
X2225D01*
X2251D02*
X2276Y2932D01*
X2352D02*
X2301D01*
X2352Y2983D01*
Y2995D01*
X2339Y3008D01*
X2314D01*
X2301Y2995D01*
X2377Y2932D02*
X2403D01*
X2390D01*
Y3008D01*
X2377Y2995D01*
X1772Y2936D02*
Y3012D01*
X1811D01*
X1823Y2999D01*
Y2974D01*
X1811Y2961D01*
X1772D01*
X1798D02*
X1823Y2936D01*
X1899D02*
X1849D01*
X1899Y2987D01*
Y2999D01*
X1887Y3012D01*
X1861D01*
X1849Y2999D01*
X1925D02*
X1937Y3012D01*
X1963D01*
X1976Y2999D01*
Y2949D01*
X1963Y2936D01*
X1937D01*
X1925Y2949D01*
Y2999D01*
X3313Y3772D02*
Y3848D01*
X3351D01*
X3364Y3835D01*
Y3810D01*
X3351Y3797D01*
X3313D01*
X3338D02*
X3364Y3772D01*
X3389D02*
X3414D01*
X3402D01*
Y3848D01*
X3389Y3835D01*
X3452Y3785D02*
X3465Y3772D01*
X3491D01*
X3503Y3785D01*
Y3835D01*
X3491Y3848D01*
X3465D01*
X3452Y3835D01*
Y3823D01*
X3465Y3810D01*
X3503D01*
X2863Y3770D02*
Y3846D01*
X2901D01*
X2914Y3833D01*
Y3808D01*
X2901Y3795D01*
X2863D01*
X2888D02*
X2914Y3770D01*
X2939D02*
X2964D01*
X2952D01*
Y3846D01*
X2939Y3833D01*
X3002D02*
X3015Y3846D01*
X3041D01*
X3053Y3833D01*
Y3821D01*
X3041Y3808D01*
X3053Y3795D01*
Y3783D01*
X3041Y3770D01*
X3015D01*
X3002Y3783D01*
Y3795D01*
X3015Y3808D01*
X3002Y3821D01*
Y3833D01*
X3015Y3808D02*
X3041D01*
X3313Y2920D02*
Y2996D01*
X3351D01*
X3364Y2983D01*
Y2958D01*
X3351Y2945D01*
X3313D01*
X3338D02*
X3364Y2920D01*
X3389D02*
X3414D01*
X3402D01*
Y2996D01*
X3389Y2983D01*
X3452Y2996D02*
X3503D01*
Y2983D01*
X3452Y2933D01*
Y2920D01*
X2869Y2918D02*
Y2994D01*
X2907D01*
X2920Y2981D01*
Y2956D01*
X2907Y2943D01*
X2869D01*
X2894D02*
X2920Y2918D01*
X2945D02*
X2970D01*
X2958D01*
Y2994D01*
X2945Y2981D01*
X3059Y2994D02*
X3034Y2981D01*
X3008Y2956D01*
Y2931D01*
X3021Y2918D01*
X3047D01*
X3059Y2931D01*
Y2943D01*
X3047Y2956D01*
X3008D01*
X6042Y281D02*
X5966D01*
Y319D01*
X5979Y332D01*
X6004D01*
X6017Y319D01*
Y281D01*
Y306D02*
X6042Y332D01*
Y357D02*
Y382D01*
Y370D01*
X5966D01*
X5979Y357D01*
X5966Y471D02*
Y420D01*
X6004D01*
X5991Y446D01*
Y459D01*
X6004Y471D01*
X6029D01*
X6042Y459D01*
Y433D01*
X6029Y420D01*
X5810Y269D02*
X5734D01*
Y307D01*
X5747Y320D01*
X5772D01*
X5785Y307D01*
Y269D01*
Y294D02*
X5810Y320D01*
Y345D02*
Y370D01*
Y358D01*
X5734D01*
X5747Y345D01*
X5810Y447D02*
X5734D01*
X5772Y408D01*
Y459D01*
X5570Y269D02*
X5494D01*
Y307D01*
X5507Y320D01*
X5532D01*
X5545Y307D01*
Y269D01*
Y294D02*
X5570Y320D01*
Y345D02*
Y370D01*
Y358D01*
X5494D01*
X5507Y345D01*
Y408D02*
X5494Y421D01*
Y447D01*
X5507Y459D01*
X5519D01*
X5532Y447D01*
Y434D01*
Y447D01*
X5545Y459D01*
X5557D01*
X5570Y447D01*
Y421D01*
X5557Y408D01*
X6362Y499D02*
X6438D01*
Y461D01*
X6425Y448D01*
X6400D01*
X6387Y461D01*
Y499D01*
Y474D02*
X6362Y448D01*
Y423D02*
Y398D01*
Y410D01*
X6438D01*
X6425Y423D01*
X6362Y309D02*
Y360D01*
X6413Y309D01*
X6425D01*
X6438Y321D01*
Y347D01*
X6425Y360D01*
X6606Y507D02*
X6682D01*
Y468D01*
X6669Y456D01*
X6644D01*
X6631Y468D01*
Y507D01*
Y481D02*
X6606Y456D01*
Y430D02*
Y405D01*
Y418D01*
X6682D01*
X6669Y430D01*
X6606Y367D02*
Y341D01*
Y354D01*
X6682D01*
X6669Y367D01*
X2895Y1430D02*
Y1506D01*
X2933D01*
X2946Y1493D01*
Y1468D01*
X2933Y1455D01*
X2895D01*
X2920D02*
X2946Y1430D01*
X2971D02*
X2996D01*
X2984D01*
Y1506D01*
X2971Y1493D01*
X3034D02*
X3047Y1506D01*
X3073D01*
X3085Y1493D01*
Y1443D01*
X3073Y1430D01*
X3047D01*
X3034Y1443D01*
Y1493D01*
X2941Y1654D02*
Y1730D01*
X2979D01*
X2991Y1717D01*
Y1692D01*
X2979Y1679D01*
X2941D01*
X2966D02*
X2991Y1654D01*
X3017Y1667D02*
X3029Y1654D01*
X3055D01*
X3067Y1667D01*
Y1717D01*
X3055Y1730D01*
X3029D01*
X3017Y1717D01*
Y1705D01*
X3029Y1692D01*
X3067D01*
X2951Y1860D02*
Y1936D01*
X2989D01*
X3001Y1923D01*
Y1898D01*
X2989Y1885D01*
X2951D01*
X2976D02*
X3001Y1860D01*
X3027Y1923D02*
X3039Y1936D01*
X3065D01*
X3077Y1923D01*
Y1911D01*
X3065Y1898D01*
X3077Y1885D01*
Y1873D01*
X3065Y1860D01*
X3039D01*
X3027Y1873D01*
Y1885D01*
X3039Y1898D01*
X3027Y1911D01*
Y1923D01*
X3039Y1898D02*
X3065D01*
X2849Y962D02*
Y1038D01*
X2887D01*
X2899Y1025D01*
Y1000D01*
X2887Y987D01*
X2849D01*
X2874D02*
X2899Y962D01*
X2925Y1038D02*
X2975D01*
Y1025D01*
X2925Y975D01*
Y962D01*
X2849Y732D02*
Y808D01*
X2887D01*
X2899Y795D01*
Y770D01*
X2887Y757D01*
X2849D01*
X2874D02*
X2899Y732D01*
X2975Y808D02*
X2950Y795D01*
X2925Y770D01*
Y745D01*
X2937Y732D01*
X2963D01*
X2975Y745D01*
Y757D01*
X2963Y770D01*
X2925D01*
X83Y1604D02*
Y1680D01*
X121D01*
X133Y1667D01*
Y1642D01*
X121Y1629D01*
X83D01*
X108D02*
X133Y1604D01*
X209Y1680D02*
X159D01*
Y1642D01*
X184Y1655D01*
X197D01*
X209Y1642D01*
Y1617D01*
X197Y1604D01*
X171D01*
X159Y1617D01*
X73Y1829D02*
Y1905D01*
X111D01*
X123Y1892D01*
Y1867D01*
X111Y1854D01*
X73D01*
X98D02*
X123Y1829D01*
X187D02*
Y1905D01*
X149Y1867D01*
X199D01*
X68Y2062D02*
Y2138D01*
X106D01*
X119Y2125D01*
Y2100D01*
X106Y2087D01*
X68D01*
X94D02*
X119Y2062D01*
X144Y2125D02*
X157Y2138D01*
X182D01*
X195Y2125D01*
Y2113D01*
X182Y2100D01*
X170D01*
X182D01*
X195Y2087D01*
Y2075D01*
X182Y2062D01*
X157D01*
X144Y2075D01*
X89Y1338D02*
Y1414D01*
X127D01*
X139Y1401D01*
Y1376D01*
X127Y1363D01*
X89D01*
X114D02*
X139Y1338D01*
X215D02*
X165D01*
X215Y1389D01*
Y1401D01*
X203Y1414D01*
X177D01*
X165Y1401D01*
X92Y1119D02*
Y1195D01*
X130D01*
X142Y1183D01*
Y1157D01*
X130Y1145D01*
X92D01*
X117D02*
X142Y1119D01*
X168D02*
X193D01*
X181D01*
Y1195D01*
X168Y1183D01*
X6317Y2958D02*
Y2882D01*
X6367D01*
X6393Y2945D02*
X6405Y2958D01*
X6431D01*
X6443Y2945D01*
Y2933D01*
X6431Y2920D01*
X6418D01*
X6431D01*
X6443Y2907D01*
Y2895D01*
X6431Y2882D01*
X6405D01*
X6393Y2895D01*
X5070Y546D02*
Y470D01*
X5120D01*
X5197D02*
X5146D01*
X5197Y520D01*
Y533D01*
X5184Y546D01*
X5158D01*
X5146Y533D01*
X2374Y593D02*
Y517D01*
X2425D01*
X2450D02*
X2476D01*
X2463D01*
Y593D01*
X2450Y580D01*
X5801Y4060D02*
Y3984D01*
Y4022D01*
X5851D01*
Y4060D01*
Y3984D01*
X5927D02*
X5877D01*
X5927Y4035D01*
Y4047D01*
X5915Y4060D01*
X5889D01*
X5877Y4047D01*
X5814Y3716D02*
Y3640D01*
Y3678D01*
X5865D01*
Y3716D01*
Y3640D01*
X5891D02*
X5916D01*
X5903D01*
Y3716D01*
X5891Y3704D01*
X7357Y2209D02*
X7344Y2197D01*
Y2171D01*
X7357Y2158D01*
X7407D01*
X7420Y2171D01*
Y2197D01*
X7407Y2209D01*
X7420Y2285D02*
Y2235D01*
X7369Y2285D01*
X7357D01*
X7344Y2273D01*
Y2247D01*
X7357Y2235D01*
X7420Y2349D02*
X7344D01*
X7382Y2311D01*
Y2362D01*
X6613Y2053D02*
X6600Y2041D01*
Y2015D01*
X6613Y2002D01*
X6663D01*
X6676Y2015D01*
Y2041D01*
X6663Y2053D01*
X6676Y2129D02*
Y2079D01*
X6625Y2129D01*
X6613D01*
X6600Y2117D01*
Y2091D01*
X6613Y2079D01*
Y2155D02*
X6600Y2167D01*
Y2193D01*
X6613Y2206D01*
X6625D01*
X6638Y2193D01*
Y2180D01*
Y2193D01*
X6651Y2206D01*
X6663D01*
X6676Y2193D01*
Y2167D01*
X6663Y2155D01*
X5839Y1438D02*
X5826Y1426D01*
Y1400D01*
X5839Y1388D01*
X5889D01*
X5902Y1400D01*
Y1426D01*
X5889Y1438D01*
X5902Y1515D02*
Y1464D01*
X5851Y1515D01*
X5839D01*
X5826Y1502D01*
Y1476D01*
X5839Y1464D01*
X5902Y1591D02*
Y1540D01*
X5851Y1591D01*
X5839D01*
X5826Y1578D01*
Y1553D01*
X5839Y1540D01*
X5693Y1384D02*
X5680Y1371D01*
Y1346D01*
X5693Y1333D01*
X5743D01*
X5756Y1346D01*
Y1371D01*
X5743Y1384D01*
X5756Y1460D02*
Y1409D01*
X5705Y1460D01*
X5693D01*
X5680Y1447D01*
Y1422D01*
X5693Y1409D01*
X5756Y1485D02*
Y1511D01*
Y1498D01*
X5680D01*
X5693Y1485D01*
X5511Y1353D02*
X5498Y1341D01*
Y1315D01*
X5511Y1302D01*
X5561D01*
X5574Y1315D01*
Y1341D01*
X5561Y1353D01*
X5574Y1429D02*
Y1379D01*
X5523Y1429D01*
X5511D01*
X5498Y1417D01*
Y1391D01*
X5511Y1379D01*
Y1455D02*
X5498Y1467D01*
Y1493D01*
X5511Y1506D01*
X5561D01*
X5574Y1493D01*
Y1467D01*
X5561Y1455D01*
X5511D01*
X6395Y1524D02*
X6382Y1511D01*
Y1486D01*
X6395Y1473D01*
X6445D01*
X6458Y1486D01*
Y1511D01*
X6445Y1524D01*
X6458Y1549D02*
Y1575D01*
Y1562D01*
X6382D01*
X6395Y1549D01*
X6445Y1613D02*
X6458Y1625D01*
Y1651D01*
X6445Y1663D01*
X6395D01*
X6382Y1651D01*
Y1625D01*
X6395Y1613D01*
X6407D01*
X6420Y1625D01*
Y1663D01*
X6641Y1562D02*
X6628Y1549D01*
Y1523D01*
X6641Y1511D01*
X6691D01*
X6704Y1523D01*
Y1549D01*
X6691Y1562D01*
X6704Y1587D02*
Y1612D01*
Y1600D01*
X6628D01*
X6641Y1587D01*
Y1650D02*
X6628Y1663D01*
Y1689D01*
X6641Y1701D01*
X6653D01*
X6666Y1689D01*
X6679Y1701D01*
X6691D01*
X6704Y1689D01*
Y1663D01*
X6691Y1650D01*
X6679D01*
X6666Y1663D01*
X6653Y1650D01*
X6641D01*
X6666Y1663D02*
Y1689D01*
X7011Y1573D02*
X6998Y1560D01*
Y1535D01*
X7011Y1522D01*
X7061D01*
X7074Y1535D01*
Y1560D01*
X7061Y1573D01*
X7074Y1598D02*
Y1624D01*
Y1611D01*
X6998D01*
X7011Y1598D01*
X6998Y1662D02*
Y1713D01*
X7011D01*
X7061Y1662D01*
X7074D01*
X4483Y1956D02*
X4470Y1943D01*
Y1917D01*
X4483Y1905D01*
X4533D01*
X4546Y1917D01*
Y1943D01*
X4533Y1956D01*
X4546Y1981D02*
Y2006D01*
Y1994D01*
X4470D01*
X4483Y1981D01*
X4470Y2095D02*
X4483Y2070D01*
X4508Y2044D01*
X4533D01*
X4546Y2057D01*
Y2083D01*
X4533Y2095D01*
X4521D01*
X4508Y2083D01*
Y2044D01*
X4736Y2425D02*
X4723Y2438D01*
X4697D01*
X4685Y2425D01*
Y2375D01*
X4697Y2362D01*
X4723D01*
X4736Y2375D01*
X4761Y2362D02*
X4786D01*
X4774D01*
Y2438D01*
X4761Y2425D01*
X4875Y2438D02*
X4824D01*
Y2400D01*
X4850Y2413D01*
X4863D01*
X4875Y2400D01*
Y2375D01*
X4863Y2362D01*
X4837D01*
X4824Y2375D01*
X3906Y1803D02*
X3893Y1816D01*
X3867D01*
X3855Y1803D01*
Y1753D01*
X3867Y1740D01*
X3893D01*
X3906Y1753D01*
X3931Y1740D02*
X3956D01*
X3944D01*
Y1816D01*
X3931Y1803D01*
X3994D02*
X4007Y1816D01*
X4033D01*
X4045Y1803D01*
Y1791D01*
X4033Y1778D01*
X4020D01*
X4033D01*
X4045Y1765D01*
Y1753D01*
X4033Y1740D01*
X4007D01*
X3994Y1753D01*
X3890Y1955D02*
X3877Y1968D01*
X3851D01*
X3839Y1955D01*
Y1905D01*
X3851Y1892D01*
X3877D01*
X3890Y1905D01*
X3915Y1892D02*
X3940D01*
X3928D01*
Y1968D01*
X3915Y1955D01*
X4029Y1892D02*
X3978D01*
X4029Y1943D01*
Y1955D01*
X4017Y1968D01*
X3991D01*
X3978Y1955D01*
X3962Y1106D02*
X3949Y1118D01*
X3924D01*
X3911Y1106D01*
Y1055D01*
X3924Y1042D01*
X3949D01*
X3962Y1055D01*
X3987Y1042D02*
X4012D01*
X4000D01*
Y1118D01*
X3987Y1106D01*
X4051Y1042D02*
X4076D01*
X4063D01*
Y1118D01*
X4051Y1106D01*
X3995Y827D02*
X3983Y840D01*
X3957D01*
X3944Y827D01*
Y777D01*
X3957Y764D01*
X3983D01*
X3995Y777D01*
X4021Y764D02*
X4046D01*
X4033D01*
Y840D01*
X4021Y827D01*
X4084D02*
X4097Y840D01*
X4122D01*
X4135Y827D01*
Y777D01*
X4122Y764D01*
X4097D01*
X4084Y777D01*
Y827D01*
X4005Y445D02*
X3993Y458D01*
X3967D01*
X3955Y445D01*
Y395D01*
X3967Y382D01*
X3993D01*
X4005Y395D01*
X4031D02*
X4043Y382D01*
X4069D01*
X4081Y395D01*
Y445D01*
X4069Y458D01*
X4043D01*
X4031Y445D01*
Y433D01*
X4043Y420D01*
X4081D01*
X1719Y1971D02*
X1706Y1959D01*
Y1933D01*
X1719Y1921D01*
X1769D01*
X1782Y1933D01*
Y1959D01*
X1769Y1971D01*
X1719Y1997D02*
X1706Y2009D01*
Y2035D01*
X1719Y2047D01*
X1731D01*
X1744Y2035D01*
X1757Y2047D01*
X1769D01*
X1782Y2035D01*
Y2009D01*
X1769Y1997D01*
X1757D01*
X1744Y2009D01*
X1731Y1997D01*
X1719D01*
X1744Y2009D02*
Y2035D01*
X2079Y2425D02*
X2067Y2438D01*
X2041D01*
X2029Y2425D01*
Y2375D01*
X2041Y2362D01*
X2067D01*
X2079Y2375D01*
X2105Y2438D02*
X2155D01*
Y2425D01*
X2105Y2375D01*
Y2362D01*
X1157Y1676D02*
X1145Y1689D01*
X1119D01*
X1107Y1676D01*
Y1626D01*
X1119Y1613D01*
X1145D01*
X1157Y1626D01*
X1233Y1689D02*
X1208Y1676D01*
X1183Y1651D01*
Y1626D01*
X1195Y1613D01*
X1221D01*
X1233Y1626D01*
Y1638D01*
X1221Y1651D01*
X1183D01*
X1041Y1809D02*
X1029Y1822D01*
X1003D01*
X991Y1809D01*
Y1759D01*
X1003Y1746D01*
X1029D01*
X1041Y1759D01*
X1117Y1822D02*
X1067D01*
Y1784D01*
X1092Y1797D01*
X1105D01*
X1117Y1784D01*
Y1759D01*
X1105Y1746D01*
X1079D01*
X1067Y1759D01*
X1181Y1071D02*
X1169Y1084D01*
X1143D01*
X1131Y1071D01*
Y1021D01*
X1143Y1008D01*
X1169D01*
X1181Y1021D01*
X1207Y1071D02*
X1219Y1084D01*
X1245D01*
X1257Y1071D01*
Y1059D01*
X1245Y1046D01*
X1232D01*
X1245D01*
X1257Y1033D01*
Y1021D01*
X1245Y1008D01*
X1219D01*
X1207Y1021D01*
X1317Y787D02*
X1305Y800D01*
X1279D01*
X1267Y787D01*
Y737D01*
X1279Y724D01*
X1305D01*
X1317Y737D01*
X1393Y724D02*
X1343D01*
X1393Y775D01*
Y787D01*
X1381Y800D01*
X1355D01*
X1343Y787D01*
X1342Y453D02*
X1329Y466D01*
X1304D01*
X1291Y453D01*
Y403D01*
X1304Y390D01*
X1329D01*
X1342Y403D01*
X1367Y390D02*
X1393D01*
X1380D01*
Y466D01*
X1367Y453D01*
D16*
X416Y1241D02*
X504D01*
X416Y1101D02*
X504D01*
X7131Y776D02*
Y864D01*
X7271Y776D02*
Y864D01*
X3418Y3225D02*
X3506D01*
X3418Y3085D02*
X3506D01*
X2956Y3087D02*
X3044D01*
X2956Y3227D02*
X3044D01*
X2956Y4069D02*
X3044D01*
X2956Y3929D02*
X3044D01*
X1872Y3087D02*
X1960D01*
X1872Y3227D02*
X1960D01*
X2314Y3225D02*
X2402D01*
X2314Y3085D02*
X2402D01*
X3398Y3932D02*
X3486D01*
X3398Y4072D02*
X3486D01*
X2314Y3932D02*
X2402D01*
X2314Y4072D02*
X2402D01*
X1872Y4069D02*
X1960D01*
X1872Y3929D02*
X1960D01*
X6368Y622D02*
Y710D01*
X6507Y622D02*
Y710D01*
X6746Y622D02*
Y710D01*
X6606Y622D02*
Y710D01*
X5455Y617D02*
Y706D01*
X5595Y617D02*
Y706D01*
X5833Y617D02*
Y706D01*
X5694Y617D02*
Y706D01*
X5937Y617D02*
Y706D01*
X6077Y617D02*
Y706D01*
X382Y1790D02*
X470D01*
X382Y1930D02*
X470D01*
X416Y1449D02*
X504D01*
X416Y1309D02*
X504D01*
X380Y1697D02*
X468D01*
X380Y1557D02*
X468D01*
X417Y2169D02*
X506D01*
X417Y2029D02*
X506D01*
X3112Y740D02*
X3201D01*
X3112Y880D02*
X3201D01*
X3112Y1089D02*
X3200D01*
X3112Y949D02*
X3200D01*
X3206Y1551D02*
X3295D01*
X3206Y1411D02*
X3295D01*
X3206Y1655D02*
X3295D01*
X3206Y1794D02*
X3295D01*
X3206Y2033D02*
X3295D01*
X3206Y1893D02*
X3295D01*
X171Y762D02*
Y850D01*
X311Y762D02*
Y850D01*
X7339Y4932D02*
Y5020D01*
X7199Y4932D02*
Y5020D01*
X307Y4862D02*
Y4950D01*
X167Y4862D02*
Y4950D01*
M02*
