G04*
G04 #@! TF.GenerationSoftware,Altium Limited,Altium Designer,22.8.2 (66)*
G04*
G04 Layer_Color=8388736*
%FSLAX42Y42*%
%MOMM*%
G71*
G04*
G04 #@! TF.SameCoordinates,0533CB18-9495-43A3-8B9C-2A5BF5C5928D*
G04*
G04*
G04 #@! TF.FilePolarity,Negative*
G04*
G01*
G75*
%ADD31R,0.71X0.23*%
%ADD34R,0.23X0.71*%
%ADD35R,1.70X2.35*%
%ADD36R,1.50X1.20*%
%ADD37R,0.91X1.12*%
G04:AMPARAMS|DCode=38|XSize=1.7mm|YSize=1.9mm|CornerRadius=0.18mm|HoleSize=0mm|Usage=FLASHONLY|Rotation=90.000|XOffset=0mm|YOffset=0mm|HoleType=Round|Shape=RoundedRectangle|*
%AMROUNDEDRECTD38*
21,1,1.70,1.55,0,0,90.0*
21,1,1.35,1.90,0,0,90.0*
1,1,0.35,0.78,0.68*
1,1,0.35,0.78,-0.68*
1,1,0.35,-0.78,-0.68*
1,1,0.35,-0.78,0.68*
%
%ADD38ROUNDEDRECTD38*%
%ADD39R,1.78X1.02*%
%ADD40R,1.12X0.91*%
%ADD41R,1.02X1.78*%
G04:AMPARAMS|DCode=42|XSize=1.3mm|YSize=1.45mm|CornerRadius=0.16mm|HoleSize=0mm|Usage=FLASHONLY|Rotation=270.000|XOffset=0mm|YOffset=0mm|HoleType=Round|Shape=RoundedRectangle|*
%AMROUNDEDRECTD42*
21,1,1.30,1.14,0,0,270.0*
21,1,0.99,1.45,0,0,270.0*
1,1,0.31,-0.57,-0.50*
1,1,0.31,-0.57,0.50*
1,1,0.31,0.57,0.50*
1,1,0.31,0.57,-0.50*
%
%ADD42ROUNDEDRECTD42*%
G04:AMPARAMS|DCode=43|XSize=1.4mm|YSize=2.02mm|CornerRadius=0.25mm|HoleSize=0mm|Usage=FLASHONLY|Rotation=180.000|XOffset=0mm|YOffset=0mm|HoleType=Round|Shape=RoundedRectangle|*
%AMROUNDEDRECTD43*
21,1,1.40,1.52,0,0,180.0*
21,1,0.90,2.02,0,0,180.0*
1,1,0.50,-0.45,0.76*
1,1,0.50,0.45,0.76*
1,1,0.50,0.45,-0.76*
1,1,0.50,-0.45,-0.76*
%
%ADD43ROUNDEDRECTD43*%
%ADD44R,3.70X3.70*%
%ADD45R,1.20X2.90*%
%ADD46R,1.05X1.05*%
%ADD47R,3.70X3.70*%
G04:AMPARAMS|DCode=48|XSize=2.9mm|YSize=1.3mm|CornerRadius=0.16mm|HoleSize=0mm|Usage=FLASHONLY|Rotation=180.000|XOffset=0mm|YOffset=0mm|HoleType=Round|Shape=RoundedRectangle|*
%AMROUNDEDRECTD48*
21,1,2.90,0.99,0,0,180.0*
21,1,2.59,1.30,0,0,180.0*
1,1,0.31,-1.30,0.50*
1,1,0.31,1.30,0.50*
1,1,0.31,1.30,-0.50*
1,1,0.31,-1.30,-0.50*
%
%ADD48ROUNDEDRECTD48*%
%ADD49R,2.90X1.20*%
G04:AMPARAMS|DCode=50|XSize=2.9mm|YSize=1.3mm|CornerRadius=0.16mm|HoleSize=0mm|Usage=FLASHONLY|Rotation=90.000|XOffset=0mm|YOffset=0mm|HoleType=Round|Shape=RoundedRectangle|*
%AMROUNDEDRECTD50*
21,1,2.90,0.99,0,0,90.0*
21,1,2.59,1.30,0,0,90.0*
1,1,0.31,0.50,1.30*
1,1,0.31,0.50,-1.30*
1,1,0.31,-0.50,-1.30*
1,1,0.31,-0.50,1.30*
%
%ADD50ROUNDEDRECTD50*%
%ADD51P,2.17X8X202.5*%
%ADD52R,2.00X2.00*%
%ADD53R,1.85X1.85*%
%ADD54C,1.85*%
%ADD55R,1.85X1.85*%
%ADD56C,4.20*%
%ADD57C,0.40*%
D31*
X6200Y1064D02*
D03*
Y1114D02*
D03*
Y1164D02*
D03*
Y1214D02*
D03*
X6040D02*
D03*
Y1164D02*
D03*
Y1114D02*
D03*
Y1064D02*
D03*
D34*
X3531Y1288D02*
D03*
X3581D02*
D03*
X3631D02*
D03*
X3681D02*
D03*
Y1448D02*
D03*
X3631D02*
D03*
X3581D02*
D03*
X3531D02*
D03*
X763Y1300D02*
D03*
X813D02*
D03*
X863D02*
D03*
X913D02*
D03*
Y1460D02*
D03*
X863D02*
D03*
X813D02*
D03*
X763D02*
D03*
D35*
X5511Y5406D02*
D03*
X4631D02*
D03*
X5880D02*
D03*
X6760D02*
D03*
X3383D02*
D03*
X4263D02*
D03*
X2134D02*
D03*
X3014D02*
D03*
D36*
X5321Y5622D02*
D03*
X5071D02*
D03*
X4821D02*
D03*
X6070D02*
D03*
X6320D02*
D03*
X6570D02*
D03*
X3573D02*
D03*
X3823D02*
D03*
X4073D02*
D03*
X2324D02*
D03*
X2574D02*
D03*
X2824D02*
D03*
D37*
X3866Y1078D02*
D03*
X3714D02*
D03*
X3662Y1612D02*
D03*
X3814D02*
D03*
X3604Y1778D02*
D03*
X3756D02*
D03*
X3598Y1932D02*
D03*
X3750D02*
D03*
X5142Y2396D02*
D03*
X4990D02*
D03*
X2378Y2400D02*
D03*
X2226D02*
D03*
X872Y1648D02*
D03*
X1024D02*
D03*
X774Y1926D02*
D03*
X927D02*
D03*
X774Y1787D02*
D03*
X927D02*
D03*
X1056Y1050D02*
D03*
X904D02*
D03*
D38*
X590Y2834D02*
D03*
Y2434D02*
D03*
D39*
X236Y4808D02*
D03*
Y5004D02*
D03*
X7268Y4878D02*
D03*
Y5074D02*
D03*
X242Y904D02*
D03*
Y708D02*
D03*
X7202Y918D02*
D03*
Y722D02*
D03*
X6006Y759D02*
D03*
Y563D02*
D03*
X5765D02*
D03*
Y759D02*
D03*
X5523D02*
D03*
Y563D02*
D03*
X6678Y568D02*
D03*
Y764D02*
D03*
X6436D02*
D03*
Y568D02*
D03*
D40*
X462Y4854D02*
D03*
Y5006D02*
D03*
X7060Y5082D02*
D03*
Y4930D02*
D03*
X490Y712D02*
D03*
Y864D02*
D03*
X6978Y712D02*
D03*
Y864D02*
D03*
X6640Y2494D02*
D03*
Y2342D02*
D03*
X5864Y1173D02*
D03*
Y1325D02*
D03*
X5549Y1062D02*
D03*
Y1215D02*
D03*
X5727Y1062D02*
D03*
Y1215D02*
D03*
X6420Y1238D02*
D03*
Y1390D02*
D03*
D41*
X558Y1170D02*
D03*
X362D02*
D03*
X2014Y4001D02*
D03*
X1818D02*
D03*
X2260D02*
D03*
X2456D02*
D03*
X3344D02*
D03*
X3540D02*
D03*
X2456Y3156D02*
D03*
X2260D02*
D03*
X1818D02*
D03*
X2014D02*
D03*
X3098Y4001D02*
D03*
X2902D02*
D03*
Y3156D02*
D03*
X3098D02*
D03*
X3560D02*
D03*
X3364D02*
D03*
X3348Y1965D02*
D03*
X3153D02*
D03*
Y1723D02*
D03*
X3348D02*
D03*
Y1482D02*
D03*
X3153D02*
D03*
X3254Y1020D02*
D03*
X3058D02*
D03*
X3059Y809D02*
D03*
X3255D02*
D03*
X560Y2100D02*
D03*
X364D02*
D03*
X522Y1628D02*
D03*
X326D02*
D03*
X558Y1380D02*
D03*
X362D02*
D03*
X328Y1859D02*
D03*
X524D02*
D03*
D42*
X1290Y2724D02*
D03*
X1015D02*
D03*
X1294Y2488D02*
D03*
X1019D02*
D03*
X1298Y2958D02*
D03*
X1023D02*
D03*
D43*
X1184Y4708D02*
D03*
X1485D02*
D03*
D44*
X6026Y2683D02*
D03*
Y1793D02*
D03*
D45*
X7032Y2490D02*
D03*
Y2050D02*
D03*
D46*
X2166Y3635D02*
D03*
X2261Y3400D02*
D03*
X2071D02*
D03*
X3251Y3635D02*
D03*
X3346Y3400D02*
D03*
X3156D02*
D03*
X2166Y4497D02*
D03*
X2261Y4262D02*
D03*
X2071D02*
D03*
X3251Y4497D02*
D03*
X3346Y4262D02*
D03*
X3156D02*
D03*
D47*
X4269Y1168D02*
D03*
X5159D02*
D03*
X1548Y1190D02*
D03*
X2438D02*
D03*
D48*
X6672Y1416D02*
D03*
Y1126D02*
D03*
X7027Y1416D02*
D03*
Y1126D02*
D03*
D49*
X4708Y1990D02*
D03*
X5148D02*
D03*
X1989Y2028D02*
D03*
X2429D02*
D03*
D50*
X3857Y810D02*
D03*
X3567D02*
D03*
X3853Y432D02*
D03*
X3563D02*
D03*
X877Y766D02*
D03*
X1167D02*
D03*
X875Y422D02*
D03*
X1165D02*
D03*
D51*
X3808Y3678D02*
D03*
X4062D02*
D03*
X4316D02*
D03*
X4570D02*
D03*
X5078D02*
D03*
X5332D02*
D03*
X4824D02*
D03*
Y4021D02*
D03*
X5332D02*
D03*
X5078D02*
D03*
X4570D02*
D03*
X4316D02*
D03*
X4062D02*
D03*
X3808D02*
D03*
D52*
X5586Y3678D02*
D03*
Y4021D02*
D03*
D53*
X1134Y5040D02*
D03*
D54*
X1384D02*
D03*
X1634D02*
D03*
X1884D02*
D03*
X754Y3462D02*
D03*
Y3712D02*
D03*
Y3962D02*
D03*
Y4212D02*
D03*
Y4462D02*
D03*
Y4712D02*
D03*
Y4962D02*
D03*
X6748Y2886D02*
D03*
Y3136D02*
D03*
Y3386D02*
D03*
Y3636D02*
D03*
Y3886D02*
D03*
Y4136D02*
D03*
Y4386D02*
D03*
D55*
X754Y3212D02*
D03*
X6748Y4636D02*
D03*
D56*
X404Y5406D02*
D03*
X7100D02*
D03*
Y400D02*
D03*
X404D02*
D03*
D57*
X1744Y2020D02*
D03*
X6288Y979D02*
D03*
X1023Y3195D02*
D03*
X2692Y4696D02*
D03*
X5326Y4872D02*
D03*
X2564Y4007D02*
D03*
X3558Y4168D02*
D03*
X3850Y1856D02*
D03*
X4414Y1990D02*
D03*
X5588Y2884D02*
D03*
X372Y1034D02*
D03*
X251Y2100D02*
D03*
X1650Y3196D02*
D03*
X2261Y3293D02*
D03*
X2556Y3163D02*
D03*
X2865Y2776D02*
D03*
X374Y4664D02*
D03*
X7132Y4752D02*
D03*
X7306Y1062D02*
D03*
X6282Y570D02*
D03*
X6622Y5402D02*
D03*
X5698Y5406D02*
D03*
X4448Y5404D02*
D03*
X3204Y5408D02*
D03*
X1999D02*
D03*
X2324Y5374D02*
D03*
X3344Y4168D02*
D03*
X2260Y4154D02*
D03*
X3344Y3293D02*
D03*
X3650Y3156D02*
D03*
X2128Y2400D02*
D03*
X4912Y2396D02*
D03*
X6640Y2236D02*
D03*
X7032Y1554D02*
D03*
X6418Y1528D02*
D03*
X4016Y580D02*
D03*
X3996Y1078D02*
D03*
X738Y422D02*
D03*
X726Y766D02*
D03*
X3546Y3676D02*
D03*
X7030Y1814D02*
D03*
X6006Y863D02*
D03*
X5628Y1324D02*
D03*
X6318Y1263D02*
D03*
X6678Y1560D02*
D03*
X3428Y1376D02*
D03*
X3780Y1212D02*
D03*
X4008Y804D02*
D03*
X2944Y1024D02*
D03*
X1047Y1254D02*
D03*
X618Y1576D02*
D03*
X1016Y1846D02*
D03*
X726Y1050D02*
D03*
X268Y1380D02*
D03*
X1890Y4798D02*
D03*
X596Y3034D02*
D03*
X1348Y1620D02*
D03*
X310Y2624D02*
D03*
X1354Y1980D02*
D03*
X5838Y3562D02*
D03*
Y4784D02*
D03*
X5196Y4786D02*
D03*
X5954Y4860D02*
D03*
X5950Y3384D02*
D03*
X6064Y3138D02*
D03*
X6320Y3710D02*
D03*
X4930Y3470D02*
D03*
X6026Y2972D02*
D03*
X5080Y3386D02*
D03*
X5334Y3140D02*
D03*
X4821Y4786D02*
D03*
X2564D02*
D03*
X3532Y4870D02*
D03*
X5084Y4868D02*
D03*
X5586Y4504D02*
D03*
X5342Y4666D02*
D03*
X4068Y4506D02*
D03*
X3254Y3784D02*
D03*
X2986Y4382D02*
D03*
X2166Y3780D02*
D03*
X3250Y4664D02*
D03*
X3820Y4674D02*
D03*
X2682Y3162D02*
D03*
X1110Y3274D02*
D03*
X1674Y4006D02*
D03*
X5304Y622D02*
D03*
X6672Y200D02*
D03*
X4821Y5462D02*
D03*
X3014Y1965D02*
D03*
X946Y3120D02*
D03*
X7026Y968D02*
D03*
X6672Y968D02*
D03*
X1530Y766D02*
D03*
Y422D02*
D03*
X844Y2272D02*
D03*
X3428Y434D02*
D03*
X846Y2958D02*
D03*
X840Y2720D02*
D03*
X841Y2488D02*
D03*
X1522Y2490D02*
D03*
X1530Y2724D02*
D03*
Y2962D02*
D03*
X6640Y2688D02*
D03*
X7028D02*
D03*
X6478Y5448D02*
D03*
X5422Y2402D02*
D03*
Y1992D02*
D03*
Y1164D02*
D03*
X2784Y2394D02*
D03*
Y2024D02*
D03*
X2784Y5424D02*
D03*
X2784Y1190D02*
D03*
M02*
