G04*
G04 #@! TF.GenerationSoftware,Altium Limited,Altium Designer,22.8.2 (66)*
G04*
G04 Layer_Physical_Order=4*
G04 Layer_Color=16711680*
%FSLAX42Y42*%
%MOMM*%
G71*
G04*
G04 #@! TF.SameCoordinates,0533CB18-9495-43A3-8B9C-2A5BF5C5928D*
G04*
G04*
G04 #@! TF.FilePolarity,Positive*
G04*
G01*
G75*
%ADD13C,0.25*%
%ADD58C,0.51*%
%ADD59C,1.02*%
%ADD62P,1.95X8X202.5*%
%ADD63R,1.80X1.80*%
%ADD64R,1.65X1.65*%
%ADD65C,1.65*%
%ADD66R,1.65X1.65*%
%ADD67C,4.00*%
%ADD68C,0.60*%
%ADD69R,2.54X1.27*%
%ADD70R,1.65X3.43*%
G36*
X7417Y81D02*
X6660D01*
X6656Y94D01*
X6660Y96D01*
X6683Y119D01*
X6703Y125D01*
X6722Y135D01*
X6737Y150D01*
X6747Y169D01*
X6753Y189D01*
Y211D01*
X6747Y231D01*
X6737Y250D01*
X6722Y265D01*
X6703Y275D01*
X6683Y281D01*
X6661D01*
X6641Y275D01*
X6622Y265D01*
X6607Y250D01*
X6597Y231D01*
X6591Y211D01*
X6587Y207D01*
X582D01*
X577Y218D01*
X599Y240D01*
X626Y281D01*
X645Y327D01*
X655Y375D01*
Y425D01*
X645Y473D01*
X626Y519D01*
X599Y560D01*
X564Y595D01*
X523Y622D01*
X477Y641D01*
X429Y651D01*
X379D01*
X331Y641D01*
X285Y622D01*
X244Y595D01*
X236Y587D01*
X225Y592D01*
Y2013D01*
X235Y2021D01*
X240Y2019D01*
X262D01*
X282Y2025D01*
X300Y2035D01*
X836D01*
Y1858D01*
X1191D01*
Y2035D01*
X2681D01*
X2703Y2013D01*
X2709Y1993D01*
X2719Y1974D01*
X2734Y1959D01*
X2753Y1949D01*
X2773Y1943D01*
X2795D01*
X2815Y1949D01*
X2834Y1959D01*
X2849Y1974D01*
X2859Y1993D01*
X2865Y2013D01*
Y2035D01*
X2859Y2055D01*
X2849Y2074D01*
X2834Y2089D01*
X2815Y2099D01*
X2795Y2105D01*
X2754Y2146D01*
X2733Y2160D01*
X2708Y2165D01*
X1191D01*
Y2386D01*
X836D01*
Y2373D01*
X817Y2371D01*
X793Y2361D01*
X772Y2344D01*
X755Y2323D01*
X745Y2299D01*
X742Y2272D01*
X745Y2245D01*
X755Y2221D01*
X772Y2200D01*
X793Y2183D01*
X807Y2177D01*
X804Y2165D01*
X300D01*
X282Y2175D01*
X262Y2181D01*
X240D01*
X235Y2179D01*
X225Y2187D01*
Y2841D01*
X609Y3225D01*
X621Y3221D01*
Y3079D01*
X877D01*
X881Y3070D01*
X896Y3055D01*
X915Y3045D01*
X935Y3039D01*
X957D01*
X977Y3045D01*
X995Y3055D01*
X1519D01*
X1519Y3043D01*
X1499Y3037D01*
X1480Y3027D01*
X1465Y3012D01*
X1455Y2993D01*
X1449Y2973D01*
Y2951D01*
X1455Y2931D01*
X1465Y2912D01*
X1480Y2897D01*
X1499Y2887D01*
X1519Y2881D01*
X1541D01*
X1561Y2887D01*
X1580Y2897D01*
X1595Y2912D01*
X1605Y2931D01*
X1611Y2951D01*
Y2973D01*
X1605Y2993D01*
X1595Y3012D01*
X1580Y3027D01*
X1561Y3037D01*
X1541Y3043D01*
X1541Y3055D01*
X2476D01*
X2482Y3049D01*
X2503Y3035D01*
X2517Y3032D01*
X2784Y2765D01*
X2790Y2745D01*
X2800Y2726D01*
X2815Y2711D01*
X2834Y2701D01*
X2854Y2695D01*
X2875D01*
X2896Y2701D01*
X2914Y2711D01*
X2929Y2726D01*
X2940Y2745D01*
X2946Y2765D01*
Y2787D01*
X2940Y2807D01*
X2929Y2826D01*
X2914Y2841D01*
X2896Y2851D01*
X2876Y2857D01*
X2662Y3071D01*
X2668Y3082D01*
X2671Y3081D01*
X2693D01*
X2713Y3087D01*
X2732Y3097D01*
X2747Y3112D01*
X2757Y3131D01*
X2763Y3151D01*
Y3173D01*
X2757Y3193D01*
X2747Y3212D01*
X2732Y3227D01*
X2713Y3237D01*
X2693Y3243D01*
X2658Y3277D01*
X2637Y3291D01*
X2613Y3296D01*
X2316D01*
X2291Y3291D01*
X2289Y3290D01*
X2036D01*
X2025Y3297D01*
X2001Y3302D01*
X1751D01*
X1733Y3320D01*
X1712Y3334D01*
X1687Y3339D01*
X1159D01*
X1141Y3349D01*
X1121Y3355D01*
X1099D01*
X1079Y3349D01*
X1060Y3339D01*
X1045Y3324D01*
X1035Y3305D01*
X1029Y3285D01*
Y3276D01*
X1012D01*
X991Y3271D01*
X973Y3260D01*
X958Y3245D01*
X947Y3226D01*
X942Y3206D01*
Y3201D01*
X935D01*
X915Y3195D01*
X900Y3187D01*
X887Y3192D01*
Y3345D01*
X842D01*
X839Y3358D01*
X861Y3380D01*
X878Y3411D01*
X887Y3444D01*
Y3480D01*
X878Y3513D01*
X861Y3544D01*
X836Y3569D01*
X817Y3580D01*
Y3594D01*
X836Y3605D01*
X861Y3630D01*
X878Y3661D01*
X887Y3694D01*
Y3730D01*
X878Y3763D01*
X861Y3794D01*
X836Y3819D01*
X817Y3830D01*
Y3844D01*
X836Y3855D01*
X861Y3880D01*
X878Y3911D01*
X887Y3944D01*
Y3980D01*
X878Y4013D01*
X861Y4044D01*
X836Y4069D01*
X817Y4080D01*
Y4094D01*
X836Y4105D01*
X861Y4130D01*
X871Y4147D01*
X1441D01*
X1593Y3995D01*
X1599Y3975D01*
X1609Y3956D01*
X1624Y3941D01*
X1643Y3931D01*
X1663Y3925D01*
X1685D01*
X1705Y3931D01*
X1724Y3941D01*
X1739Y3956D01*
X1749Y3975D01*
X1755Y3995D01*
Y4017D01*
X1749Y4037D01*
X1739Y4056D01*
X1724Y4071D01*
X1705Y4081D01*
X1685Y4087D01*
X1514Y4258D01*
X1493Y4272D01*
X1468Y4277D01*
X871D01*
X861Y4294D01*
X836Y4319D01*
X817Y4330D01*
Y4344D01*
X836Y4355D01*
X861Y4380D01*
X878Y4411D01*
X887Y4444D01*
Y4480D01*
X878Y4513D01*
X861Y4544D01*
X836Y4569D01*
X817Y4580D01*
Y4594D01*
X836Y4605D01*
X861Y4630D01*
X865Y4638D01*
X2636D01*
X2642Y4631D01*
X2661Y4621D01*
X2681Y4615D01*
X2703D01*
X2723Y4621D01*
X2742Y4631D01*
X2757Y4646D01*
X2767Y4665D01*
X2773Y4685D01*
Y4707D01*
X2775Y4709D01*
X3170D01*
X3176Y4698D01*
X3175Y4695D01*
X3169Y4675D01*
Y4653D01*
X3175Y4633D01*
X3185Y4614D01*
X3200Y4599D01*
X3219Y4589D01*
X3239Y4583D01*
X3261D01*
X3275Y4587D01*
X3643D01*
X3646Y4574D01*
X3641Y4573D01*
X3625Y4560D01*
X3587Y4522D01*
X3575Y4506D01*
X3568Y4488D01*
X3565Y4468D01*
Y3863D01*
X3562Y3861D01*
X3279D01*
X3265Y3865D01*
X3243D01*
X3223Y3859D01*
X3204Y3849D01*
X3189Y3834D01*
X3179Y3815D01*
X3173Y3795D01*
Y3773D01*
X3179Y3753D01*
X3189Y3734D01*
X3204Y3719D01*
X3223Y3709D01*
X3243Y3703D01*
X3265D01*
X3279Y3707D01*
X3594D01*
X3614Y3710D01*
X3633Y3717D01*
X3649Y3730D01*
X3655Y3736D01*
X3667Y3731D01*
Y3608D01*
X3737Y3538D01*
X3878D01*
X3935Y3594D01*
X3991Y3538D01*
X4132D01*
X4189Y3594D01*
X4245Y3538D01*
X4386D01*
X4443Y3594D01*
X4499Y3538D01*
X4640D01*
X4697Y3594D01*
X4753Y3538D01*
X4865D01*
X4871Y3525D01*
X4865Y3520D01*
X4855Y3501D01*
X4849Y3481D01*
Y3459D01*
X4855Y3439D01*
X4865Y3420D01*
X4880Y3405D01*
X4899Y3395D01*
X4919Y3389D01*
X4941D01*
X4961Y3395D01*
X4979Y3405D01*
X4993D01*
X4999Y3397D01*
Y3375D01*
X5005Y3355D01*
X5015Y3336D01*
X5030Y3321D01*
X5049Y3311D01*
X5069Y3305D01*
X5091D01*
X5111Y3311D01*
X5129Y3321D01*
X5898D01*
X5900Y3319D01*
X5919Y3309D01*
X5939Y3303D01*
X5961D01*
X5981Y3309D01*
X6000Y3319D01*
X6002Y3321D01*
X6631D01*
X6641Y3304D01*
X6666Y3279D01*
X6685Y3268D01*
Y3254D01*
X6666Y3243D01*
X6641Y3218D01*
X6633Y3203D01*
X6113D01*
X6095Y3213D01*
X6075Y3219D01*
X6053D01*
X6033Y3213D01*
X6015Y3203D01*
X5386D01*
X5384Y3205D01*
X5365Y3215D01*
X5345Y3221D01*
X5323D01*
X5303Y3215D01*
X5284Y3205D01*
X5269Y3190D01*
X5259Y3171D01*
X5253Y3151D01*
Y3129D01*
X5259Y3109D01*
X5269Y3090D01*
X5284Y3075D01*
X5303Y3065D01*
X5323Y3059D01*
X5345D01*
X5365Y3065D01*
X5380Y3073D01*
X6015D01*
X6028Y3066D01*
X6025Y3053D01*
X6015D01*
X5995Y3047D01*
X5976Y3037D01*
X5961Y3022D01*
X5951Y3003D01*
X5945Y2983D01*
Y2961D01*
X5946Y2960D01*
X5938Y2950D01*
X5636D01*
X5619Y2959D01*
X5599Y2965D01*
X5577D01*
X5557Y2959D01*
X5538Y2949D01*
X5523Y2934D01*
X5513Y2915D01*
X5507Y2895D01*
Y2873D01*
X5513Y2853D01*
X5523Y2834D01*
X5538Y2819D01*
X5557Y2809D01*
X5577Y2803D01*
X5599D01*
X5619Y2809D01*
X5638Y2819D01*
X5639Y2820D01*
X6632D01*
X6641Y2804D01*
X6666Y2779D01*
X6671Y2777D01*
X6666Y2765D01*
X6651Y2769D01*
X6630D01*
X6609Y2763D01*
X6591Y2753D01*
X6576Y2738D01*
X6565Y2719D01*
X6560Y2699D01*
Y2677D01*
X6565Y2657D01*
X6576Y2638D01*
X6591Y2623D01*
X6609Y2613D01*
X6630Y2607D01*
X6651D01*
X6672Y2613D01*
X6690Y2623D01*
X6705Y2638D01*
X6716Y2657D01*
X6721Y2677D01*
Y2699D01*
X6716Y2719D01*
X6705Y2738D01*
X6693Y2750D01*
X6700Y2761D01*
X6730Y2753D01*
X6766D01*
X6799Y2762D01*
X6830Y2779D01*
X6855Y2804D01*
X6872Y2835D01*
X6881Y2868D01*
Y2904D01*
X6872Y2937D01*
X6855Y2968D01*
X6830Y2993D01*
X6811Y3004D01*
Y3018D01*
X6830Y3029D01*
X6855Y3054D01*
X6872Y3085D01*
X6881Y3118D01*
Y3154D01*
X6872Y3187D01*
X6855Y3218D01*
X6830Y3243D01*
X6811Y3254D01*
Y3268D01*
X6830Y3279D01*
X6855Y3304D01*
X6872Y3335D01*
X6881Y3368D01*
Y3404D01*
X6872Y3437D01*
X6855Y3468D01*
X6830Y3493D01*
X6811Y3504D01*
Y3518D01*
X6830Y3529D01*
X6855Y3554D01*
X6872Y3585D01*
X6881Y3618D01*
Y3654D01*
X6872Y3687D01*
X6855Y3718D01*
X6830Y3743D01*
X6811Y3754D01*
Y3768D01*
X6830Y3779D01*
X6855Y3804D01*
X6872Y3835D01*
X6881Y3868D01*
Y3904D01*
X6872Y3937D01*
X6855Y3968D01*
X6830Y3993D01*
X6811Y4004D01*
Y4018D01*
X6830Y4029D01*
X6855Y4054D01*
X6872Y4085D01*
X6881Y4118D01*
Y4154D01*
X6872Y4187D01*
X6855Y4218D01*
X6830Y4243D01*
X6811Y4254D01*
Y4268D01*
X6830Y4279D01*
X6855Y4304D01*
X6872Y4335D01*
X6881Y4368D01*
Y4404D01*
X6872Y4437D01*
X6855Y4468D01*
X6833Y4490D01*
X6836Y4503D01*
X6881D01*
Y4769D01*
X6615D01*
Y4503D01*
X6660D01*
X6663Y4490D01*
X6641Y4468D01*
X6624Y4437D01*
X6615Y4404D01*
Y4368D01*
X6624Y4335D01*
X6641Y4304D01*
X6666Y4279D01*
X6685Y4268D01*
Y4254D01*
X6666Y4243D01*
X6641Y4218D01*
X6624Y4187D01*
X6615Y4154D01*
Y4118D01*
X6624Y4085D01*
X6641Y4054D01*
X6666Y4029D01*
X6685Y4018D01*
Y4004D01*
X6666Y3993D01*
X6641Y3968D01*
X6624Y3937D01*
X6615Y3904D01*
Y3868D01*
X6624Y3835D01*
X6641Y3804D01*
X6666Y3779D01*
X6685Y3768D01*
Y3754D01*
X6666Y3743D01*
X6641Y3718D01*
X6631Y3701D01*
X6401D01*
Y3721D01*
X6395Y3741D01*
X6385Y3760D01*
X6370Y3775D01*
X6351Y3785D01*
X6331Y3791D01*
X6309D01*
X6289Y3785D01*
X6271Y3775D01*
X5727D01*
Y3819D01*
X5445D01*
Y3793D01*
X5433Y3788D01*
X5402Y3819D01*
X5261D01*
X5205Y3763D01*
X5148Y3819D01*
X5007D01*
X4951Y3763D01*
X4894Y3819D01*
X4753D01*
X4697Y3763D01*
X4640Y3819D01*
X4499D01*
X4443Y3763D01*
X4386Y3819D01*
X4245D01*
X4189Y3763D01*
X4132Y3819D01*
X3991D01*
X3935Y3763D01*
X3878Y3819D01*
X3737D01*
X3729Y3810D01*
X3722Y3812D01*
X3717Y3816D01*
X3719Y3832D01*
X3719Y3832D01*
Y3883D01*
X3730Y3888D01*
X3737Y3881D01*
X3878D01*
X3935Y3937D01*
X3991Y3881D01*
X4132D01*
X4189Y3937D01*
X4245Y3881D01*
X4386D01*
X4443Y3937D01*
X4499Y3881D01*
X4640D01*
X4697Y3937D01*
X4753Y3881D01*
X4894D01*
X4951Y3937D01*
X5007Y3881D01*
X5148D01*
X5205Y3937D01*
X5261Y3881D01*
X5402D01*
X5433Y3912D01*
X5445Y3907D01*
Y3881D01*
X5727D01*
Y4162D01*
X5445D01*
Y4136D01*
X5433Y4131D01*
X5402Y4162D01*
X5261D01*
X5205Y4106D01*
X5148Y4162D01*
X5007D01*
X4951Y4106D01*
X4894Y4162D01*
X4753D01*
X4697Y4106D01*
X4640Y4162D01*
X4499D01*
X4443Y4106D01*
X4386Y4162D01*
X4245D01*
X4189Y4106D01*
X4132Y4162D01*
X3991D01*
X3935Y4106D01*
X3878Y4162D01*
X3737D01*
X3730Y4155D01*
X3719Y4160D01*
Y4429D01*
X4043D01*
X4057Y4425D01*
X4079D01*
X4093Y4429D01*
X5554D01*
X5555Y4429D01*
X5575Y4423D01*
X5596D01*
X5617Y4429D01*
X5635Y4439D01*
X5650Y4454D01*
X5661Y4473D01*
X5667Y4493D01*
Y4515D01*
X5661Y4535D01*
X5650Y4554D01*
X5635Y4569D01*
X5617Y4579D01*
X5596Y4585D01*
X5575D01*
X5568Y4583D01*
X5385D01*
X5382Y4596D01*
X5392Y4601D01*
X5407Y4616D01*
X5417Y4635D01*
X5423Y4655D01*
Y4677D01*
X5417Y4697D01*
X5414Y4703D01*
X5421Y4716D01*
X5551D01*
X5574Y4720D01*
X5787D01*
X5788Y4719D01*
X5807Y4709D01*
X5827Y4703D01*
X5849D01*
X5869Y4709D01*
X5888Y4719D01*
X5903Y4734D01*
X5913Y4753D01*
X5919Y4773D01*
X5931Y4782D01*
X5943Y4779D01*
X5965D01*
X5985Y4785D01*
X6004Y4795D01*
X6019Y4810D01*
X6029Y4829D01*
X6035Y4849D01*
Y4871D01*
X6029Y4891D01*
X6019Y4910D01*
X6004Y4925D01*
X5985Y4935D01*
X5965Y4941D01*
X5943D01*
X5923Y4935D01*
X5915Y4931D01*
X5382D01*
X5376Y4937D01*
X5357Y4947D01*
X5337Y4953D01*
X5315D01*
X5295Y4947D01*
X5276Y4937D01*
X5261Y4922D01*
X5251Y4903D01*
X5245Y4883D01*
Y4866D01*
X5236Y4859D01*
X5233Y4858D01*
X5227Y4861D01*
X5207Y4867D01*
X5185D01*
X5178Y4865D01*
X5165Y4874D01*
Y4879D01*
X5159Y4899D01*
X5149Y4918D01*
X5134Y4933D01*
X5115Y4943D01*
X5095Y4949D01*
X5073D01*
X5059Y4945D01*
X3564D01*
X3563Y4945D01*
X3543Y4951D01*
X3521D01*
X3501Y4945D01*
X3482Y4935D01*
X3467Y4920D01*
X3457Y4901D01*
X3451Y4881D01*
Y4863D01*
X2589D01*
X2575Y4867D01*
X2553D01*
X2533Y4861D01*
X2514Y4851D01*
X2499Y4836D01*
X2489Y4817D01*
X2483Y4797D01*
Y4775D01*
X2477Y4767D01*
X876D01*
X861Y4794D01*
X836Y4819D01*
X817Y4830D01*
Y4844D01*
X836Y4855D01*
X861Y4880D01*
X878Y4911D01*
X887Y4944D01*
Y4980D01*
X878Y5013D01*
X861Y5044D01*
X836Y5069D01*
X805Y5086D01*
X772Y5095D01*
X736D01*
X703Y5086D01*
X672Y5069D01*
X647Y5044D01*
X630Y5013D01*
X621Y4980D01*
Y4944D01*
X630Y4911D01*
X647Y4880D01*
X672Y4855D01*
X691Y4844D01*
Y4830D01*
X672Y4819D01*
X647Y4794D01*
X630Y4763D01*
X621Y4730D01*
Y4694D01*
X630Y4661D01*
X647Y4630D01*
X672Y4605D01*
X691Y4594D01*
Y4580D01*
X672Y4569D01*
X647Y4544D01*
X630Y4513D01*
X621Y4480D01*
Y4444D01*
X630Y4411D01*
X647Y4380D01*
X672Y4355D01*
X691Y4344D01*
Y4330D01*
X672Y4319D01*
X647Y4294D01*
X630Y4263D01*
X621Y4230D01*
Y4194D01*
X630Y4161D01*
X647Y4130D01*
X672Y4105D01*
X691Y4094D01*
Y4080D01*
X672Y4069D01*
X647Y4044D01*
X630Y4013D01*
X621Y3980D01*
Y3944D01*
X630Y3911D01*
X647Y3880D01*
X672Y3855D01*
X691Y3844D01*
Y3830D01*
X672Y3819D01*
X647Y3794D01*
X630Y3763D01*
X621Y3730D01*
Y3694D01*
X630Y3661D01*
X647Y3630D01*
X672Y3605D01*
X691Y3594D01*
Y3580D01*
X672Y3569D01*
X647Y3544D01*
X630Y3513D01*
X621Y3480D01*
Y3444D01*
X626Y3425D01*
X114Y2914D01*
X100Y2893D01*
X95Y2868D01*
Y157D01*
X100Y132D01*
X114Y111D01*
X129Y96D01*
X133Y94D01*
X129Y81D01*
X79D01*
Y5721D01*
X7417D01*
Y81D01*
D02*
G37*
%LPC*%
G36*
X4832Y5543D02*
X4811D01*
X4790Y5537D01*
X4772Y5527D01*
X4757Y5512D01*
X4746Y5493D01*
X4741Y5473D01*
Y5451D01*
X4746Y5431D01*
X4757Y5412D01*
X4772Y5397D01*
X4790Y5387D01*
X4811Y5381D01*
X4832D01*
X4853Y5387D01*
X4871Y5397D01*
X4886Y5412D01*
X4897Y5431D01*
X4902Y5451D01*
Y5473D01*
X4897Y5493D01*
X4886Y5512D01*
X4871Y5527D01*
X4853Y5537D01*
X4832Y5543D01*
D02*
G37*
G36*
X6489Y5529D02*
X6467D01*
X6447Y5523D01*
X6428Y5513D01*
X6413Y5498D01*
X6403Y5479D01*
X6397Y5459D01*
Y5437D01*
X6403Y5417D01*
X6413Y5398D01*
X6428Y5383D01*
X6447Y5373D01*
X6467Y5367D01*
X6489D01*
X6509Y5373D01*
X6528Y5383D01*
X6543Y5398D01*
X6553Y5417D01*
X6559Y5437D01*
Y5459D01*
X6553Y5479D01*
X6543Y5498D01*
X6528Y5513D01*
X6509Y5523D01*
X6489Y5529D01*
D02*
G37*
G36*
X2795Y5505D02*
X2774D01*
X2753Y5500D01*
X2735Y5489D01*
X2720Y5474D01*
X2709Y5456D01*
X2704Y5435D01*
Y5414D01*
X2709Y5393D01*
X2720Y5375D01*
X2735Y5360D01*
X2753Y5349D01*
X2774Y5344D01*
X2795D01*
X2816Y5349D01*
X2834Y5360D01*
X2849Y5375D01*
X2860Y5393D01*
X2865Y5414D01*
Y5435D01*
X2860Y5456D01*
X2849Y5474D01*
X2834Y5489D01*
X2816Y5500D01*
X2795Y5505D01*
D02*
G37*
G36*
X7125Y5657D02*
X7075D01*
X7027Y5647D01*
X6981Y5628D01*
X6940Y5601D01*
X6905Y5566D01*
X6878Y5525D01*
X6859Y5479D01*
X6849Y5431D01*
Y5381D01*
X6859Y5333D01*
X6878Y5287D01*
X6905Y5246D01*
X6940Y5211D01*
X6981Y5184D01*
X7027Y5165D01*
X7075Y5155D01*
X7125D01*
X7173Y5165D01*
X7219Y5184D01*
X7260Y5211D01*
X7295Y5246D01*
X7322Y5287D01*
X7341Y5333D01*
X7351Y5381D01*
Y5431D01*
X7341Y5479D01*
X7322Y5525D01*
X7295Y5566D01*
X7260Y5601D01*
X7219Y5628D01*
X7173Y5647D01*
X7125Y5657D01*
D02*
G37*
G36*
X429D02*
X379D01*
X331Y5647D01*
X285Y5628D01*
X244Y5601D01*
X209Y5566D01*
X182Y5525D01*
X163Y5479D01*
X153Y5431D01*
Y5381D01*
X163Y5333D01*
X182Y5287D01*
X209Y5246D01*
X244Y5211D01*
X285Y5184D01*
X331Y5165D01*
X379Y5155D01*
X429D01*
X477Y5165D01*
X523Y5184D01*
X564Y5211D01*
X599Y5246D01*
X626Y5287D01*
X645Y5333D01*
X655Y5381D01*
Y5431D01*
X645Y5479D01*
X626Y5525D01*
X599Y5566D01*
X564Y5601D01*
X523Y5628D01*
X477Y5647D01*
X429Y5657D01*
D02*
G37*
G36*
X1902Y5173D02*
X1866D01*
X1833Y5164D01*
X1802Y5147D01*
X1777Y5122D01*
X1766Y5103D01*
X1752D01*
X1741Y5122D01*
X1716Y5147D01*
X1685Y5164D01*
X1652Y5173D01*
X1616D01*
X1583Y5164D01*
X1552Y5147D01*
X1527Y5122D01*
X1516Y5103D01*
X1502D01*
X1491Y5122D01*
X1466Y5147D01*
X1435Y5164D01*
X1402Y5173D01*
X1366D01*
X1333Y5164D01*
X1302Y5147D01*
X1280Y5125D01*
X1267Y5128D01*
Y5173D01*
X1001D01*
Y4907D01*
X1267D01*
Y4952D01*
X1280Y4955D01*
X1302Y4933D01*
X1333Y4916D01*
X1366Y4907D01*
X1402D01*
X1435Y4916D01*
X1466Y4933D01*
X1491Y4958D01*
X1502Y4977D01*
X1516D01*
X1527Y4958D01*
X1552Y4933D01*
X1583Y4916D01*
X1616Y4907D01*
X1652D01*
X1685Y4916D01*
X1716Y4933D01*
X1741Y4958D01*
X1752Y4977D01*
X1766D01*
X1777Y4958D01*
X1802Y4933D01*
X1833Y4916D01*
X1866Y4907D01*
X1902D01*
X1935Y4916D01*
X1966Y4933D01*
X1991Y4958D01*
X2008Y4989D01*
X2017Y5022D01*
Y5058D01*
X2008Y5091D01*
X1991Y5122D01*
X1966Y5147D01*
X1935Y5164D01*
X1902Y5173D01*
D02*
G37*
G36*
X2997Y4463D02*
X2975D01*
X2961Y4459D01*
X2680D01*
X2660Y4456D01*
X2641Y4449D01*
X2625Y4436D01*
X2625Y4436D01*
X2596Y4407D01*
X2583Y4391D01*
X2576Y4372D01*
X2573Y4352D01*
Y3857D01*
X2191D01*
X2177Y3861D01*
X2155D01*
X2135Y3855D01*
X2116Y3845D01*
X2101Y3830D01*
X2091Y3811D01*
X2085Y3791D01*
Y3769D01*
X2091Y3749D01*
X2101Y3730D01*
X2116Y3715D01*
X2135Y3705D01*
X2155Y3699D01*
X2177D01*
X2191Y3703D01*
X2620D01*
X2640Y3706D01*
X2659Y3713D01*
X2675Y3726D01*
X2704Y3755D01*
X2704Y3755D01*
X2717Y3771D01*
X2724Y3790D01*
X2727Y3810D01*
Y4305D01*
X2961D01*
X2975Y4301D01*
X2997D01*
X3017Y4307D01*
X3036Y4317D01*
X3051Y4332D01*
X3061Y4351D01*
X3067Y4371D01*
Y4393D01*
X3061Y4413D01*
X3051Y4432D01*
X3036Y4447D01*
X3017Y4457D01*
X2997Y4463D01*
D02*
G37*
G36*
X857Y3039D02*
X835D01*
X815Y3033D01*
X796Y3023D01*
X781Y3008D01*
X771Y2989D01*
X765Y2969D01*
Y2947D01*
X771Y2927D01*
X781Y2908D01*
X796Y2893D01*
X815Y2883D01*
X835Y2877D01*
X857D01*
X877Y2883D01*
X896Y2893D01*
X911Y2908D01*
X921Y2927D01*
X927Y2947D01*
Y2969D01*
X921Y2989D01*
X911Y3008D01*
X896Y3023D01*
X877Y3033D01*
X857Y3039D01*
D02*
G37*
G36*
X1541Y2805D02*
X1519D01*
X1499Y2799D01*
X1480Y2789D01*
X1465Y2774D01*
X1455Y2755D01*
X1449Y2735D01*
Y2713D01*
X1455Y2693D01*
X1465Y2674D01*
X1480Y2659D01*
X1499Y2649D01*
X1519Y2643D01*
X1541D01*
X1561Y2649D01*
X1580Y2659D01*
X1595Y2674D01*
X1605Y2693D01*
X1611Y2713D01*
Y2735D01*
X1605Y2755D01*
X1595Y2774D01*
X1580Y2789D01*
X1561Y2799D01*
X1541Y2805D01*
D02*
G37*
G36*
X851Y2801D02*
X829D01*
X809Y2795D01*
X790Y2785D01*
X775Y2770D01*
X765Y2751D01*
X759Y2731D01*
Y2709D01*
X765Y2689D01*
X775Y2670D01*
X790Y2655D01*
X809Y2645D01*
X829Y2639D01*
X851D01*
X871Y2645D01*
X890Y2655D01*
X905Y2670D01*
X915Y2689D01*
X921Y2709D01*
Y2731D01*
X915Y2751D01*
X905Y2770D01*
X890Y2785D01*
X871Y2795D01*
X851Y2801D01*
D02*
G37*
G36*
X7039Y2769D02*
X7017D01*
X6997Y2763D01*
X6978Y2753D01*
X6963Y2738D01*
X6953Y2719D01*
X6947Y2699D01*
Y2677D01*
X6953Y2657D01*
X6963Y2638D01*
X6978Y2623D01*
X6997Y2613D01*
X7017Y2607D01*
X7039D01*
X7059Y2613D01*
X7078Y2623D01*
X7093Y2638D01*
X7103Y2657D01*
X7109Y2677D01*
Y2699D01*
X7103Y2719D01*
X7093Y2738D01*
X7078Y2753D01*
X7059Y2763D01*
X7039Y2769D01*
D02*
G37*
G36*
X1533Y2571D02*
X1511D01*
X1491Y2565D01*
X1472Y2555D01*
X1457Y2540D01*
X1447Y2521D01*
X1441Y2501D01*
Y2479D01*
X1447Y2459D01*
X1457Y2440D01*
X1472Y2425D01*
X1491Y2415D01*
X1511Y2409D01*
X1533D01*
X1553Y2415D01*
X1572Y2425D01*
X1587Y2440D01*
X1597Y2459D01*
X1603Y2479D01*
Y2501D01*
X1597Y2521D01*
X1587Y2540D01*
X1572Y2555D01*
X1553Y2565D01*
X1533Y2571D01*
D02*
G37*
G36*
X593Y2852D02*
X327D01*
Y2408D01*
X593D01*
Y2852D01*
D02*
G37*
G36*
X852Y2569D02*
X831D01*
X810Y2563D01*
X792Y2553D01*
X777Y2538D01*
X766Y2519D01*
X760Y2499D01*
Y2477D01*
X766Y2457D01*
X777Y2438D01*
X792Y2423D01*
X810Y2413D01*
X831Y2407D01*
X852D01*
X872Y2413D01*
X891Y2423D01*
X906Y2438D01*
X916Y2457D01*
X922Y2477D01*
Y2499D01*
X916Y2519D01*
X906Y2538D01*
X891Y2553D01*
X872Y2563D01*
X852Y2569D01*
D02*
G37*
G36*
X5433Y2483D02*
X5411D01*
X5391Y2477D01*
X5372Y2467D01*
X5357Y2452D01*
X5347Y2433D01*
X5341Y2413D01*
Y2391D01*
X5347Y2371D01*
X5357Y2352D01*
X5372Y2337D01*
X5391Y2327D01*
X5411Y2321D01*
X5433D01*
X5453Y2327D01*
X5472Y2337D01*
X5487Y2352D01*
X5497Y2371D01*
X5503Y2391D01*
Y2413D01*
X5497Y2433D01*
X5487Y2452D01*
X5472Y2467D01*
X5453Y2477D01*
X5433Y2483D01*
D02*
G37*
G36*
X2795Y2475D02*
X2773D01*
X2753Y2469D01*
X2734Y2459D01*
X2719Y2444D01*
X2709Y2425D01*
X2703Y2405D01*
Y2383D01*
X2709Y2363D01*
X2719Y2344D01*
X2734Y2329D01*
X2753Y2319D01*
X2773Y2313D01*
X2795D01*
X2815Y2319D01*
X2834Y2329D01*
X2849Y2344D01*
X2859Y2363D01*
X2865Y2383D01*
Y2405D01*
X2859Y2425D01*
X2849Y2444D01*
X2834Y2459D01*
X2815Y2469D01*
X2795Y2475D01*
D02*
G37*
G36*
X5433Y2073D02*
X5411D01*
X5391Y2067D01*
X5372Y2057D01*
X5357Y2042D01*
X5347Y2023D01*
X5341Y2003D01*
X5319Y1981D01*
X3916D01*
X3886Y2010D01*
X3865Y2024D01*
X3841Y2029D01*
X3063D01*
X3045Y2040D01*
X3025Y2045D01*
X3003D01*
X2983Y2040D01*
X2964Y2029D01*
X2949Y2014D01*
X2939Y1996D01*
X2933Y1975D01*
Y1954D01*
X2939Y1933D01*
X2949Y1915D01*
X2964Y1900D01*
X2983Y1889D01*
X3003Y1884D01*
X3025D01*
X3045Y1889D01*
X3063Y1900D01*
X3814D01*
X3843Y1870D01*
X3864Y1856D01*
X3889Y1851D01*
X5346D01*
X5371Y1856D01*
X5392Y1870D01*
X5433Y1911D01*
X5453Y1917D01*
X5472Y1927D01*
X5487Y1942D01*
X5497Y1961D01*
X5503Y1981D01*
Y2003D01*
X5497Y2023D01*
X5487Y2042D01*
X5472Y2057D01*
X5453Y2067D01*
X5433Y2073D01*
D02*
G37*
G36*
X593Y1836D02*
X327D01*
Y1392D01*
X593D01*
Y1836D01*
D02*
G37*
G36*
X2795Y1271D02*
X2773D01*
X2753Y1265D01*
X2734Y1255D01*
X2719Y1240D01*
X2709Y1221D01*
X2703Y1201D01*
Y1179D01*
X2709Y1159D01*
X2719Y1140D01*
X2734Y1125D01*
X2753Y1115D01*
X2773Y1109D01*
X2795D01*
X2815Y1115D01*
X2834Y1125D01*
X2849Y1140D01*
X2859Y1159D01*
X2865Y1179D01*
Y1201D01*
X2859Y1221D01*
X2849Y1240D01*
X2834Y1255D01*
X2815Y1265D01*
X2795Y1271D01*
D02*
G37*
G36*
X5433Y1245D02*
X5411D01*
X5391Y1239D01*
X5372Y1229D01*
X5357Y1214D01*
X5347Y1195D01*
X5341Y1175D01*
Y1153D01*
X5347Y1133D01*
X5357Y1114D01*
X5372Y1099D01*
X5391Y1089D01*
X5411Y1083D01*
X5433D01*
X5453Y1089D01*
X5472Y1099D01*
X5487Y1114D01*
X5497Y1133D01*
X5503Y1153D01*
Y1175D01*
X5497Y1195D01*
X5487Y1214D01*
X5472Y1229D01*
X5453Y1239D01*
X5433Y1245D01*
D02*
G37*
G36*
X7037Y1049D02*
X7015D01*
X6995Y1043D01*
X6976Y1033D01*
X6961Y1018D01*
X6951Y999D01*
X6945Y979D01*
Y958D01*
X6951Y937D01*
X6961Y919D01*
X6976Y904D01*
X6995Y893D01*
X7015Y887D01*
X7037D01*
X7057Y893D01*
X7076Y904D01*
X7091Y919D01*
X7101Y937D01*
X7107Y958D01*
Y979D01*
X7101Y999D01*
X7091Y1018D01*
X7076Y1033D01*
X7057Y1043D01*
X7037Y1049D01*
D02*
G37*
G36*
X6683Y1049D02*
X6661D01*
X6641Y1043D01*
X6622Y1033D01*
X6607Y1018D01*
X6597Y999D01*
X6591Y979D01*
Y957D01*
X6597Y937D01*
X6607Y918D01*
X6622Y903D01*
X6641Y893D01*
X6661Y887D01*
X6683D01*
X6703Y893D01*
X6722Y903D01*
X6737Y918D01*
X6747Y937D01*
X6753Y957D01*
Y979D01*
X6747Y999D01*
X6737Y1018D01*
X6722Y1033D01*
X6703Y1043D01*
X6683Y1049D01*
D02*
G37*
G36*
X1541Y847D02*
X1519D01*
X1499Y841D01*
X1480Y831D01*
X1465Y816D01*
X1455Y797D01*
X1449Y777D01*
Y755D01*
X1455Y735D01*
X1465Y716D01*
X1480Y701D01*
X1499Y691D01*
X1519Y685D01*
X1541D01*
X1561Y691D01*
X1580Y701D01*
X1595Y716D01*
X1605Y735D01*
X1611Y755D01*
Y777D01*
X1605Y797D01*
X1595Y816D01*
X1580Y831D01*
X1561Y841D01*
X1541Y847D01*
D02*
G37*
G36*
X5315Y703D02*
X5293D01*
X5273Y697D01*
X5254Y687D01*
X5239Y672D01*
X5229Y653D01*
X5223Y633D01*
Y611D01*
X5229Y591D01*
X5239Y572D01*
X5254Y557D01*
X5273Y547D01*
X5293Y541D01*
X5315D01*
X5335Y547D01*
X5354Y557D01*
X5369Y572D01*
X5379Y591D01*
X5385Y611D01*
Y633D01*
X5379Y653D01*
X5369Y672D01*
X5354Y687D01*
X5335Y697D01*
X5315Y703D01*
D02*
G37*
G36*
X3439Y515D02*
X3417D01*
X3397Y509D01*
X3378Y499D01*
X3363Y484D01*
X3353Y465D01*
X3347Y445D01*
Y423D01*
X3353Y403D01*
X3363Y384D01*
X3378Y369D01*
X3397Y359D01*
X3417Y353D01*
X3439D01*
X3459Y359D01*
X3478Y369D01*
X3493Y384D01*
X3503Y403D01*
X3509Y423D01*
Y445D01*
X3503Y465D01*
X3493Y484D01*
X3478Y499D01*
X3459Y509D01*
X3439Y515D01*
D02*
G37*
G36*
X1541Y503D02*
X1519D01*
X1499Y497D01*
X1480Y487D01*
X1465Y472D01*
X1455Y453D01*
X1449Y433D01*
Y411D01*
X1455Y391D01*
X1465Y372D01*
X1480Y357D01*
X1499Y347D01*
X1519Y341D01*
X1541D01*
X1561Y347D01*
X1580Y357D01*
X1595Y372D01*
X1605Y391D01*
X1611Y411D01*
Y433D01*
X1605Y453D01*
X1595Y472D01*
X1580Y487D01*
X1561Y497D01*
X1541Y503D01*
D02*
G37*
G36*
X7125Y651D02*
X7075D01*
X7027Y641D01*
X6981Y622D01*
X6940Y595D01*
X6905Y560D01*
X6878Y519D01*
X6859Y473D01*
X6849Y425D01*
Y375D01*
X6859Y327D01*
X6878Y281D01*
X6905Y240D01*
X6940Y205D01*
X6981Y178D01*
X7027Y159D01*
X7075Y149D01*
X7125D01*
X7173Y159D01*
X7219Y178D01*
X7260Y205D01*
X7295Y240D01*
X7322Y281D01*
X7341Y327D01*
X7351Y375D01*
Y425D01*
X7341Y473D01*
X7322Y519D01*
X7295Y560D01*
X7260Y595D01*
X7219Y622D01*
X7173Y641D01*
X7125Y651D01*
D02*
G37*
%LPD*%
D13*
X1023Y3195D02*
X1023Y3195D01*
X1650D01*
X1650Y3196D01*
X946Y3120D02*
X2503D01*
X2528Y3095D01*
X2685Y4703D02*
X2692Y4696D01*
X763Y4703D02*
X2685D01*
X754Y4712D02*
X763Y4703D01*
X5332Y4866D02*
X5948D01*
X5326Y4872D02*
X5332Y4866D01*
X5948D02*
X5954Y4860D01*
X5551Y4781D02*
X5556Y4785D01*
X5837D01*
X5285Y4781D02*
X5551D01*
X5197Y4785D02*
X5281D01*
X5285Y4781D01*
X3014Y1965D02*
X3841D01*
X3889Y1916D02*
X5346D01*
X3841Y1965D02*
X3889Y1916D01*
X6747Y2885D02*
X6748Y2886D01*
X5589Y2885D02*
X6747D01*
X5588Y2884D02*
X5589Y2885D01*
X251Y2100D02*
X2708D01*
X2613Y3231D02*
X2682Y3162D01*
X2309Y3225D02*
X2316Y3231D01*
X2013Y3225D02*
X2309D01*
X1724Y3237D02*
X2001D01*
X2316Y3231D02*
X2613D01*
X2001Y3237D02*
X2013Y3225D01*
X2546Y3095D02*
X2865Y2776D01*
X2528Y3095D02*
X2546D01*
X1687Y3274D02*
X1724Y3237D01*
X1110Y3274D02*
X1687D01*
X5346Y1916D02*
X5422Y1992D01*
X175Y142D02*
X6614D01*
X160Y2868D02*
X754Y3462D01*
X160Y157D02*
Y2868D01*
Y157D02*
X175Y142D01*
X2708Y2100D02*
X2784Y2024D01*
X5740Y3470D02*
X5906Y3636D01*
X5196Y4786D02*
X5197Y4785D01*
X5837D02*
X5838Y4784D01*
X5080Y3386D02*
X6748D01*
X6064Y3138D02*
X6746D01*
X5336D02*
X6064D01*
X5617Y3710D02*
X6320D01*
X5586Y3678D02*
X5617Y3710D01*
X5906Y3636D02*
X6748D01*
X4930Y3470D02*
X5740D01*
X6746Y3138D02*
X6748Y3136D01*
X5334Y3140D02*
X5336Y3138D01*
X1468Y4212D02*
X1674Y4006D01*
X754Y4212D02*
X1468D01*
X6614Y142D02*
X6672Y200D01*
D58*
X2650Y3810D02*
Y4352D01*
X2166Y3780D02*
X2620D01*
X2650Y3810D01*
X2680Y4382D02*
X2986D01*
X2650Y4352D02*
X2680Y4382D01*
X3642Y3832D02*
Y4468D01*
X3680Y4506D01*
X3594Y3784D02*
X3642Y3832D01*
X3254Y3784D02*
X3594D01*
X3680Y4506D02*
X4068D01*
X2564Y4786D02*
X4821D01*
X3532Y4870D02*
X3534Y4868D01*
X5084D01*
X5584Y4506D02*
X5586Y4504D01*
X4068Y4506D02*
X5584D01*
X3820Y4674D02*
X5334D01*
X5342Y4666D01*
X3810Y4664D02*
X3820Y4674D01*
X3250Y4664D02*
X3810D01*
D59*
X476Y1620D02*
X1348D01*
X464Y2624D02*
X476Y2636D01*
X310Y2624D02*
X464D01*
X1030Y1978D02*
X1352D01*
X1354Y1980D01*
X1024Y2272D02*
X1030Y2278D01*
X844Y2272D02*
X1024D01*
D62*
X3808Y3678D02*
D03*
X4062D02*
D03*
X4316D02*
D03*
X4570D02*
D03*
X5078D02*
D03*
X5332D02*
D03*
X4824D02*
D03*
Y4021D02*
D03*
X5332D02*
D03*
X5078D02*
D03*
X4570D02*
D03*
X4316D02*
D03*
X4062D02*
D03*
X3808D02*
D03*
D63*
X5586Y3678D02*
D03*
Y4021D02*
D03*
D64*
X1134Y5040D02*
D03*
D65*
X1384D02*
D03*
X1634D02*
D03*
X1884D02*
D03*
X754Y3462D02*
D03*
Y3712D02*
D03*
Y3962D02*
D03*
Y4212D02*
D03*
Y4462D02*
D03*
Y4712D02*
D03*
Y4962D02*
D03*
X6748Y2886D02*
D03*
Y3136D02*
D03*
Y3386D02*
D03*
Y3636D02*
D03*
Y3886D02*
D03*
Y4136D02*
D03*
Y4386D02*
D03*
D66*
X754Y3212D02*
D03*
X6748Y4636D02*
D03*
D67*
X404Y5406D02*
D03*
X7100D02*
D03*
Y400D02*
D03*
X404D02*
D03*
D68*
X1744Y2020D02*
D03*
X6288Y979D02*
D03*
X1023Y3195D02*
D03*
X2692Y4696D02*
D03*
X5326Y4872D02*
D03*
X2564Y4007D02*
D03*
X3558Y4168D02*
D03*
X3850Y1856D02*
D03*
X4414Y1990D02*
D03*
X5588Y2884D02*
D03*
X372Y1034D02*
D03*
X251Y2100D02*
D03*
X1650Y3196D02*
D03*
X2261Y3293D02*
D03*
X2556Y3163D02*
D03*
X2865Y2776D02*
D03*
X374Y4664D02*
D03*
X7132Y4752D02*
D03*
X7306Y1062D02*
D03*
X6282Y570D02*
D03*
X6622Y5402D02*
D03*
X5698Y5406D02*
D03*
X4448Y5404D02*
D03*
X3204Y5408D02*
D03*
X1999D02*
D03*
X2324Y5374D02*
D03*
X3344Y4168D02*
D03*
X2260Y4154D02*
D03*
X3344Y3293D02*
D03*
X3650Y3156D02*
D03*
X2128Y2400D02*
D03*
X4912Y2396D02*
D03*
X6640Y2236D02*
D03*
X7032Y1554D02*
D03*
X6418Y1528D02*
D03*
X4016Y580D02*
D03*
X3996Y1078D02*
D03*
X738Y422D02*
D03*
X726Y766D02*
D03*
X3546Y3676D02*
D03*
X7030Y1814D02*
D03*
X6006Y863D02*
D03*
X5628Y1324D02*
D03*
X6318Y1263D02*
D03*
X6678Y1560D02*
D03*
X3428Y1376D02*
D03*
X3780Y1212D02*
D03*
X4008Y804D02*
D03*
X2944Y1024D02*
D03*
X1047Y1254D02*
D03*
X618Y1576D02*
D03*
X1016Y1846D02*
D03*
X726Y1050D02*
D03*
X268Y1380D02*
D03*
X1890Y4798D02*
D03*
X596Y3034D02*
D03*
X1348Y1620D02*
D03*
X310Y2624D02*
D03*
X1354Y1980D02*
D03*
X5838Y3562D02*
D03*
Y4784D02*
D03*
X5196Y4786D02*
D03*
X5954Y4860D02*
D03*
X5950Y3384D02*
D03*
X6064Y3138D02*
D03*
X6320Y3710D02*
D03*
X4930Y3470D02*
D03*
X6026Y2972D02*
D03*
X5080Y3386D02*
D03*
X5334Y3140D02*
D03*
X4821Y4786D02*
D03*
X2564D02*
D03*
X3532Y4870D02*
D03*
X5084Y4868D02*
D03*
X5586Y4504D02*
D03*
X5342Y4666D02*
D03*
X4068Y4506D02*
D03*
X3254Y3784D02*
D03*
X2986Y4382D02*
D03*
X2166Y3780D02*
D03*
X3250Y4664D02*
D03*
X3820Y4674D02*
D03*
X2682Y3162D02*
D03*
X1110Y3274D02*
D03*
X1674Y4006D02*
D03*
X5304Y622D02*
D03*
X6672Y200D02*
D03*
X4821Y5462D02*
D03*
X3014Y1965D02*
D03*
X946Y3120D02*
D03*
X7026Y968D02*
D03*
X6672Y968D02*
D03*
X1530Y766D02*
D03*
Y422D02*
D03*
X844Y2272D02*
D03*
X3428Y434D02*
D03*
X846Y2958D02*
D03*
X840Y2720D02*
D03*
X841Y2488D02*
D03*
X1522Y2490D02*
D03*
X1530Y2724D02*
D03*
Y2962D02*
D03*
X6640Y2688D02*
D03*
X7028D02*
D03*
X6478Y5448D02*
D03*
X5422Y2402D02*
D03*
Y1992D02*
D03*
Y1164D02*
D03*
X2784Y2394D02*
D03*
Y2024D02*
D03*
X2784Y5424D02*
D03*
X2784Y1190D02*
D03*
D69*
X1014Y1972D02*
D03*
Y2272D02*
D03*
D70*
X460Y1614D02*
D03*
Y2630D02*
D03*
M02*
