G04*
G04 #@! TF.GenerationSoftware,Altium Limited,Altium Designer,22.8.2 (66)*
G04*
G04 Layer_Color=255*
%FSLAX42Y42*%
%MOMM*%
G71*
G04*
G04 #@! TF.SameCoordinates,0533CB18-9495-43A3-8B9C-2A5BF5C5928D*
G04*
G04*
G04 #@! TF.FilePolarity,Positive*
G04*
G01*
G75*
%ADD62P,1.95X8X202.5*%
%ADD63R,1.80X1.80*%
%ADD64R,1.65X1.65*%
%ADD65C,1.65*%
%ADD66R,1.65X1.65*%
%ADD67C,4.00*%
%ADD69R,2.54X1.27*%
%ADD70R,1.65X3.43*%
D62*
X3808Y3678D02*
D03*
X4062D02*
D03*
X4316D02*
D03*
X4570D02*
D03*
X5078D02*
D03*
X5332D02*
D03*
X4824D02*
D03*
Y4021D02*
D03*
X5332D02*
D03*
X5078D02*
D03*
X4570D02*
D03*
X4316D02*
D03*
X4062D02*
D03*
X3808D02*
D03*
D63*
X5586Y3678D02*
D03*
Y4021D02*
D03*
D64*
X1134Y5040D02*
D03*
D65*
X1384D02*
D03*
X1634D02*
D03*
X1884D02*
D03*
X754Y3462D02*
D03*
Y3712D02*
D03*
Y3962D02*
D03*
Y4212D02*
D03*
Y4462D02*
D03*
Y4712D02*
D03*
Y4962D02*
D03*
X6748Y2886D02*
D03*
Y3136D02*
D03*
Y3386D02*
D03*
Y3636D02*
D03*
Y3886D02*
D03*
Y4136D02*
D03*
Y4386D02*
D03*
D66*
X754Y3212D02*
D03*
X6748Y4636D02*
D03*
D67*
X404Y5406D02*
D03*
X7100D02*
D03*
Y400D02*
D03*
X404D02*
D03*
D69*
X1014Y1972D02*
D03*
Y2272D02*
D03*
D70*
X460Y1614D02*
D03*
Y2630D02*
D03*
M02*
