G04*
G04 #@! TF.GenerationSoftware,Altium Limited,Altium Designer,22.8.2 (66)*
G04*
G04 Layer_Physical_Order=3*
G04 Layer_Color=16440176*
%FSLAX42Y42*%
%MOMM*%
G71*
G04*
G04 #@! TF.SameCoordinates,0533CB18-9495-43A3-8B9C-2A5BF5C5928D*
G04*
G04*
G04 #@! TF.FilePolarity,Positive*
G04*
G01*
G75*
%ADD13C,0.25*%
%ADD58C,0.51*%
%ADD62P,1.95X8X202.5*%
%ADD68C,0.60*%
G36*
X7417Y81D02*
X79D01*
Y5721D01*
X7417D01*
Y81D01*
D02*
G37*
%LPC*%
G36*
X7125Y5657D02*
X7075D01*
X7027Y5647D01*
X6981Y5628D01*
X6940Y5601D01*
X6905Y5566D01*
X6878Y5525D01*
X6859Y5479D01*
X6849Y5431D01*
Y5381D01*
X6859Y5333D01*
X6878Y5287D01*
X6905Y5246D01*
X6940Y5211D01*
X6981Y5184D01*
X7027Y5165D01*
X7075Y5155D01*
X7125D01*
X7173Y5165D01*
X7219Y5184D01*
X7260Y5211D01*
X7295Y5246D01*
X7322Y5287D01*
X7341Y5333D01*
X7351Y5381D01*
Y5431D01*
X7341Y5479D01*
X7322Y5525D01*
X7295Y5566D01*
X7260Y5601D01*
X7219Y5628D01*
X7173Y5647D01*
X7125Y5657D01*
D02*
G37*
G36*
X429D02*
X379D01*
X331Y5647D01*
X285Y5628D01*
X244Y5601D01*
X209Y5566D01*
X182Y5525D01*
X163Y5479D01*
X153Y5431D01*
Y5381D01*
X163Y5333D01*
X182Y5287D01*
X209Y5246D01*
X244Y5211D01*
X285Y5184D01*
X331Y5165D01*
X379Y5155D01*
X429D01*
X477Y5165D01*
X523Y5184D01*
X564Y5211D01*
X599Y5246D01*
X626Y5287D01*
X645Y5333D01*
X655Y5381D01*
Y5431D01*
X645Y5479D01*
X626Y5525D01*
X599Y5566D01*
X564Y5601D01*
X523Y5628D01*
X477Y5647D01*
X429Y5657D01*
D02*
G37*
G36*
X1902Y5173D02*
X1866D01*
X1833Y5164D01*
X1802Y5147D01*
X1777Y5122D01*
X1766Y5103D01*
X1752D01*
X1741Y5122D01*
X1716Y5147D01*
X1685Y5164D01*
X1652Y5173D01*
X1616D01*
X1583Y5164D01*
X1552Y5147D01*
X1527Y5122D01*
X1516Y5103D01*
X1502D01*
X1491Y5122D01*
X1466Y5147D01*
X1435Y5164D01*
X1402Y5173D01*
X1366D01*
X1333Y5164D01*
X1302Y5147D01*
X1277Y5122D01*
X1266Y5103D01*
X1252D01*
X1241Y5122D01*
X1216Y5147D01*
X1185Y5164D01*
X1152Y5173D01*
X1116D01*
X1083Y5164D01*
X1052Y5147D01*
X1027Y5122D01*
X1010Y5091D01*
X1001Y5058D01*
Y5022D01*
X1010Y4989D01*
X1027Y4958D01*
X1052Y4933D01*
X1083Y4916D01*
X1116Y4907D01*
X1152D01*
X1185Y4916D01*
X1216Y4933D01*
X1241Y4958D01*
X1252Y4977D01*
X1266D01*
X1277Y4958D01*
X1302Y4933D01*
X1333Y4916D01*
X1366Y4907D01*
X1402D01*
X1435Y4916D01*
X1466Y4933D01*
X1491Y4958D01*
X1502Y4977D01*
X1516D01*
X1527Y4958D01*
X1552Y4933D01*
X1583Y4916D01*
X1616Y4907D01*
X1652D01*
X1685Y4916D01*
X1716Y4933D01*
X1741Y4958D01*
X1752Y4977D01*
X1766D01*
X1777Y4958D01*
X1802Y4933D01*
X1833Y4916D01*
X1866Y4907D01*
X1902D01*
X1935Y4916D01*
X1966Y4933D01*
X1991Y4958D01*
X2008Y4989D01*
X2017Y5022D01*
Y5058D01*
X2008Y5091D01*
X1991Y5122D01*
X1966Y5147D01*
X1935Y5164D01*
X1902Y5173D01*
D02*
G37*
G36*
X5965Y4941D02*
X5943D01*
X5923Y4935D01*
X5904Y4925D01*
X5889Y4910D01*
X5879Y4891D01*
X5873Y4871D01*
X5860Y4862D01*
X5849Y4865D01*
X5827D01*
X5807Y4859D01*
X5788Y4849D01*
X5773Y4834D01*
X5763Y4815D01*
X5757Y4795D01*
Y4773D01*
X5763Y4753D01*
X5773Y4734D01*
X5788Y4719D01*
X5807Y4709D01*
X5827Y4703D01*
X5849D01*
X5869Y4709D01*
X5888Y4719D01*
X5903Y4734D01*
X5913Y4753D01*
X5919Y4773D01*
X5931Y4782D01*
X5943Y4779D01*
X5965D01*
X5985Y4785D01*
X6004Y4795D01*
X6019Y4810D01*
X6029Y4829D01*
X6035Y4849D01*
Y4871D01*
X6029Y4891D01*
X6019Y4910D01*
X6004Y4925D01*
X5985Y4935D01*
X5965Y4941D01*
D02*
G37*
G36*
X5337Y4953D02*
X5315D01*
X5295Y4947D01*
X5276Y4937D01*
X5261Y4922D01*
X5251Y4903D01*
X5245Y4883D01*
Y4866D01*
X5236Y4859D01*
X5233Y4858D01*
X5227Y4861D01*
X5207Y4867D01*
X5185D01*
X5178Y4865D01*
X5165Y4874D01*
Y4879D01*
X5159Y4899D01*
X5149Y4918D01*
X5134Y4933D01*
X5115Y4943D01*
X5095Y4949D01*
X5073D01*
X5053Y4943D01*
X5034Y4933D01*
X5019Y4918D01*
X5009Y4899D01*
X5003Y4879D01*
Y4857D01*
X5009Y4837D01*
X5019Y4818D01*
X5034Y4803D01*
X5053Y4793D01*
X5073Y4787D01*
X5095D01*
X5103Y4789D01*
X5115Y4780D01*
Y4775D01*
X5121Y4755D01*
X5131Y4736D01*
X5146Y4721D01*
X5165Y4711D01*
X5185Y4705D01*
X5207D01*
X5227Y4711D01*
X5246Y4721D01*
X5261Y4736D01*
X5271Y4755D01*
X5277Y4775D01*
Y4792D01*
X5286Y4799D01*
X5289Y4800D01*
X5295Y4797D01*
X5315Y4791D01*
X5337D01*
X5357Y4797D01*
X5376Y4807D01*
X5391Y4822D01*
X5401Y4841D01*
X5407Y4861D01*
Y4883D01*
X5401Y4903D01*
X5391Y4922D01*
X5376Y4937D01*
X5357Y4947D01*
X5337Y4953D01*
D02*
G37*
G36*
X3543Y4951D02*
X3521D01*
X3501Y4945D01*
X3482Y4935D01*
X3467Y4920D01*
X3457Y4901D01*
X3451Y4881D01*
Y4859D01*
X3457Y4839D01*
X3467Y4820D01*
X3482Y4805D01*
X3501Y4795D01*
X3521Y4789D01*
X3543D01*
X3563Y4795D01*
X3582Y4805D01*
X3597Y4820D01*
X3607Y4839D01*
X3613Y4859D01*
Y4881D01*
X3607Y4901D01*
X3597Y4920D01*
X3582Y4935D01*
X3563Y4945D01*
X3543Y4951D01*
D02*
G37*
G36*
X4832Y4867D02*
X4811D01*
X4790Y4861D01*
X4772Y4851D01*
X4757Y4836D01*
X4746Y4817D01*
X4741Y4797D01*
Y4775D01*
X4746Y4755D01*
X4757Y4736D01*
X4772Y4721D01*
X4790Y4711D01*
X4811Y4705D01*
X4832D01*
X4853Y4711D01*
X4871Y4721D01*
X4886Y4736D01*
X4897Y4755D01*
X4902Y4775D01*
Y4797D01*
X4897Y4817D01*
X4886Y4836D01*
X4871Y4851D01*
X4853Y4861D01*
X4832Y4867D01*
D02*
G37*
G36*
X3831Y4755D02*
X3809D01*
X3789Y4749D01*
X3770Y4739D01*
X3755Y4724D01*
X3745Y4705D01*
X3739Y4685D01*
Y4663D01*
X3745Y4643D01*
X3755Y4624D01*
X3770Y4609D01*
X3789Y4599D01*
X3809Y4593D01*
X3831D01*
X3851Y4599D01*
X3870Y4609D01*
X3885Y4624D01*
X3895Y4643D01*
X3901Y4663D01*
Y4685D01*
X3895Y4705D01*
X3885Y4724D01*
X3870Y4739D01*
X3851Y4749D01*
X3831Y4755D01*
D02*
G37*
G36*
X5353Y4747D02*
X5331D01*
X5311Y4741D01*
X5292Y4731D01*
X5277Y4716D01*
X5267Y4697D01*
X5261Y4677D01*
Y4655D01*
X5267Y4635D01*
X5277Y4616D01*
X5292Y4601D01*
X5311Y4591D01*
X5331Y4585D01*
X5353D01*
X5373Y4591D01*
X5392Y4601D01*
X5407Y4616D01*
X5417Y4635D01*
X5423Y4655D01*
Y4677D01*
X5417Y4697D01*
X5407Y4716D01*
X5392Y4731D01*
X5373Y4741D01*
X5353Y4747D01*
D02*
G37*
G36*
X3261Y4745D02*
X3239D01*
X3219Y4739D01*
X3200Y4729D01*
X3185Y4714D01*
X3175Y4695D01*
X3169Y4675D01*
Y4653D01*
X3175Y4633D01*
X3185Y4614D01*
X3200Y4599D01*
X3219Y4589D01*
X3239Y4583D01*
X3261D01*
X3281Y4589D01*
X3300Y4599D01*
X3315Y4614D01*
X3325Y4633D01*
X3331Y4653D01*
Y4675D01*
X3325Y4695D01*
X3315Y4714D01*
X3300Y4729D01*
X3281Y4739D01*
X3261Y4745D01*
D02*
G37*
G36*
X4079Y4587D02*
X4057D01*
X4037Y4581D01*
X4018Y4571D01*
X4003Y4556D01*
X3993Y4537D01*
X3987Y4517D01*
Y4495D01*
X3993Y4475D01*
X4003Y4456D01*
X4018Y4441D01*
X4037Y4431D01*
X4057Y4425D01*
X4079D01*
X4099Y4431D01*
X4118Y4441D01*
X4133Y4456D01*
X4143Y4475D01*
X4149Y4495D01*
Y4517D01*
X4143Y4537D01*
X4133Y4556D01*
X4118Y4571D01*
X4099Y4581D01*
X4079Y4587D01*
D02*
G37*
G36*
X5596Y4585D02*
X5575D01*
X5555Y4579D01*
X5536Y4569D01*
X5521Y4554D01*
X5511Y4535D01*
X5505Y4515D01*
Y4493D01*
X5511Y4473D01*
X5521Y4454D01*
X5536Y4439D01*
X5555Y4429D01*
X5575Y4423D01*
X5596D01*
X5617Y4429D01*
X5635Y4439D01*
X5650Y4454D01*
X5661Y4473D01*
X5667Y4493D01*
Y4515D01*
X5661Y4535D01*
X5650Y4554D01*
X5635Y4569D01*
X5617Y4579D01*
X5596Y4585D01*
D02*
G37*
G36*
X2997Y4463D02*
X2975D01*
X2955Y4457D01*
X2936Y4447D01*
X2921Y4432D01*
X2911Y4413D01*
X2905Y4393D01*
Y4371D01*
X2911Y4351D01*
X2921Y4332D01*
X2936Y4317D01*
X2955Y4307D01*
X2975Y4301D01*
X2997D01*
X3017Y4307D01*
X3036Y4317D01*
X3051Y4332D01*
X3061Y4351D01*
X3067Y4371D01*
Y4393D01*
X3061Y4413D01*
X3051Y4432D01*
X3036Y4447D01*
X3017Y4457D01*
X2997Y4463D01*
D02*
G37*
G36*
X4832Y5543D02*
X4811D01*
X4790Y5537D01*
X4772Y5527D01*
X4757Y5512D01*
X4746Y5493D01*
X4741Y5473D01*
Y5451D01*
X4744Y5437D01*
Y5261D01*
X4261Y4778D01*
X4249Y4762D01*
X4242Y4744D01*
X4239Y4724D01*
Y4156D01*
X4189Y4106D01*
X4132Y4162D01*
X3991D01*
X3935Y4106D01*
X3878Y4162D01*
X3737D01*
X3667Y4092D01*
Y3951D01*
X3737Y3881D01*
X3878D01*
X3935Y3937D01*
X3985Y3887D01*
Y3813D01*
X3935Y3763D01*
X3878Y3819D01*
X3737D01*
X3667Y3749D01*
Y3608D01*
X3737Y3538D01*
X3878D01*
X3935Y3594D01*
X3985Y3544D01*
Y3252D01*
X3204Y2471D01*
X2861D01*
Y2695D01*
X2875D01*
X2896Y2701D01*
X2914Y2711D01*
X2929Y2726D01*
X2940Y2745D01*
X2946Y2765D01*
Y2787D01*
X2940Y2807D01*
X2929Y2826D01*
X2914Y2841D01*
X2896Y2851D01*
X2875Y2857D01*
X2861D01*
Y5397D01*
X2865Y5414D01*
Y5435D01*
X2860Y5456D01*
X2849Y5474D01*
X2834Y5489D01*
X2816Y5500D01*
X2795Y5505D01*
X2774D01*
X2753Y5500D01*
X2735Y5489D01*
X2720Y5474D01*
X2709Y5456D01*
X2704Y5435D01*
Y5414D01*
X2707Y5401D01*
Y4780D01*
X2703Y4777D01*
X2681D01*
X2661Y4771D01*
X2656Y4769D01*
X2648Y4773D01*
X2645Y4777D01*
Y4797D01*
X2639Y4817D01*
X2629Y4836D01*
X2614Y4851D01*
X2595Y4861D01*
X2575Y4867D01*
X2553D01*
X2533Y4861D01*
X2514Y4851D01*
X2499Y4836D01*
X2489Y4817D01*
X2483Y4797D01*
Y4775D01*
X2489Y4755D01*
X2499Y4736D01*
X2514Y4721D01*
X2533Y4711D01*
X2553Y4705D01*
X2575D01*
X2595Y4711D01*
X2600Y4713D01*
X2608Y4709D01*
X2611Y4705D01*
Y4685D01*
X2617Y4665D01*
X2627Y4646D01*
X2642Y4631D01*
X2661Y4621D01*
X2681Y4615D01*
X2703D01*
X2707Y4612D01*
Y3249D01*
X2697Y3242D01*
X2693Y3243D01*
X2671D01*
X2651Y3237D01*
X2632Y3227D01*
X2617Y3212D01*
X2607Y3193D01*
X2601Y3173D01*
Y3151D01*
X2607Y3131D01*
X2617Y3112D01*
X2632Y3097D01*
X2651Y3087D01*
X2671Y3081D01*
X2693D01*
X2697Y3082D01*
X2707Y3075D01*
Y2419D01*
X2703Y2405D01*
Y2383D01*
X2707Y2369D01*
Y2049D01*
X2703Y2035D01*
Y2013D01*
X2707Y1999D01*
Y1215D01*
X2703Y1201D01*
Y1179D01*
X2709Y1159D01*
X2719Y1140D01*
X2734Y1125D01*
X2753Y1115D01*
X2773Y1109D01*
X2795D01*
X2815Y1115D01*
X2834Y1125D01*
X2849Y1140D01*
X2859Y1159D01*
X2865Y1179D01*
Y1201D01*
X2861Y1215D01*
Y1999D01*
X2865Y2013D01*
Y2035D01*
X2861Y2049D01*
Y2317D01*
X3236D01*
X3256Y2320D01*
X3274Y2327D01*
X3290Y2340D01*
X4116Y3165D01*
X4128Y3181D01*
X4136Y3200D01*
X4139Y3220D01*
Y3544D01*
X4189Y3594D01*
X4239Y3544D01*
Y3508D01*
X4242Y3488D01*
X4249Y3470D01*
X4261Y3454D01*
X5345Y2370D01*
Y2017D01*
X5341Y2003D01*
Y1981D01*
X5345Y1967D01*
Y1189D01*
X5341Y1175D01*
Y1153D01*
X5347Y1133D01*
X5357Y1114D01*
X5372Y1099D01*
X5391Y1089D01*
X5411Y1083D01*
X5433D01*
X5435Y1081D01*
Y841D01*
X5297Y703D01*
X5293D01*
X5273Y697D01*
X5254Y687D01*
X5239Y672D01*
X5229Y653D01*
X5223Y633D01*
Y611D01*
X5229Y591D01*
X5239Y572D01*
X5254Y557D01*
X5270Y548D01*
X5266Y536D01*
X1694D01*
Y3026D01*
X1690Y3046D01*
X1679Y3063D01*
X1662Y3074D01*
X1642Y3078D01*
X1424D01*
X1404Y3074D01*
X1387Y3063D01*
X1376Y3046D01*
X1372Y3026D01*
Y2116D01*
Y2020D01*
X1373Y2017D01*
X1373Y2014D01*
X1375Y2007D01*
X1376Y2001D01*
X1378Y1998D01*
X1379Y1994D01*
X1381Y1991D01*
X1383Y1984D01*
Y1976D01*
X1381Y1969D01*
X1379Y1966D01*
X1378Y1962D01*
X1376Y1959D01*
X1375Y1953D01*
X1373Y1946D01*
X1373Y1943D01*
X1372Y1940D01*
Y1649D01*
X1374Y1642D01*
X1374Y1635D01*
X1377Y1624D01*
Y1616D01*
X1374Y1605D01*
X1374Y1598D01*
X1372Y1591D01*
Y281D01*
X1376Y261D01*
X1387Y244D01*
X1404Y233D01*
X1424Y229D01*
X6586D01*
X6593Y219D01*
X6591Y211D01*
Y189D01*
X6597Y169D01*
X6607Y150D01*
X6622Y135D01*
X6641Y125D01*
X6661Y119D01*
X6683D01*
X6703Y125D01*
X6722Y135D01*
X6737Y150D01*
X6747Y169D01*
X6753Y189D01*
Y211D01*
X6751Y219D01*
X6758Y229D01*
X6855D01*
X6857Y229D01*
X6858Y229D01*
X6867Y231D01*
X6875Y233D01*
X6876Y234D01*
X6878Y234D01*
X6888Y239D01*
X6890Y240D01*
X6905Y240D01*
X6940Y205D01*
X6981Y178D01*
X7027Y159D01*
X7075Y149D01*
X7125D01*
X7173Y159D01*
X7219Y178D01*
X7260Y205D01*
X7295Y240D01*
X7322Y281D01*
X7341Y327D01*
X7351Y375D01*
Y425D01*
X7341Y473D01*
X7322Y519D01*
X7295Y560D01*
X7260Y595D01*
X7219Y622D01*
X7173Y641D01*
X7125Y651D01*
X7075D01*
X7027Y641D01*
X6981Y622D01*
X6940Y595D01*
X6930Y584D01*
X6918Y589D01*
Y796D01*
X7147D01*
X7167Y800D01*
X7184Y811D01*
X7184Y811D01*
X7195Y828D01*
X7200Y840D01*
X7200Y840D01*
X7204Y860D01*
Y860D01*
X7204Y861D01*
Y1032D01*
X7200Y1052D01*
X7189Y1069D01*
X7172Y1080D01*
X7152Y1084D01*
X6644D01*
X6624Y1080D01*
X6607Y1069D01*
X6595Y1057D01*
X6584Y1040D01*
X6580Y1020D01*
Y536D01*
X5342D01*
X5338Y548D01*
X5354Y557D01*
X5369Y572D01*
X5379Y591D01*
X5383Y606D01*
X5546Y768D01*
X5560Y789D01*
X5565Y814D01*
Y2796D01*
X5575Y2804D01*
X5577Y2803D01*
X5599D01*
X5619Y2809D01*
X5638Y2819D01*
X5653Y2834D01*
X5663Y2853D01*
X5669Y2873D01*
Y2895D01*
X5669Y2895D01*
X6001D01*
X6015Y2891D01*
X6037D01*
X6057Y2897D01*
X6076Y2907D01*
X6091Y2922D01*
X6098Y2936D01*
X6196Y3033D01*
X6563Y2666D01*
X6565Y2657D01*
X6576Y2638D01*
X6591Y2623D01*
X6609Y2613D01*
X6630Y2607D01*
X6651D01*
X6672Y2613D01*
X6690Y2623D01*
X6979D01*
X6997Y2613D01*
X7017Y2607D01*
X7039D01*
X7059Y2613D01*
X7078Y2623D01*
X7093Y2638D01*
X7103Y2657D01*
X7109Y2677D01*
Y2699D01*
X7103Y2719D01*
X7093Y2738D01*
X7078Y2753D01*
X7059Y2763D01*
X7039Y2769D01*
X7017D01*
X6997Y2763D01*
X6979Y2753D01*
X6809D01*
X6806Y2765D01*
X6830Y2779D01*
X6855Y2804D01*
X6872Y2835D01*
X6881Y2868D01*
Y2904D01*
X6872Y2937D01*
X6855Y2968D01*
X6830Y2993D01*
X6811Y3004D01*
Y3018D01*
X6830Y3029D01*
X6855Y3054D01*
X6872Y3085D01*
X6881Y3118D01*
Y3154D01*
X6872Y3187D01*
X6855Y3218D01*
X6830Y3243D01*
X6811Y3254D01*
Y3268D01*
X6830Y3279D01*
X6855Y3304D01*
X6872Y3335D01*
X6881Y3368D01*
Y3404D01*
X6872Y3437D01*
X6855Y3468D01*
X6830Y3493D01*
X6811Y3504D01*
Y3518D01*
X6830Y3529D01*
X6855Y3554D01*
X6872Y3585D01*
X6881Y3618D01*
Y3654D01*
X6872Y3687D01*
X6855Y3718D01*
X6830Y3743D01*
X6811Y3754D01*
Y3768D01*
X6830Y3779D01*
X6855Y3804D01*
X6872Y3835D01*
X6881Y3868D01*
Y3904D01*
X6872Y3937D01*
X6855Y3968D01*
X6830Y3993D01*
X6811Y4004D01*
Y4018D01*
X6830Y4029D01*
X6855Y4054D01*
X6872Y4085D01*
X6881Y4118D01*
Y4154D01*
X6872Y4187D01*
X6855Y4218D01*
X6830Y4243D01*
X6811Y4254D01*
Y4268D01*
X6830Y4279D01*
X6855Y4304D01*
X6872Y4335D01*
X6881Y4368D01*
Y4404D01*
X6872Y4437D01*
X6855Y4468D01*
X6830Y4493D01*
X6811Y4504D01*
Y4518D01*
X6830Y4529D01*
X6855Y4554D01*
X6872Y4585D01*
X6881Y4618D01*
Y4654D01*
X6872Y4687D01*
X6855Y4718D01*
X6830Y4743D01*
X6799Y4760D01*
X6766Y4769D01*
X6730D01*
X6697Y4760D01*
X6666Y4743D01*
X6641Y4718D01*
X6624Y4687D01*
X6615Y4654D01*
Y4618D01*
X6624Y4585D01*
X6641Y4554D01*
X6666Y4529D01*
X6685Y4518D01*
Y4504D01*
X6666Y4493D01*
X6641Y4468D01*
X6624Y4437D01*
X6615Y4404D01*
Y4368D01*
X6624Y4335D01*
X6641Y4304D01*
X6666Y4279D01*
X6685Y4268D01*
Y4254D01*
X6666Y4243D01*
X6641Y4218D01*
X6624Y4187D01*
X6615Y4154D01*
Y4118D01*
X6624Y4085D01*
X6641Y4054D01*
X6666Y4029D01*
X6685Y4018D01*
Y4004D01*
X6666Y3993D01*
X6641Y3968D01*
X6624Y3937D01*
X6615Y3904D01*
Y3868D01*
X6624Y3835D01*
X6641Y3804D01*
X6666Y3779D01*
X6685Y3768D01*
Y3754D01*
X6666Y3743D01*
X6641Y3718D01*
X6624Y3687D01*
X6615Y3654D01*
Y3618D01*
X6624Y3585D01*
X6641Y3554D01*
X6666Y3529D01*
X6685Y3518D01*
Y3504D01*
X6666Y3493D01*
X6641Y3468D01*
X6624Y3437D01*
X6615Y3404D01*
Y3368D01*
X6624Y3335D01*
X6641Y3304D01*
X6666Y3279D01*
X6685Y3268D01*
Y3254D01*
X6666Y3243D01*
X6641Y3218D01*
X6624Y3187D01*
X6615Y3154D01*
Y3118D01*
X6624Y3085D01*
X6641Y3054D01*
X6666Y3029D01*
X6685Y3018D01*
Y3004D01*
X6666Y2993D01*
X6641Y2968D01*
X6624Y2937D01*
X6615Y2904D01*
Y2868D01*
X6624Y2835D01*
X6641Y2804D01*
X6666Y2779D01*
X6671Y2777D01*
X6666Y2765D01*
X6651Y2769D01*
X6643D01*
X6287Y3124D01*
X6532Y3370D01*
X6545Y3386D01*
X6552Y3404D01*
X6555Y3424D01*
Y5423D01*
X6559Y5437D01*
Y5459D01*
X6553Y5479D01*
X6543Y5498D01*
X6528Y5513D01*
X6509Y5523D01*
X6489Y5529D01*
X6467D01*
X6447Y5523D01*
X6428Y5513D01*
X6413Y5498D01*
X6403Y5479D01*
X6397Y5459D01*
Y5437D01*
X6401Y5423D01*
Y3756D01*
X6388Y3753D01*
X6385Y3760D01*
X6370Y3775D01*
X6351Y3785D01*
X6331Y3791D01*
X6309D01*
X6289Y3785D01*
X6270Y3775D01*
X6255Y3760D01*
X6245Y3741D01*
X6239Y3721D01*
Y3699D01*
X6245Y3679D01*
X6255Y3660D01*
X6270Y3645D01*
X6289Y3635D01*
X6309Y3629D01*
X6331D01*
X6351Y3635D01*
X6370Y3645D01*
X6385Y3660D01*
X6388Y3667D01*
X6401Y3664D01*
Y3456D01*
X6139Y3194D01*
X6132Y3189D01*
X6122Y3194D01*
X6114Y3203D01*
X6095Y3213D01*
X6075Y3219D01*
X6053D01*
X6033Y3213D01*
X6014Y3203D01*
X5999Y3188D01*
X5989Y3169D01*
X5983Y3149D01*
Y3127D01*
X5989Y3107D01*
X5999Y3088D01*
X6008Y3080D01*
X6008Y3063D01*
X5994Y3049D01*
X5355D01*
X5353Y3062D01*
X5365Y3065D01*
X5384Y3075D01*
X5399Y3090D01*
X5409Y3109D01*
X5415Y3129D01*
Y3151D01*
X5409Y3171D01*
X5399Y3190D01*
X5384Y3205D01*
X5365Y3215D01*
X5345Y3221D01*
X5323D01*
X5303Y3215D01*
X5284Y3205D01*
X5269Y3190D01*
X5259Y3171D01*
X5253Y3151D01*
Y3129D01*
X5256Y3119D01*
X5245Y3112D01*
X5063Y3294D01*
X5069Y3305D01*
X5070Y3305D01*
X5091D01*
X5111Y3311D01*
X5130Y3321D01*
X5145Y3336D01*
X5155Y3355D01*
X5161Y3375D01*
Y3397D01*
X5155Y3417D01*
X5145Y3436D01*
X5130Y3451D01*
X5111Y3461D01*
X5091Y3467D01*
X5069D01*
X5049Y3461D01*
X5030Y3451D01*
X5018Y3439D01*
X5007Y3445D01*
X5011Y3459D01*
Y3481D01*
X5005Y3501D01*
X4995Y3520D01*
X4980Y3535D01*
X4961Y3545D01*
X4941Y3551D01*
X4925D01*
X4920Y3563D01*
X4951Y3594D01*
X5007Y3538D01*
X5148D01*
X5205Y3594D01*
X5261Y3538D01*
X5402D01*
X5433Y3569D01*
X5445Y3564D01*
Y3538D01*
X5727D01*
Y3819D01*
X5445D01*
Y3793D01*
X5433Y3788D01*
X5402Y3819D01*
X5261D01*
X5205Y3763D01*
X5148Y3819D01*
X5007D01*
X4951Y3763D01*
X4894Y3819D01*
X4753D01*
X4697Y3763D01*
X4647Y3813D01*
Y3887D01*
X4697Y3937D01*
X4753Y3881D01*
X4894D01*
X4951Y3937D01*
X5007Y3881D01*
X5148D01*
X5205Y3937D01*
X5261Y3881D01*
X5402D01*
X5433Y3912D01*
X5445Y3907D01*
Y3881D01*
X5727D01*
Y4162D01*
X5445D01*
Y4136D01*
X5433Y4131D01*
X5402Y4162D01*
X5261D01*
X5205Y4106D01*
X5148Y4162D01*
X5007D01*
X4951Y4106D01*
X4894Y4162D01*
X4753D01*
X4697Y4106D01*
X4640Y4162D01*
X4499D01*
X4443Y4106D01*
X4393Y4156D01*
Y4692D01*
X4876Y5175D01*
X4888Y5191D01*
X4896Y5209D01*
X4898Y5229D01*
X4898Y5229D01*
Y5437D01*
X4902Y5451D01*
Y5473D01*
X4897Y5493D01*
X4886Y5512D01*
X4871Y5527D01*
X4853Y5537D01*
X4832Y5543D01*
D02*
G37*
G36*
X1685Y4087D02*
X1663D01*
X1643Y4081D01*
X1624Y4071D01*
X1609Y4056D01*
X1599Y4037D01*
X1593Y4017D01*
Y3995D01*
X1599Y3975D01*
X1609Y3956D01*
X1624Y3941D01*
X1643Y3931D01*
X1663Y3925D01*
X1685D01*
X1705Y3931D01*
X1724Y3941D01*
X1739Y3956D01*
X1749Y3975D01*
X1755Y3995D01*
Y4017D01*
X1749Y4037D01*
X1739Y4056D01*
X1724Y4071D01*
X1705Y4081D01*
X1685Y4087D01*
D02*
G37*
G36*
X3265Y3865D02*
X3243D01*
X3223Y3859D01*
X3204Y3849D01*
X3189Y3834D01*
X3179Y3815D01*
X3173Y3795D01*
Y3773D01*
X3179Y3753D01*
X3189Y3734D01*
X3204Y3719D01*
X3223Y3709D01*
X3243Y3703D01*
X3265D01*
X3285Y3709D01*
X3304Y3719D01*
X3319Y3734D01*
X3329Y3753D01*
X3335Y3773D01*
Y3795D01*
X3329Y3815D01*
X3319Y3834D01*
X3304Y3849D01*
X3285Y3859D01*
X3265Y3865D01*
D02*
G37*
G36*
X2177Y3861D02*
X2155D01*
X2135Y3855D01*
X2116Y3845D01*
X2101Y3830D01*
X2091Y3811D01*
X2085Y3791D01*
Y3769D01*
X2091Y3749D01*
X2101Y3730D01*
X2116Y3715D01*
X2135Y3705D01*
X2155Y3699D01*
X2177D01*
X2197Y3705D01*
X2216Y3715D01*
X2231Y3730D01*
X2241Y3749D01*
X2247Y3769D01*
Y3791D01*
X2241Y3811D01*
X2231Y3830D01*
X2216Y3845D01*
X2197Y3855D01*
X2177Y3861D01*
D02*
G37*
G36*
X5849Y3643D02*
X5827D01*
X5807Y3637D01*
X5788Y3627D01*
X5773Y3612D01*
X5763Y3593D01*
X5757Y3573D01*
Y3551D01*
X5763Y3531D01*
X5773Y3512D01*
X5788Y3497D01*
X5807Y3487D01*
X5827Y3481D01*
X5849D01*
X5869Y3487D01*
X5888Y3497D01*
X5903Y3512D01*
X5913Y3531D01*
X5919Y3551D01*
Y3573D01*
X5913Y3593D01*
X5903Y3612D01*
X5888Y3627D01*
X5869Y3637D01*
X5849Y3643D01*
D02*
G37*
G36*
X5961Y3465D02*
X5939D01*
X5919Y3459D01*
X5900Y3449D01*
X5885Y3434D01*
X5875Y3415D01*
X5869Y3395D01*
Y3373D01*
X5875Y3353D01*
X5885Y3334D01*
X5900Y3319D01*
X5919Y3309D01*
X5939Y3303D01*
X5961D01*
X5981Y3309D01*
X6000Y3319D01*
X6015Y3334D01*
X6025Y3353D01*
X6031Y3373D01*
Y3395D01*
X6025Y3415D01*
X6015Y3434D01*
X6000Y3449D01*
X5981Y3459D01*
X5961Y3465D01*
D02*
G37*
G36*
X1661Y3276D02*
X1639D01*
X1619Y3271D01*
X1600Y3260D01*
X1585Y3245D01*
X1575Y3227D01*
X1569Y3206D01*
Y3185D01*
X1575Y3164D01*
X1585Y3146D01*
X1600Y3131D01*
X1619Y3120D01*
X1639Y3115D01*
X1661D01*
X1681Y3120D01*
X1700Y3131D01*
X1715Y3146D01*
X1725Y3164D01*
X1731Y3185D01*
Y3206D01*
X1725Y3227D01*
X1715Y3245D01*
X1700Y3260D01*
X1681Y3271D01*
X1661Y3276D01*
D02*
G37*
G36*
X772Y5095D02*
X736D01*
X703Y5086D01*
X672Y5069D01*
X647Y5044D01*
X630Y5013D01*
X621Y4980D01*
Y4944D01*
X630Y4911D01*
X647Y4880D01*
X672Y4855D01*
X691Y4844D01*
Y4830D01*
X672Y4819D01*
X647Y4794D01*
X630Y4763D01*
X621Y4730D01*
Y4694D01*
X630Y4661D01*
X647Y4630D01*
X672Y4605D01*
X691Y4594D01*
Y4580D01*
X672Y4569D01*
X647Y4544D01*
X630Y4513D01*
X621Y4480D01*
Y4444D01*
X630Y4411D01*
X647Y4380D01*
X672Y4355D01*
X691Y4344D01*
Y4330D01*
X672Y4319D01*
X647Y4294D01*
X630Y4263D01*
X621Y4230D01*
Y4194D01*
X630Y4161D01*
X647Y4130D01*
X672Y4105D01*
X691Y4094D01*
Y4080D01*
X672Y4069D01*
X647Y4044D01*
X630Y4013D01*
X621Y3980D01*
Y3944D01*
X630Y3911D01*
X647Y3880D01*
X672Y3855D01*
X691Y3844D01*
Y3830D01*
X672Y3819D01*
X647Y3794D01*
X630Y3763D01*
X621Y3730D01*
Y3694D01*
X630Y3661D01*
X647Y3630D01*
X672Y3605D01*
X691Y3594D01*
Y3580D01*
X672Y3569D01*
X647Y3544D01*
X630Y3513D01*
X621Y3480D01*
Y3444D01*
X630Y3411D01*
X647Y3380D01*
X672Y3355D01*
X691Y3344D01*
Y3330D01*
X672Y3319D01*
X647Y3294D01*
X630Y3263D01*
X621Y3230D01*
Y3194D01*
X630Y3161D01*
X647Y3130D01*
X672Y3105D01*
X703Y3088D01*
X736Y3079D01*
X772D01*
X805Y3088D01*
X836Y3105D01*
X852Y3122D01*
X865Y3117D01*
Y3109D01*
X871Y3089D01*
X878Y3076D01*
X871Y3064D01*
X757D01*
X757Y3064D01*
X757Y3064D01*
X747Y3062D01*
X737Y3060D01*
X737Y3060D01*
X737Y3060D01*
X728Y3054D01*
X720Y3049D01*
X720Y3049D01*
X720Y3048D01*
X711Y3039D01*
X711Y3039D01*
X711Y3039D01*
X705Y3031D01*
X700Y3023D01*
X700Y3022D01*
X700Y3022D01*
X698Y3013D01*
X696Y3003D01*
X696Y3003D01*
X696Y3003D01*
X703Y2224D01*
X705Y2214D01*
X707Y2204D01*
X707Y2204D01*
X707Y2204D01*
X712Y2196D01*
X718Y2187D01*
X718Y2187D01*
X718Y2187D01*
X726Y2182D01*
X735Y2176D01*
X735Y2176D01*
X735Y2176D01*
X745Y2174D01*
X754Y2172D01*
X928D01*
X948Y2176D01*
X965Y2187D01*
X976Y2204D01*
X980Y2224D01*
Y2261D01*
Y3012D01*
X976Y3032D01*
X975Y3033D01*
X981Y3047D01*
X996Y3055D01*
X1011Y3070D01*
X1021Y3089D01*
X1027Y3109D01*
Y3114D01*
X1033D01*
X1054Y3120D01*
X1072Y3131D01*
X1087Y3146D01*
X1098Y3164D01*
X1103Y3185D01*
Y3193D01*
X1121D01*
X1141Y3199D01*
X1160Y3209D01*
X1175Y3224D01*
X1185Y3243D01*
X1191Y3263D01*
Y3285D01*
X1185Y3305D01*
X1175Y3324D01*
X1160Y3339D01*
X1141Y3349D01*
X1121Y3355D01*
X1099D01*
X1079Y3349D01*
X1060Y3339D01*
X1045Y3324D01*
X1035Y3305D01*
X1029Y3285D01*
Y3276D01*
X1012D01*
X991Y3271D01*
X973Y3260D01*
X958Y3245D01*
X947Y3226D01*
X942Y3206D01*
Y3201D01*
X935D01*
X915Y3195D01*
X898Y3186D01*
X893Y3188D01*
X887Y3193D01*
X887Y3194D01*
Y3230D01*
X878Y3263D01*
X861Y3294D01*
X836Y3319D01*
X817Y3330D01*
Y3344D01*
X836Y3355D01*
X861Y3380D01*
X878Y3411D01*
X887Y3444D01*
Y3480D01*
X878Y3513D01*
X861Y3544D01*
X836Y3569D01*
X817Y3580D01*
Y3594D01*
X836Y3605D01*
X861Y3630D01*
X878Y3661D01*
X887Y3694D01*
Y3730D01*
X878Y3763D01*
X861Y3794D01*
X836Y3819D01*
X817Y3830D01*
Y3844D01*
X836Y3855D01*
X861Y3880D01*
X878Y3911D01*
X887Y3944D01*
Y3980D01*
X878Y4013D01*
X861Y4044D01*
X836Y4069D01*
X817Y4080D01*
Y4094D01*
X836Y4105D01*
X861Y4130D01*
X878Y4161D01*
X887Y4194D01*
Y4230D01*
X878Y4263D01*
X861Y4294D01*
X836Y4319D01*
X817Y4330D01*
Y4344D01*
X836Y4355D01*
X861Y4380D01*
X878Y4411D01*
X887Y4444D01*
Y4480D01*
X878Y4513D01*
X861Y4544D01*
X836Y4569D01*
X817Y4580D01*
Y4594D01*
X836Y4605D01*
X861Y4630D01*
X878Y4661D01*
X887Y4694D01*
Y4730D01*
X878Y4763D01*
X861Y4794D01*
X836Y4819D01*
X817Y4830D01*
Y4844D01*
X836Y4855D01*
X861Y4880D01*
X878Y4911D01*
X887Y4944D01*
Y4980D01*
X878Y5013D01*
X861Y5044D01*
X836Y5069D01*
X805Y5086D01*
X772Y5095D01*
D02*
G37*
G36*
X262Y2181D02*
X240D01*
X220Y2175D01*
X201Y2165D01*
X186Y2150D01*
X176Y2131D01*
X170Y2111D01*
Y2089D01*
X176Y2069D01*
X186Y2050D01*
X201Y2035D01*
X220Y2025D01*
X240Y2019D01*
X262D01*
X282Y2025D01*
X301Y2035D01*
X316Y2050D01*
X326Y2069D01*
X332Y2089D01*
Y2111D01*
X326Y2131D01*
X316Y2150D01*
X301Y2165D01*
X282Y2175D01*
X262Y2181D01*
D02*
G37*
G36*
X3025Y2045D02*
X3003D01*
X2983Y2040D01*
X2964Y2029D01*
X2949Y2014D01*
X2939Y1996D01*
X2933Y1975D01*
Y1954D01*
X2939Y1933D01*
X2949Y1915D01*
X2964Y1900D01*
X2983Y1889D01*
X3003Y1884D01*
X3025D01*
X3045Y1889D01*
X3064Y1900D01*
X3079Y1915D01*
X3089Y1933D01*
X3095Y1954D01*
Y1975D01*
X3089Y1996D01*
X3079Y2014D01*
X3064Y2029D01*
X3045Y2040D01*
X3025Y2045D01*
D02*
G37*
G36*
X429Y651D02*
X379D01*
X331Y641D01*
X285Y622D01*
X244Y595D01*
X209Y560D01*
X182Y519D01*
X163Y473D01*
X153Y425D01*
Y375D01*
X163Y327D01*
X182Y281D01*
X209Y240D01*
X244Y205D01*
X285Y178D01*
X331Y159D01*
X379Y149D01*
X429D01*
X477Y159D01*
X523Y178D01*
X564Y205D01*
X599Y240D01*
X626Y281D01*
X645Y327D01*
X655Y375D01*
Y425D01*
X645Y473D01*
X626Y519D01*
X599Y560D01*
X564Y595D01*
X523Y622D01*
X477Y641D01*
X429Y651D01*
D02*
G37*
%LPD*%
G36*
X1642Y484D02*
X6632D01*
Y1020D01*
X6644Y1032D01*
X7152D01*
Y860D01*
X7152Y860D01*
X7147Y848D01*
X6866D01*
Y490D01*
X6859Y473D01*
X6849Y425D01*
Y375D01*
X6859Y327D01*
X6866Y310D01*
Y286D01*
X6855Y281D01*
X1424D01*
Y1591D01*
X1429Y1609D01*
Y1631D01*
X1424Y1649D01*
Y1940D01*
X1429Y1949D01*
X1435Y1969D01*
Y1991D01*
X1429Y2011D01*
X1424Y2020D01*
Y2116D01*
Y3026D01*
X1642D01*
Y484D01*
D02*
G37*
G36*
X928Y2261D02*
Y2224D01*
X754D01*
X748Y3003D01*
X757Y3012D01*
X928D01*
Y2261D01*
D02*
G37*
D13*
X5500Y814D02*
Y2972D01*
X5308Y622D02*
X5500Y814D01*
X6188Y3132D02*
Y3134D01*
Y3132D02*
X6632Y2688D01*
X6640D01*
X7028D01*
D58*
X2784Y5424D02*
X2784Y5424D01*
X2784Y2394D02*
Y5424D01*
X6026Y2972D02*
X6188Y3134D01*
X5500Y2972D02*
X6026D01*
X5276D02*
X5500D01*
X4062Y3678D02*
Y4021D01*
Y3220D02*
Y3678D01*
X3236Y2394D02*
X4062Y3220D01*
X2784Y2394D02*
X3236D01*
X4570Y3678D02*
Y4021D01*
Y3678D02*
X5276Y2972D01*
X4821Y5229D02*
Y5462D01*
X4316Y4724D02*
X4821Y5229D01*
X4316Y4021D02*
Y4724D01*
Y3678D02*
Y4021D01*
Y3508D02*
Y3678D01*
Y3508D02*
X5422Y2402D01*
Y1992D02*
Y2402D01*
Y1164D02*
Y1992D01*
X6188Y3134D02*
X6478Y3424D01*
Y5448D01*
X2784Y2024D02*
Y2394D01*
Y1190D02*
Y2024D01*
D62*
X4062Y3678D02*
D03*
X4316D02*
D03*
X4570D02*
D03*
Y4021D02*
D03*
X4316D02*
D03*
X4062D02*
D03*
D68*
X1744Y2020D02*
D03*
X6288Y979D02*
D03*
X2564Y4007D02*
D03*
X3558Y4168D02*
D03*
X3850Y1856D02*
D03*
X4414Y1990D02*
D03*
X372Y1034D02*
D03*
X2261Y3293D02*
D03*
X2556Y3163D02*
D03*
X374Y4664D02*
D03*
X7132Y4752D02*
D03*
X7306Y1062D02*
D03*
X6282Y570D02*
D03*
X6622Y5402D02*
D03*
X5698Y5406D02*
D03*
X4448Y5404D02*
D03*
X3204Y5408D02*
D03*
X1999D02*
D03*
X2324Y5374D02*
D03*
X3344Y4168D02*
D03*
X2260Y4154D02*
D03*
X3344Y3293D02*
D03*
X3650Y3156D02*
D03*
X2128Y2400D02*
D03*
X4912Y2396D02*
D03*
X6640Y2236D02*
D03*
X7032Y1554D02*
D03*
X6418Y1528D02*
D03*
X4016Y580D02*
D03*
X3996Y1078D02*
D03*
X738Y422D02*
D03*
X726Y766D02*
D03*
X3546Y3676D02*
D03*
X7030Y1814D02*
D03*
X6006Y863D02*
D03*
X5628Y1324D02*
D03*
X6318Y1263D02*
D03*
X6678Y1560D02*
D03*
X3428Y1376D02*
D03*
X3780Y1212D02*
D03*
X4008Y804D02*
D03*
X2944Y1024D02*
D03*
X1047Y1254D02*
D03*
X618Y1576D02*
D03*
X1016Y1846D02*
D03*
X726Y1050D02*
D03*
X268Y1380D02*
D03*
X1890Y4798D02*
D03*
X596Y3034D02*
D03*
X1348Y1620D02*
D03*
X310Y2624D02*
D03*
X1354Y1980D02*
D03*
X6026Y2972D02*
D03*
X5304Y622D02*
D03*
X4821Y5462D02*
D03*
X7026Y968D02*
D03*
X6672Y968D02*
D03*
X1530Y766D02*
D03*
Y422D02*
D03*
X844Y2272D02*
D03*
X3428Y434D02*
D03*
X846Y2958D02*
D03*
X840Y2720D02*
D03*
X841Y2488D02*
D03*
X1522Y2490D02*
D03*
X1530Y2724D02*
D03*
Y2962D02*
D03*
X6640Y2688D02*
D03*
X7028D02*
D03*
X6478Y5448D02*
D03*
X5422Y2402D02*
D03*
Y1992D02*
D03*
Y1164D02*
D03*
X2784Y2394D02*
D03*
Y2024D02*
D03*
X2784Y5424D02*
D03*
X2784Y1190D02*
D03*
M02*
