M48
;Layer_Color=9474304
;FILE_FORMAT=4:2
METRIC,LZ
;TYPE=PLATED
T1F00S00C0.30
T2F00S00C1.00
T3F00S00C1.10
T4F00S00C2.60
%
T01
X000738Y000422
X000726Y000766
Y00105
X000372Y001034
X000268Y00138
X001047Y001254
X00153Y000766
Y000422
X003428Y000434
X004016Y00058
X004008Y000804
X003996Y001078
X00378Y001212
X003428Y001376
X002784Y00119
X002944Y001024
X005304Y000622
X005422Y001164
X005628Y001324
X006318Y001263
X006288Y000979
X006672Y000968
X007026Y000968
X007306Y001062
X006672Y0002
X006282Y00057
X006006Y000863
X006418Y001528
X006678Y00156
X007032Y001554
X00703Y001814
X00664Y002236
Y002688
X007028
X006026Y002972
X006064Y003138
X00595Y003384
X005838Y003562
X00632Y00371
X005954Y00486
X005838Y004784
X005586Y004504
X005588Y002884
X005422Y002402
Y001992
X007132Y004752
X005342Y004666
X005326Y004872
X005196Y004786
X005084Y004868
X004821Y004786
X004068Y004506
X00382Y004674
X003532Y00487
X00325Y004664
X002986Y004382
X003344Y004168
X003558
X003546Y003676
X003254Y003784
X003344Y003293
X00365Y003156
X002682Y003162
X002556Y003163
X002261Y003293
X002166Y00378
X00226Y004154
X002564Y004007
X002564Y004786
X002692Y004696
X00189Y004798
X001674Y004006
X00165Y003196
X00153Y002962
Y002724
X001522Y00249
X001744Y00202
X002128Y0024
X002784Y002394
Y002024
X003014Y001965
X00385Y001856
X004414Y00199
X004912Y002396
X00493Y00347
X00508Y003386
X005334Y00314
X002865Y002776
X002324Y005374
X000374Y004664
X000596Y003034
X000846Y002958
X00084Y00272
X000841Y002488
X000844Y002272
X001016Y001846
X001354Y00198
X001348Y00162
X000618Y001576
X000251Y0021
X00031Y002624
X000946Y00312
X001023Y003195
X00111Y003274
X001999Y005408
X002784Y005424
X003204Y005408
X004448Y005404
X004821Y005462
X005698Y005406
X006478Y005448
X006622Y005402
T02
X005586Y003678
Y004021
X005332
X005078
X004824
X00457
X004316
X004062
X003808
Y003678
X004062
X004316
X00457
X004824
X005078
X005332
T03
X006748Y002886
Y003136
Y003386
Y003636
Y003886
Y004136
Y004386
Y004636
X001884Y00504
X001634
X001384
X001134
X000754Y004962
Y004712
Y004462
Y004212
Y003962
Y003712
Y003462
Y003212
T04
X000404Y0004
X0071
X000404Y005406
X0071
M30
