G04*
G04 #@! TF.GenerationSoftware,Altium Limited,Altium Designer,22.8.2 (66)*
G04*
G04 Layer_Physical_Order=1*
G04 Layer_Color=255*
%FSLAX42Y42*%
%MOMM*%
G71*
G04*
G04 #@! TF.SameCoordinates,0533CB18-9495-43A3-8B9C-2A5BF5C5928D*
G04*
G04*
G04 #@! TF.FilePolarity,Positive*
G04*
G01*
G75*
%ADD12C,0.15*%
%ADD13C,0.25*%
%ADD17R,1.50X2.15*%
%ADD18R,1.30X1.00*%
%ADD19R,0.71X0.91*%
G04:AMPARAMS|DCode=20|XSize=1.5mm|YSize=1.7mm|CornerRadius=0.08mm|HoleSize=0mm|Usage=FLASHONLY|Rotation=90.000|XOffset=0mm|YOffset=0mm|HoleType=Round|Shape=RoundedRectangle|*
%AMROUNDEDRECTD20*
21,1,1.50,1.55,0,0,90.0*
21,1,1.35,1.70,0,0,90.0*
1,1,0.15,0.78,0.68*
1,1,0.15,0.78,-0.68*
1,1,0.15,-0.78,-0.68*
1,1,0.15,-0.78,0.68*
%
%ADD20ROUNDEDRECTD20*%
%ADD21R,1.57X0.81*%
%ADD22R,0.91X0.71*%
%ADD23R,0.81X1.57*%
G04:AMPARAMS|DCode=24|XSize=1.1mm|YSize=1.25mm|CornerRadius=0.06mm|HoleSize=0mm|Usage=FLASHONLY|Rotation=270.000|XOffset=0mm|YOffset=0mm|HoleType=Round|Shape=RoundedRectangle|*
%AMROUNDEDRECTD24*
21,1,1.10,1.14,0,0,270.0*
21,1,0.99,1.25,0,0,270.0*
1,1,0.11,-0.57,-0.50*
1,1,0.11,-0.57,0.50*
1,1,0.11,0.57,0.50*
1,1,0.11,0.57,-0.50*
%
%ADD24ROUNDEDRECTD24*%
G04:AMPARAMS|DCode=25|XSize=1.2mm|YSize=1.82mm|CornerRadius=0.15mm|HoleSize=0mm|Usage=FLASHONLY|Rotation=180.000|XOffset=0mm|YOffset=0mm|HoleType=Round|Shape=RoundedRectangle|*
%AMROUNDEDRECTD25*
21,1,1.20,1.52,0,0,180.0*
21,1,0.90,1.82,0,0,180.0*
1,1,0.30,-0.45,0.76*
1,1,0.30,0.45,0.76*
1,1,0.30,0.45,-0.76*
1,1,0.30,-0.45,-0.76*
%
%ADD25ROUNDEDRECTD25*%
%ADD26R,3.50X3.50*%
%ADD27R,1.00X2.70*%
%ADD28R,0.85X0.85*%
%ADD29R,3.50X3.50*%
G04:AMPARAMS|DCode=30|XSize=2.7mm|YSize=1.1mm|CornerRadius=0.06mm|HoleSize=0mm|Usage=FLASHONLY|Rotation=180.000|XOffset=0mm|YOffset=0mm|HoleType=Round|Shape=RoundedRectangle|*
%AMROUNDEDRECTD30*
21,1,2.70,0.99,0,0,180.0*
21,1,2.59,1.10,0,0,180.0*
1,1,0.11,-1.30,0.50*
1,1,0.11,1.30,0.50*
1,1,0.11,1.30,-0.50*
1,1,0.11,-1.30,-0.50*
%
%ADD30ROUNDEDRECTD30*%
%ADD31R,0.71X0.23*%
%ADD32R,2.70X1.00*%
G04:AMPARAMS|DCode=33|XSize=2.7mm|YSize=1.1mm|CornerRadius=0.06mm|HoleSize=0mm|Usage=FLASHONLY|Rotation=90.000|XOffset=0mm|YOffset=0mm|HoleType=Round|Shape=RoundedRectangle|*
%AMROUNDEDRECTD33*
21,1,2.70,0.99,0,0,90.0*
21,1,2.59,1.10,0,0,90.0*
1,1,0.11,0.50,1.30*
1,1,0.11,0.50,-1.30*
1,1,0.11,-0.50,-1.30*
1,1,0.11,-0.50,1.30*
%
%ADD33ROUNDEDRECTD33*%
%ADD34R,0.23X0.71*%
%ADD58C,0.51*%
%ADD59C,1.02*%
%ADD60C,0.30*%
%ADD61C,0.20*%
%ADD62P,1.95X8X202.5*%
%ADD63R,1.80X1.80*%
%ADD64R,1.65X1.65*%
%ADD65C,1.65*%
%ADD66R,1.65X1.65*%
%ADD67C,4.00*%
%ADD68C,0.60*%
G36*
X7417Y81D02*
X79D01*
Y5721D01*
X2208D01*
Y5565D01*
X2008D01*
Y5248D01*
X2260D01*
Y5521D01*
X2440D01*
Y5721D01*
X2458D01*
Y5521D01*
X2493D01*
Y4825D01*
X2489Y4817D01*
X2483Y4797D01*
Y4775D01*
X2489Y4755D01*
X2493Y4747D01*
Y4689D01*
X2196D01*
X2176Y4686D01*
X2157Y4679D01*
X2141Y4666D01*
X2141Y4666D01*
X2112Y4637D01*
X2099Y4621D01*
X2092Y4602D01*
X2090Y4591D01*
X2072D01*
Y4404D01*
X2259D01*
Y4535D01*
X2540D01*
X2560Y4538D01*
X2579Y4545D01*
X2595Y4558D01*
X2615Y4578D01*
X2627Y4572D01*
Y4029D01*
X2632Y4005D01*
X2646Y3984D01*
X2675Y3955D01*
X2696Y3941D01*
X2721Y3936D01*
X2811D01*
Y3871D01*
X2994D01*
Y4130D01*
X2811D01*
Y4065D01*
X2757D01*
Y4647D01*
X2767Y4665D01*
X2773Y4685D01*
Y4707D01*
X2767Y4727D01*
X2757Y4746D01*
X2742Y4761D01*
X2723Y4771D01*
X2703Y4777D01*
X2681D01*
X2661Y4771D01*
X2658Y4770D01*
X2647Y4776D01*
Y5521D01*
X2690D01*
Y5721D01*
X2708D01*
Y5521D01*
X2711D01*
X2717Y5508D01*
X2710Y5492D01*
X2708Y5472D01*
Y5450D01*
X2704Y5435D01*
Y5414D01*
X2709Y5393D01*
X2720Y5375D01*
X2735Y5360D01*
X2753Y5349D01*
X2774Y5344D01*
X2795D01*
X2816Y5349D01*
X2834Y5360D01*
X2849Y5375D01*
X2860Y5393D01*
X2865Y5414D01*
Y5435D01*
X2863Y5443D01*
X2870Y5450D01*
X2875Y5456D01*
X2888Y5452D01*
Y5248D01*
X3140D01*
Y5565D01*
X2940D01*
Y5721D01*
X3457D01*
Y5565D01*
X3257D01*
Y5248D01*
X3499D01*
Y4947D01*
X3016D01*
X2996Y4944D01*
X2977Y4937D01*
X2961Y4924D01*
X2961Y4924D01*
X2932Y4895D01*
X2919Y4879D01*
X2912Y4860D01*
X2909Y4840D01*
Y4407D01*
X2905Y4393D01*
Y4371D01*
X2911Y4351D01*
X2921Y4332D01*
X2936Y4317D01*
X2955Y4307D01*
X2975Y4301D01*
X2997D01*
X3017Y4307D01*
X3036Y4317D01*
X3050Y4332D01*
X3052Y4332D01*
X3063Y4328D01*
Y4169D01*
X3087D01*
Y4142D01*
X3088Y4140D01*
X3080Y4130D01*
X3006D01*
Y3871D01*
X3189D01*
Y3936D01*
X3253D01*
X3253Y3872D01*
X3245Y3866D01*
X3243Y3865D01*
X3223Y3859D01*
X3204Y3849D01*
X3189Y3834D01*
X3179Y3815D01*
X3173Y3795D01*
Y3773D01*
X3174Y3769D01*
Y3729D01*
X3158D01*
Y3542D01*
X3345D01*
Y3729D01*
X3328D01*
Y3751D01*
X3329Y3753D01*
X3335Y3773D01*
Y3795D01*
X3329Y3815D01*
X3319Y3834D01*
X3304Y3849D01*
X3298Y3852D01*
X3294Y3869D01*
X3296Y3871D01*
X3436D01*
Y4130D01*
X3279D01*
X3278Y4138D01*
X3265Y4156D01*
X3269Y4169D01*
X3440D01*
Y4356D01*
X3253D01*
X3253Y4356D01*
X3250D01*
Y4356D01*
X3240Y4356D01*
X3076D01*
X3066Y4369D01*
X3067Y4371D01*
Y4393D01*
X3063Y4407D01*
Y4793D01*
X3507D01*
X3521Y4789D01*
X3543D01*
X3563Y4795D01*
X3565Y4796D01*
X3566Y4796D01*
X3585Y4803D01*
X3601Y4816D01*
X3630Y4845D01*
X3630Y4845D01*
X3643Y4861D01*
X3650Y4880D01*
X3653Y4900D01*
Y5521D01*
X3688D01*
Y5721D01*
X3707D01*
Y5521D01*
X3746D01*
Y4707D01*
X3745Y4705D01*
X3739Y4685D01*
Y4663D01*
X3745Y4643D01*
X3755Y4624D01*
X3770Y4609D01*
X3789Y4599D01*
X3809Y4593D01*
X3831D01*
X3851Y4599D01*
X3870Y4609D01*
X3885Y4624D01*
X3895Y4643D01*
X3901Y4663D01*
Y4685D01*
X3900Y4689D01*
Y5521D01*
X3938D01*
Y5721D01*
X3957D01*
Y5521D01*
X3991D01*
Y4531D01*
X3987Y4517D01*
Y4495D01*
X3993Y4475D01*
X4003Y4456D01*
X4018Y4441D01*
X4037Y4431D01*
X4057Y4425D01*
X4079D01*
X4099Y4431D01*
X4118Y4441D01*
X4133Y4456D01*
X4143Y4475D01*
X4149Y4495D01*
Y4517D01*
X4145Y4531D01*
Y5248D01*
X4388D01*
Y5565D01*
X4188D01*
Y5721D01*
X4706D01*
Y5565D01*
X4506D01*
Y5248D01*
X4757D01*
Y5395D01*
X4769Y5400D01*
X4772Y5397D01*
X4790Y5387D01*
X4811Y5381D01*
X4832D01*
X4853Y5387D01*
X4871Y5397D01*
X4886Y5412D01*
X4897Y5431D01*
X4902Y5451D01*
Y5473D01*
X4898Y5487D01*
Y5521D01*
X4937D01*
Y5721D01*
X4956D01*
Y5521D01*
X5007D01*
Y5047D01*
X5012Y5022D01*
X5026Y5001D01*
X5040Y4986D01*
X5061Y4972D01*
X5086Y4967D01*
X5123D01*
X5129Y4961D01*
Y4948D01*
X5118Y4942D01*
X5115Y4943D01*
X5095Y4949D01*
X5073D01*
X5053Y4943D01*
X5034Y4933D01*
X5019Y4918D01*
X5009Y4899D01*
X5005Y4885D01*
X5004Y4882D01*
X5001Y4862D01*
Y4156D01*
X4951Y4106D01*
X4901Y4156D01*
Y4770D01*
X4902Y4775D01*
Y4797D01*
X4897Y4817D01*
X4886Y4836D01*
X4871Y4851D01*
X4853Y4861D01*
X4832Y4867D01*
X4811D01*
X4790Y4861D01*
X4772Y4851D01*
X4757Y4836D01*
X4746Y4817D01*
X4741Y4797D01*
Y4775D01*
X4746Y4755D01*
X4747Y4753D01*
Y4156D01*
X4697Y4106D01*
X4640Y4162D01*
X4499D01*
X4443Y4106D01*
X4386Y4162D01*
X4245D01*
X4189Y4106D01*
X4132Y4162D01*
X3991D01*
X3935Y4106D01*
X3878Y4162D01*
X3737D01*
X3667Y4092D01*
Y3951D01*
X3737Y3881D01*
X3878D01*
X3935Y3937D01*
X3991Y3881D01*
X4132D01*
X4189Y3937D01*
X4245Y3881D01*
X4386D01*
X4443Y3937D01*
X4499Y3881D01*
X4640D01*
X4697Y3937D01*
X4753Y3881D01*
X4894D01*
X4951Y3937D01*
X5007Y3881D01*
X5148D01*
X5205Y3937D01*
X5261Y3881D01*
X5402D01*
X5433Y3912D01*
X5445Y3907D01*
Y3881D01*
X5727D01*
Y4162D01*
X5663D01*
Y4479D01*
X5667Y4493D01*
Y4515D01*
X5661Y4535D01*
X5650Y4554D01*
X5635Y4569D01*
X5617Y4579D01*
X5596Y4585D01*
X5575D01*
X5555Y4579D01*
X5536Y4569D01*
X5521Y4554D01*
X5511Y4535D01*
X5505Y4515D01*
Y4493D01*
X5509Y4479D01*
Y4162D01*
X5445D01*
Y4136D01*
X5433Y4131D01*
X5419Y4145D01*
Y4641D01*
X5423Y4655D01*
Y4677D01*
X5417Y4697D01*
X5407Y4716D01*
X5392Y4731D01*
X5373Y4741D01*
X5353Y4747D01*
X5331D01*
X5311Y4741D01*
X5292Y4731D01*
X5277Y4716D01*
X5267Y4697D01*
X5261Y4677D01*
Y4655D01*
X5265Y4641D01*
Y4162D01*
X5261D01*
X5205Y4106D01*
X5155Y4156D01*
Y4704D01*
X5167Y4710D01*
X5185Y4705D01*
X5207D01*
X5227Y4711D01*
X5246Y4721D01*
X5261Y4736D01*
X5271Y4755D01*
X5277Y4775D01*
Y4792D01*
X5286Y4799D01*
X5289Y4800D01*
X5295Y4797D01*
X5315Y4791D01*
X5337D01*
X5357Y4797D01*
X5376Y4807D01*
X5391Y4822D01*
X5401Y4841D01*
X5407Y4861D01*
Y4883D01*
X5401Y4903D01*
X5391Y4921D01*
Y5248D01*
X5637D01*
Y5565D01*
X5437D01*
Y5721D01*
X5954D01*
Y5565D01*
X5754D01*
Y5248D01*
X5999D01*
Y4940D01*
X5988Y4934D01*
X5985Y4935D01*
X5965Y4941D01*
X5943D01*
X5923Y4935D01*
X5904Y4925D01*
X5889Y4910D01*
X5879Y4891D01*
X5873Y4871D01*
X5860Y4862D01*
X5849Y4865D01*
X5827D01*
X5807Y4859D01*
X5788Y4849D01*
X5773Y4834D01*
X5763Y4815D01*
X5757Y4795D01*
Y4773D01*
X5763Y4753D01*
X5773Y4735D01*
Y3611D01*
X5763Y3593D01*
X5757Y3573D01*
Y3551D01*
X5763Y3531D01*
X5773Y3512D01*
X5788Y3497D01*
X5807Y3487D01*
X5827Y3481D01*
X5849D01*
X5869Y3487D01*
X5876Y3491D01*
X5887Y3484D01*
Y3436D01*
X5885Y3434D01*
X5875Y3415D01*
X5869Y3395D01*
Y3373D01*
X5875Y3353D01*
X5885Y3334D01*
X5900Y3319D01*
X5919Y3309D01*
X5939Y3303D01*
X5961D01*
X5981Y3309D01*
X5988Y3313D01*
X5999Y3306D01*
Y3187D01*
X5989Y3169D01*
X5983Y3149D01*
Y3127D01*
X5989Y3107D01*
X5999Y3088D01*
X6014Y3073D01*
X6028Y3066D01*
X6025Y3053D01*
X6015D01*
X5995Y3047D01*
X5976Y3037D01*
X5961Y3022D01*
X5951Y3003D01*
X5945Y2983D01*
Y2961D01*
X5949Y2947D01*
Y2909D01*
X5800D01*
Y2457D01*
X6252D01*
Y2909D01*
X6103D01*
Y2947D01*
X6107Y2961D01*
Y2983D01*
X6101Y3003D01*
X6091Y3022D01*
X6076Y3037D01*
X6062Y3044D01*
X6065Y3057D01*
X6075D01*
X6095Y3063D01*
X6114Y3073D01*
X6129Y3088D01*
X6139Y3107D01*
X6145Y3127D01*
Y3149D01*
X6139Y3169D01*
X6129Y3187D01*
Y5521D01*
X6186D01*
Y5721D01*
X6204D01*
Y5521D01*
X6255D01*
Y3759D01*
X6245Y3741D01*
X6239Y3721D01*
Y3699D01*
X6245Y3679D01*
X6255Y3660D01*
X6270Y3645D01*
X6289Y3635D01*
X6309Y3629D01*
X6331D01*
X6351Y3635D01*
X6370Y3645D01*
X6385Y3660D01*
X6395Y3679D01*
X6401Y3699D01*
Y3721D01*
X6395Y3741D01*
X6385Y3759D01*
Y5437D01*
X6397Y5437D01*
X6403Y5417D01*
X6413Y5398D01*
X6428Y5383D01*
X6447Y5373D01*
X6467Y5367D01*
X6489D01*
X6503Y5371D01*
X6538D01*
X6558Y5374D01*
X6576Y5381D01*
X6592Y5394D01*
X6621Y5423D01*
X6634Y5419D01*
Y5248D01*
X6886D01*
Y5253D01*
X6898Y5257D01*
X6905Y5246D01*
X6940Y5211D01*
X6981Y5184D01*
X6987Y5181D01*
X6985Y5169D01*
X6963D01*
Y4996D01*
Y4843D01*
X7138D01*
Y4787D01*
X7398D01*
Y4970D01*
X7157D01*
Y4982D01*
X7398D01*
Y5165D01*
X7330D01*
X7328Y5178D01*
X7314Y5199D01*
X7299Y5214D01*
X7288Y5221D01*
X7286Y5238D01*
X7295Y5246D01*
X7322Y5287D01*
X7341Y5333D01*
X7351Y5381D01*
Y5431D01*
X7341Y5479D01*
X7322Y5525D01*
X7295Y5566D01*
X7260Y5601D01*
X7219Y5628D01*
X7173Y5647D01*
X7125Y5657D01*
X7075D01*
X7027Y5647D01*
X6981Y5628D01*
X6940Y5601D01*
X6905Y5566D01*
X6898Y5555D01*
X6886Y5559D01*
Y5565D01*
X6686D01*
Y5721D01*
X7417D01*
Y81D01*
D02*
G37*
%LPC*%
G36*
X1902Y5173D02*
X1866D01*
X1833Y5164D01*
X1802Y5147D01*
X1777Y5122D01*
X1766Y5103D01*
X1752D01*
X1741Y5122D01*
X1716Y5147D01*
X1685Y5164D01*
X1652Y5173D01*
X1616D01*
X1583Y5164D01*
X1552Y5147D01*
X1527Y5122D01*
X1516Y5103D01*
X1502D01*
X1491Y5122D01*
X1466Y5147D01*
X1435Y5164D01*
X1402Y5173D01*
X1366D01*
X1333Y5164D01*
X1302Y5147D01*
X1280Y5125D01*
X1269Y5128D01*
X1267Y5129D01*
Y5173D01*
X1001D01*
Y4907D01*
X1119D01*
Y4847D01*
X1105Y4841D01*
X1092Y4831D01*
X1081Y4817D01*
X1074Y4801D01*
X1072Y4784D01*
Y4731D01*
X1060Y4727D01*
X878Y4909D01*
X878Y4911D01*
X887Y4944D01*
Y4980D01*
X878Y5013D01*
X861Y5044D01*
X836Y5069D01*
X805Y5086D01*
X772Y5095D01*
X736D01*
X703Y5086D01*
X672Y5069D01*
X647Y5044D01*
X630Y5013D01*
X621Y4980D01*
Y4944D01*
X630Y4911D01*
X647Y4880D01*
X672Y4855D01*
X691Y4844D01*
Y4830D01*
X672Y4819D01*
X647Y4794D01*
X630Y4763D01*
X621Y4730D01*
Y4694D01*
X630Y4661D01*
X647Y4630D01*
X672Y4605D01*
X691Y4594D01*
Y4580D01*
X672Y4569D01*
X647Y4544D01*
X630Y4513D01*
X621Y4480D01*
Y4444D01*
X630Y4411D01*
X647Y4380D01*
X672Y4355D01*
X691Y4344D01*
Y4330D01*
X672Y4319D01*
X647Y4294D01*
X630Y4263D01*
X621Y4230D01*
Y4194D01*
X630Y4161D01*
X647Y4130D01*
X672Y4105D01*
X691Y4094D01*
Y4080D01*
X672Y4069D01*
X647Y4044D01*
X630Y4013D01*
X621Y3980D01*
Y3944D01*
X626Y3925D01*
X137Y3437D01*
X123Y3416D01*
X118Y3391D01*
Y1224D01*
X123Y1199D01*
X137Y1178D01*
X195Y1120D01*
X216Y1106D01*
X241Y1101D01*
X271D01*
Y1040D01*
X454D01*
Y1250D01*
Y1498D01*
X466D01*
Y1250D01*
Y1040D01*
X649D01*
Y1105D01*
X779D01*
X804Y1110D01*
X806Y1112D01*
X817Y1104D01*
Y964D01*
X817Y953D01*
X807Y949D01*
X806Y949D01*
X787Y936D01*
X774Y917D01*
X770Y895D01*
Y636D01*
X774Y615D01*
X781Y605D01*
X785Y592D01*
X780Y585D01*
X772Y573D01*
X768Y551D01*
Y292D01*
X772Y271D01*
X785Y252D01*
X804Y239D01*
X826Y235D01*
X924D01*
X946Y239D01*
X965Y252D01*
X978Y271D01*
X982Y292D01*
Y551D01*
X978Y573D01*
X971Y583D01*
X967Y596D01*
X972Y603D01*
X980Y615D01*
X984Y636D01*
Y895D01*
X980Y917D01*
X967Y936D01*
X960Y941D01*
X964Y953D01*
X1080D01*
X1084Y941D01*
X1077Y936D01*
X1064Y917D01*
X1060Y895D01*
Y636D01*
X1064Y615D01*
X1071Y605D01*
X1075Y592D01*
X1070Y585D01*
X1062Y573D01*
X1058Y551D01*
Y292D01*
X1062Y271D01*
X1075Y252D01*
X1094Y239D01*
X1115Y235D01*
X1215D01*
X1236Y239D01*
X1255Y252D01*
X1268Y271D01*
X1272Y292D01*
Y357D01*
X1481D01*
X1499Y347D01*
X1519Y341D01*
X1541D01*
X1561Y347D01*
X1580Y357D01*
X1595Y372D01*
X1605Y391D01*
X1611Y411D01*
Y433D01*
X1605Y453D01*
X1595Y472D01*
X1580Y487D01*
X1561Y497D01*
X1541Y503D01*
X1519D01*
X1499Y497D01*
X1481Y487D01*
X1272D01*
Y551D01*
X1268Y573D01*
X1261Y583D01*
X1257Y596D01*
X1262Y603D01*
X1270Y615D01*
X1274Y636D01*
Y701D01*
X1297D01*
X1300Y699D01*
X1318Y692D01*
X1338Y689D01*
X1338Y689D01*
X1505D01*
X1519Y685D01*
X1541D01*
X1561Y691D01*
X1580Y701D01*
X1595Y716D01*
X1605Y735D01*
X1611Y755D01*
Y777D01*
X1605Y797D01*
X1595Y816D01*
X1580Y831D01*
X1561Y841D01*
X1541Y847D01*
X1519D01*
X1505Y843D01*
X1413D01*
Y928D01*
X1410Y948D01*
X1409Y951D01*
X1417Y964D01*
X1774D01*
Y1416D01*
X1323D01*
Y1324D01*
X1311Y1320D01*
X1092Y1539D01*
X1096Y1551D01*
X1111D01*
Y1745D01*
X1013D01*
Y1830D01*
Y2023D01*
X711D01*
Y2089D01*
X706Y2114D01*
X692Y2135D01*
X687Y2140D01*
X692Y2152D01*
X827D01*
X827Y2152D01*
X853Y2156D01*
X878Y2166D01*
X899Y2182D01*
X916Y2200D01*
X933Y2221D01*
X943Y2245D01*
X946Y2272D01*
X943Y2299D01*
X933Y2323D01*
X916Y2344D01*
X895Y2361D01*
X871Y2371D01*
X857Y2373D01*
X857Y2386D01*
X939D01*
X940Y2385D01*
X961Y2381D01*
X1076D01*
X1097Y2385D01*
X1116Y2398D01*
X1129Y2417D01*
X1133Y2439D01*
Y2538D01*
X1129Y2559D01*
X1116Y2578D01*
X1097Y2591D01*
X1076Y2595D01*
X961D01*
X940Y2591D01*
X939Y2590D01*
X841D01*
X815Y2587D01*
X790Y2577D01*
X769Y2560D01*
X752Y2539D01*
X742Y2515D01*
X740Y2495D01*
X727Y2496D01*
Y2501D01*
X722Y2524D01*
X710Y2544D01*
X690Y2556D01*
X668Y2561D01*
X512D01*
X490Y2556D01*
X470Y2544D01*
X458Y2524D01*
X453Y2501D01*
Y2367D01*
X458Y2344D01*
X470Y2324D01*
X488Y2313D01*
X491Y2288D01*
X501Y2263D01*
X517Y2242D01*
X517Y2238D01*
X513Y2230D01*
X468D01*
Y1989D01*
X455D01*
Y2230D01*
X273D01*
Y2188D01*
X262Y2181D01*
X262Y2181D01*
X248D01*
Y3364D01*
X608Y3724D01*
X621Y3719D01*
Y3694D01*
X630Y3661D01*
X647Y3630D01*
X672Y3605D01*
X691Y3594D01*
Y3580D01*
X672Y3569D01*
X647Y3544D01*
X630Y3513D01*
X621Y3480D01*
Y3444D01*
X630Y3411D01*
X647Y3380D01*
X669Y3358D01*
X666Y3345D01*
X621D01*
Y3079D01*
X869D01*
X873Y3073D01*
X866Y3060D01*
X846D01*
X819Y3057D01*
X795Y3047D01*
X774Y3030D01*
X757Y3009D01*
X747Y2985D01*
X744Y2958D01*
X747Y2931D01*
X757Y2907D01*
X774Y2886D01*
X795Y2869D01*
X819Y2859D01*
X846Y2856D01*
X943D01*
X944Y2855D01*
X965Y2851D01*
X1080D01*
X1101Y2855D01*
X1120Y2868D01*
X1133Y2887D01*
X1137Y2908D01*
Y3008D01*
X1133Y3029D01*
X1120Y3048D01*
X1101Y3061D01*
X1080Y3065D01*
X1022D01*
X1015Y3078D01*
X1021Y3089D01*
X1027Y3109D01*
Y3114D01*
X1033D01*
X1054Y3120D01*
X1072Y3131D01*
X1087Y3146D01*
X1098Y3164D01*
X1103Y3185D01*
Y3193D01*
X1121D01*
X1141Y3199D01*
X1160Y3209D01*
X1175Y3224D01*
X1185Y3243D01*
X1191Y3263D01*
Y3285D01*
X1185Y3305D01*
X1175Y3323D01*
Y4566D01*
X1228D01*
X1246Y4568D01*
X1262Y4575D01*
X1275Y4585D01*
X1286Y4599D01*
X1293Y4615D01*
X1295Y4632D01*
Y4784D01*
X1293Y4801D01*
X1286Y4817D01*
X1275Y4831D01*
X1262Y4841D01*
X1248Y4847D01*
Y4907D01*
X1267D01*
Y4951D01*
X1269Y4952D01*
X1280Y4955D01*
X1302Y4933D01*
X1333Y4916D01*
X1366Y4907D01*
X1402D01*
X1435Y4916D01*
X1466Y4933D01*
X1491Y4958D01*
X1502Y4977D01*
X1516D01*
X1527Y4958D01*
X1552Y4933D01*
X1583Y4916D01*
X1616Y4907D01*
X1652D01*
X1685Y4916D01*
X1716Y4933D01*
X1741Y4958D01*
X1752Y4977D01*
X1766D01*
X1777Y4958D01*
X1802Y4933D01*
X1833Y4916D01*
X1866Y4907D01*
X1902D01*
X1935Y4916D01*
X1966Y4933D01*
X1991Y4958D01*
X2008Y4989D01*
X2017Y5022D01*
Y5058D01*
X2008Y5091D01*
X1991Y5122D01*
X1966Y5147D01*
X1935Y5164D01*
X1902Y5173D01*
D02*
G37*
G36*
X429Y5657D02*
X379D01*
X331Y5647D01*
X285Y5628D01*
X244Y5601D01*
X209Y5566D01*
X182Y5525D01*
X163Y5479D01*
X153Y5431D01*
Y5381D01*
X163Y5333D01*
X182Y5287D01*
X209Y5246D01*
X244Y5211D01*
X285Y5184D01*
X305Y5175D01*
X303Y5163D01*
X251D01*
X226Y5158D01*
X205Y5144D01*
X190Y5129D01*
X176Y5108D01*
X174Y5095D01*
X106D01*
Y4912D01*
X365D01*
Y4900D01*
X106D01*
Y4717D01*
X366D01*
Y4767D01*
X559D01*
Y4920D01*
Y5093D01*
X531D01*
X528Y5108D01*
X514Y5129D01*
X499Y5144D01*
X484Y5154D01*
X485Y5168D01*
X523Y5184D01*
X564Y5211D01*
X599Y5246D01*
X626Y5287D01*
X645Y5333D01*
X655Y5381D01*
Y5431D01*
X645Y5479D01*
X626Y5525D01*
X599Y5566D01*
X564Y5601D01*
X523Y5628D01*
X477Y5647D01*
X429Y5657D01*
D02*
G37*
G36*
X3261Y4745D02*
X3239D01*
X3219Y4739D01*
X3200Y4729D01*
X3185Y4714D01*
X3175Y4695D01*
X3169Y4675D01*
Y4653D01*
X3173Y4639D01*
Y4591D01*
X3158D01*
Y4404D01*
X3345D01*
Y4591D01*
X3327D01*
Y4639D01*
X3331Y4653D01*
Y4675D01*
X3325Y4695D01*
X3315Y4714D01*
X3300Y4729D01*
X3281Y4739D01*
X3261Y4745D01*
D02*
G37*
G36*
X1910Y4130D02*
X1727D01*
Y4083D01*
X1714Y4076D01*
X1705Y4081D01*
X1685Y4087D01*
X1663D01*
X1643Y4081D01*
X1624Y4071D01*
X1609Y4056D01*
X1599Y4037D01*
X1593Y4017D01*
Y3995D01*
X1599Y3975D01*
X1609Y3956D01*
X1624Y3941D01*
X1643Y3931D01*
X1663Y3925D01*
X1685D01*
X1705Y3931D01*
X1714Y3936D01*
X1727Y3929D01*
Y3871D01*
X1910D01*
Y4130D01*
D02*
G37*
G36*
X3631D02*
X3448D01*
Y3871D01*
X3631D01*
Y4130D01*
D02*
G37*
G36*
X2547D02*
X2364D01*
Y3871D01*
X2547D01*
Y4130D01*
D02*
G37*
G36*
X5727Y3819D02*
X5445D01*
Y3793D01*
X5433Y3788D01*
X5402Y3819D01*
X5261D01*
X5205Y3763D01*
X5148Y3819D01*
X5007D01*
X4951Y3763D01*
X4894Y3819D01*
X4753D01*
X4697Y3763D01*
X4640Y3819D01*
X4499D01*
X4443Y3763D01*
X4386Y3819D01*
X4245D01*
X4189Y3763D01*
X4132Y3819D01*
X3991D01*
X3935Y3763D01*
X3878Y3819D01*
X3737D01*
X3667Y3749D01*
Y3608D01*
X3737Y3538D01*
X3878D01*
X3935Y3594D01*
X3991Y3538D01*
X4132D01*
X4189Y3594D01*
X4245Y3538D01*
X4386D01*
X4443Y3594D01*
X4499Y3538D01*
X4640D01*
X4697Y3594D01*
X4753Y3538D01*
X4793D01*
X4797Y3519D01*
X4811Y3498D01*
X4849Y3459D01*
X4855Y3439D01*
X4865Y3420D01*
X4880Y3405D01*
X4899Y3395D01*
X4919Y3389D01*
X4941D01*
X4961Y3395D01*
X4980Y3405D01*
X4992Y3417D01*
X5003Y3411D01*
X4999Y3397D01*
Y3375D01*
X5005Y3355D01*
X5015Y3336D01*
X5030Y3321D01*
X5049Y3311D01*
X5069Y3305D01*
X5091D01*
X5111Y3311D01*
X5130Y3321D01*
X5145Y3336D01*
X5155Y3355D01*
X5161Y3375D01*
Y3397D01*
X5155Y3417D01*
X5145Y3435D01*
Y3538D01*
X5148D01*
X5205Y3594D01*
X5261Y3538D01*
X5269D01*
Y3189D01*
X5259Y3171D01*
X5253Y3151D01*
Y3129D01*
X5259Y3109D01*
X5269Y3090D01*
X5284Y3075D01*
X5303Y3065D01*
X5323Y3059D01*
X5345D01*
X5365Y3065D01*
X5384Y3075D01*
X5399Y3090D01*
X5409Y3109D01*
X5415Y3129D01*
Y3151D01*
X5409Y3171D01*
X5399Y3189D01*
Y3538D01*
X5402D01*
X5433Y3569D01*
X5445Y3564D01*
Y3538D01*
X5523D01*
Y2933D01*
X5513Y2915D01*
X5507Y2895D01*
Y2873D01*
X5513Y2853D01*
X5523Y2834D01*
X5538Y2819D01*
X5557Y2809D01*
X5577Y2803D01*
X5599D01*
X5619Y2809D01*
X5638Y2819D01*
X5653Y2834D01*
X5663Y2853D01*
X5669Y2873D01*
Y2895D01*
X5663Y2915D01*
X5653Y2933D01*
Y3538D01*
X5727D01*
Y3819D01*
D02*
G37*
G36*
X2167Y4356D02*
X2155Y4356D01*
X1977D01*
Y4169D01*
X2006D01*
Y4169D01*
X2011Y4144D01*
X2013Y4141D01*
X2007Y4130D01*
X1922D01*
Y3871D01*
X2105D01*
Y3936D01*
X2169D01*
Y3874D01*
X2169Y3871D01*
X2163Y3861D01*
X2155D01*
X2135Y3855D01*
X2116Y3845D01*
X2101Y3830D01*
X2091Y3811D01*
X2085Y3791D01*
Y3769D01*
X2089Y3756D01*
Y3729D01*
X2072D01*
Y3542D01*
X2259D01*
Y3729D01*
X2243D01*
Y3754D01*
X2247Y3769D01*
Y3791D01*
X2241Y3811D01*
X2231Y3830D01*
X2216Y3845D01*
X2197Y3855D01*
X2186Y3858D01*
X2188Y3871D01*
X2352D01*
Y4130D01*
X2187D01*
Y4139D01*
X2183Y4156D01*
X2192Y4169D01*
X2354D01*
Y4356D01*
X2167D01*
Y4356D01*
D02*
G37*
G36*
X1910Y3286D02*
X1727D01*
Y3250D01*
X1717Y3246D01*
X1714Y3246D01*
X1700Y3260D01*
X1681Y3271D01*
X1661Y3276D01*
X1639D01*
X1619Y3271D01*
X1600Y3260D01*
X1585Y3245D01*
X1575Y3227D01*
X1569Y3206D01*
Y3185D01*
X1575Y3164D01*
X1585Y3146D01*
X1600Y3131D01*
X1619Y3120D01*
X1639Y3115D01*
X1649D01*
X1653Y3110D01*
X1674Y3096D01*
X1699Y3091D01*
X1727D01*
Y3026D01*
X1910D01*
Y3286D01*
D02*
G37*
G36*
X2994D02*
X2811D01*
Y3227D01*
X2731D01*
X2713Y3237D01*
X2693Y3243D01*
X2671D01*
X2651Y3237D01*
X2632Y3227D01*
X2617Y3212D01*
X2607Y3193D01*
X2601Y3173D01*
Y3151D01*
X2607Y3131D01*
X2617Y3112D01*
X2632Y3097D01*
X2651Y3087D01*
X2671Y3081D01*
X2693D01*
X2713Y3087D01*
X2731Y3097D01*
X2811D01*
Y3026D01*
X2994D01*
Y3286D01*
D02*
G37*
G36*
X1530Y4850D02*
X1440D01*
X1422Y4848D01*
X1406Y4841D01*
X1393Y4831D01*
X1382Y4817D01*
X1375Y4801D01*
X1373Y4784D01*
Y4632D01*
X1375Y4615D01*
X1382Y4599D01*
X1393Y4585D01*
X1406Y4575D01*
X1420Y4569D01*
Y3060D01*
X1377D01*
X1376Y3061D01*
X1355Y3065D01*
X1240D01*
X1219Y3061D01*
X1200Y3048D01*
X1187Y3029D01*
X1183Y3008D01*
Y2908D01*
X1187Y2887D01*
X1200Y2868D01*
X1219Y2855D01*
X1240Y2851D01*
X1355D01*
X1376Y2855D01*
X1377Y2856D01*
X1526D01*
X1553Y2859D01*
X1577Y2869D01*
X1598Y2886D01*
X1615Y2907D01*
X1625Y2931D01*
X1628Y2958D01*
X1625Y2985D01*
X1615Y3009D01*
X1598Y3030D01*
X1577Y3047D01*
X1553Y3057D01*
X1549Y3057D01*
Y4569D01*
X1563Y4575D01*
X1576Y4585D01*
X1587Y4599D01*
X1594Y4615D01*
X1596Y4632D01*
Y4784D01*
X1594Y4801D01*
X1587Y4817D01*
X1576Y4831D01*
X1563Y4841D01*
X1547Y4848D01*
X1530Y4850D01*
D02*
G37*
G36*
X3651Y3286D02*
X3468D01*
Y3026D01*
X3651D01*
Y3286D01*
D02*
G37*
G36*
X3253Y3494D02*
X3240Y3494D01*
X3063D01*
Y3307D01*
X3090D01*
X3092Y3295D01*
X3084Y3286D01*
X3006D01*
Y3026D01*
X3189D01*
Y3091D01*
X3273D01*
Y3026D01*
X3456D01*
Y3286D01*
X3296D01*
X3290Y3296D01*
X3296Y3307D01*
X3440D01*
Y3494D01*
X3253D01*
Y3494D01*
D02*
G37*
G36*
X2547Y3286D02*
X2364D01*
Y3026D01*
X2547D01*
Y3286D01*
D02*
G37*
G36*
X2167Y3494D02*
X2155Y3494D01*
X1977D01*
Y3307D01*
X2000D01*
X2002Y3295D01*
X1994Y3286D01*
X1922D01*
Y3026D01*
X2105D01*
Y3091D01*
X2169D01*
Y3026D01*
X2352D01*
Y3286D01*
X2174D01*
X2164Y3296D01*
X2170Y3307D01*
X2177Y3307D01*
X2354D01*
Y3494D01*
X2177D01*
X2167Y3494D01*
D02*
G37*
G36*
X6881Y4769D02*
X6615D01*
Y4503D01*
X6660D01*
X6663Y4490D01*
X6641Y4468D01*
X6624Y4437D01*
X6615Y4404D01*
Y4368D01*
X6624Y4335D01*
X6641Y4304D01*
X6666Y4279D01*
X6685Y4268D01*
Y4254D01*
X6666Y4243D01*
X6641Y4218D01*
X6624Y4187D01*
X6615Y4154D01*
Y4118D01*
X6624Y4085D01*
X6641Y4054D01*
X6666Y4029D01*
X6685Y4018D01*
Y4004D01*
X6666Y3993D01*
X6641Y3968D01*
X6624Y3937D01*
X6615Y3904D01*
Y3868D01*
X6624Y3835D01*
X6641Y3804D01*
X6666Y3779D01*
X6685Y3768D01*
Y3754D01*
X6666Y3743D01*
X6641Y3718D01*
X6624Y3687D01*
X6615Y3654D01*
Y3618D01*
X6624Y3585D01*
X6641Y3554D01*
X6666Y3529D01*
X6685Y3518D01*
Y3504D01*
X6666Y3493D01*
X6641Y3468D01*
X6624Y3437D01*
X6615Y3404D01*
Y3368D01*
X6624Y3335D01*
X6641Y3304D01*
X6666Y3279D01*
X6685Y3268D01*
Y3254D01*
X6666Y3243D01*
X6641Y3218D01*
X6624Y3187D01*
X6615Y3154D01*
Y3118D01*
X6624Y3085D01*
X6641Y3054D01*
X6666Y3029D01*
X6685Y3018D01*
Y3004D01*
X6666Y2993D01*
X6641Y2968D01*
X6624Y2937D01*
X6615Y2904D01*
Y2868D01*
X6624Y2835D01*
X6641Y2804D01*
X6666Y2779D01*
X6671Y2777D01*
X6666Y2765D01*
X6651Y2769D01*
X6630D01*
X6609Y2763D01*
X6591Y2753D01*
X6576Y2738D01*
X6565Y2719D01*
X6560Y2699D01*
Y2677D01*
X6565Y2657D01*
X6576Y2639D01*
Y2581D01*
X6543D01*
Y2408D01*
Y2255D01*
X6737D01*
Y2408D01*
Y2581D01*
X6705D01*
Y2639D01*
X6716Y2657D01*
X6721Y2677D01*
Y2699D01*
X6716Y2719D01*
X6705Y2738D01*
X6693Y2750D01*
X6700Y2761D01*
X6730Y2753D01*
X6766D01*
X6799Y2762D01*
X6830Y2779D01*
X6855Y2804D01*
X6872Y2835D01*
X6881Y2868D01*
Y2904D01*
X6872Y2937D01*
X6855Y2968D01*
X6830Y2993D01*
X6811Y3004D01*
Y3018D01*
X6830Y3029D01*
X6855Y3054D01*
X6872Y3085D01*
X6881Y3118D01*
Y3154D01*
X6872Y3187D01*
X6855Y3218D01*
X6830Y3243D01*
X6811Y3254D01*
Y3268D01*
X6830Y3279D01*
X6855Y3304D01*
X6872Y3335D01*
X6881Y3368D01*
Y3404D01*
X6872Y3437D01*
X6855Y3468D01*
X6830Y3493D01*
X6811Y3504D01*
Y3518D01*
X6830Y3529D01*
X6855Y3554D01*
X6872Y3585D01*
X6881Y3618D01*
Y3654D01*
X6872Y3687D01*
X6855Y3718D01*
X6830Y3743D01*
X6811Y3754D01*
Y3768D01*
X6830Y3779D01*
X6855Y3804D01*
X6872Y3835D01*
X6881Y3868D01*
Y3904D01*
X6872Y3937D01*
X6855Y3968D01*
X6830Y3993D01*
X6811Y4004D01*
Y4018D01*
X6830Y4029D01*
X6855Y4054D01*
X6872Y4085D01*
X6881Y4118D01*
Y4154D01*
X6872Y4187D01*
X6855Y4218D01*
X6830Y4243D01*
X6811Y4254D01*
Y4268D01*
X6830Y4279D01*
X6855Y4304D01*
X6872Y4335D01*
X6881Y4368D01*
Y4404D01*
X6872Y4437D01*
X6855Y4468D01*
X6833Y4490D01*
X6836Y4503D01*
X6881D01*
Y4769D01*
D02*
G37*
G36*
X668Y2961D02*
X512D01*
X490Y2956D01*
X470Y2944D01*
X458Y2924D01*
X453Y2901D01*
Y2767D01*
X458Y2744D01*
X470Y2724D01*
X490Y2712D01*
X512Y2707D01*
X668D01*
X690Y2712D01*
X710Y2724D01*
X722Y2744D01*
X727Y2767D01*
Y2901D01*
X722Y2924D01*
X710Y2944D01*
X690Y2956D01*
X668Y2961D01*
D02*
G37*
G36*
X1347Y2831D02*
X1233D01*
X1211Y2827D01*
X1192Y2814D01*
X1180Y2795D01*
X1176Y2774D01*
Y2675D01*
X1180Y2653D01*
X1192Y2634D01*
X1211Y2621D01*
X1233Y2617D01*
X1347D01*
X1369Y2621D01*
X1369Y2622D01*
X1530D01*
X1557Y2625D01*
X1581Y2635D01*
X1602Y2652D01*
X1619Y2673D01*
X1629Y2697D01*
X1632Y2724D01*
X1629Y2751D01*
X1619Y2775D01*
X1602Y2796D01*
X1581Y2813D01*
X1557Y2823D01*
X1530Y2826D01*
X1369D01*
X1369Y2827D01*
X1347Y2831D01*
D02*
G37*
G36*
X1072D02*
X958D01*
X936Y2827D01*
X930Y2822D01*
X840D01*
X813Y2819D01*
X789Y2809D01*
X768Y2792D01*
X751Y2771D01*
X741Y2747D01*
X738Y2720D01*
X741Y2693D01*
X751Y2669D01*
X768Y2648D01*
X789Y2631D01*
X813Y2621D01*
X840Y2618D01*
X956D01*
X958Y2617D01*
X1072D01*
X1094Y2621D01*
X1113Y2634D01*
X1125Y2653D01*
X1129Y2675D01*
Y2774D01*
X1125Y2795D01*
X1113Y2814D01*
X1094Y2827D01*
X1072Y2831D01*
D02*
G37*
G36*
X2875Y2857D02*
X2854D01*
X2834Y2851D01*
X2815Y2841D01*
X2800Y2826D01*
X2790Y2807D01*
X2784Y2787D01*
Y2765D01*
X2790Y2745D01*
X2800Y2727D01*
Y2479D01*
X2795Y2475D01*
X2773D01*
X2753Y2469D01*
X2735Y2459D01*
X2465D01*
Y2497D01*
X2139D01*
Y2303D01*
X2465D01*
Y2329D01*
X2735D01*
X2753Y2319D01*
X2773Y2313D01*
X2795D01*
X2800Y2309D01*
Y2109D01*
X2795Y2105D01*
X2773D01*
X2753Y2099D01*
X2735Y2089D01*
X2615D01*
Y2129D01*
X2243D01*
Y1927D01*
X2615D01*
Y1959D01*
X2735D01*
X2753Y1949D01*
X2773Y1943D01*
X2795D01*
X2800Y1939D01*
Y1819D01*
X2798Y1817D01*
X2793Y1792D01*
Y1271D01*
X2773D01*
X2759Y1267D01*
X2664D01*
Y1416D01*
X2212D01*
Y964D01*
X2664D01*
Y1113D01*
X2759D01*
X2773Y1109D01*
X2793D01*
Y824D01*
X2798Y799D01*
X2812Y778D01*
X2827Y763D01*
X2848Y749D01*
X2873Y744D01*
X2968D01*
Y679D01*
X3150D01*
Y873D01*
X3162Y879D01*
X3163Y878D01*
Y679D01*
X3346D01*
X3351Y669D01*
Y459D01*
X3347Y445D01*
Y423D01*
X3353Y403D01*
X3363Y384D01*
X3378Y369D01*
X3397Y359D01*
X3417Y353D01*
X3439D01*
X3446Y355D01*
X3456Y347D01*
Y303D01*
X3460Y281D01*
X3473Y262D01*
X3492Y249D01*
X3513Y245D01*
X3612D01*
X3634Y249D01*
X3653Y262D01*
X3666Y281D01*
X3670Y303D01*
Y561D01*
X3666Y583D01*
X3653Y602D01*
X3635Y614D01*
X3635Y618D01*
X3637Y627D01*
X3638Y627D01*
X3657Y640D01*
X3670Y659D01*
X3674Y680D01*
Y940D01*
X3670Y961D01*
X3665Y969D01*
X3671Y981D01*
X3753D01*
X3759Y969D01*
X3754Y961D01*
X3750Y940D01*
Y680D01*
X3754Y659D01*
X3767Y640D01*
X3785Y628D01*
X3785Y624D01*
X3783Y615D01*
X3782Y615D01*
X3763Y602D01*
X3750Y583D01*
X3746Y561D01*
Y303D01*
X3750Y281D01*
X3763Y262D01*
X3782Y249D01*
X3803Y245D01*
X3903D01*
X3924Y249D01*
X3943Y262D01*
X3956Y281D01*
X3960Y303D01*
Y561D01*
X3956Y583D01*
X3943Y602D01*
X3925Y614D01*
X3925Y618D01*
X3927Y627D01*
X3928Y627D01*
X3947Y640D01*
X3960Y659D01*
X3964Y680D01*
Y940D01*
X3960Y961D01*
X3954Y969D01*
X3953Y981D01*
X3953Y981D01*
X3953Y981D01*
Y1127D01*
X3960Y1133D01*
X3960Y1133D01*
X4043D01*
Y942D01*
X4495D01*
Y1394D01*
X4043D01*
Y1287D01*
X3992D01*
X3901Y1378D01*
Y1472D01*
X3898Y1492D01*
X3894Y1503D01*
X3901Y1515D01*
X3901D01*
Y1709D01*
X3843D01*
Y1875D01*
X3837D01*
Y2029D01*
X3511D01*
Y1990D01*
X3498Y1988D01*
X3493Y1984D01*
X3486Y1996D01*
X3471Y2010D01*
X3450Y2024D01*
X3440Y2026D01*
Y2094D01*
X3257D01*
Y1835D01*
Y1594D01*
Y1352D01*
X3440D01*
Y1516D01*
X3452Y1521D01*
X3469Y1503D01*
Y1361D01*
Y1216D01*
X3357Y1104D01*
X3345Y1109D01*
Y1150D01*
X3162D01*
Y956D01*
X3151Y950D01*
X3150Y951D01*
Y1150D01*
X2967D01*
Y890D01*
X2968D01*
Y874D01*
X2923D01*
Y1771D01*
X2925Y1774D01*
X2930Y1799D01*
Y1924D01*
X2942Y1927D01*
X2949Y1915D01*
X2964Y1900D01*
X2983Y1889D01*
X3003Y1884D01*
X3025D01*
X3045Y1889D01*
X3050Y1892D01*
X3061Y1886D01*
Y1788D01*
X3059D01*
X3034Y1783D01*
X3013Y1769D01*
X2998Y1754D01*
X2984Y1733D01*
X2979Y1708D01*
Y1497D01*
X2984Y1472D01*
X2998Y1451D01*
X3013Y1436D01*
X3034Y1422D01*
X3059Y1417D01*
X3061D01*
Y1352D01*
X3244D01*
Y1594D01*
Y1835D01*
Y2094D01*
X3061D01*
Y2043D01*
X3050Y2037D01*
X3045Y2040D01*
X3025Y2045D01*
X3003D01*
X2983Y2040D01*
X2964Y2029D01*
X2949Y2014D01*
X2942Y2002D01*
X2930Y2005D01*
Y2727D01*
X2940Y2745D01*
X2946Y2765D01*
Y2787D01*
X2940Y2807D01*
X2929Y2826D01*
X2914Y2841D01*
X2896Y2851D01*
X2875Y2857D01*
D02*
G37*
G36*
X1351Y2595D02*
X1236D01*
X1215Y2591D01*
X1196Y2578D01*
X1183Y2559D01*
X1179Y2538D01*
Y2439D01*
X1183Y2417D01*
X1196Y2398D01*
X1215Y2385D01*
X1236Y2381D01*
X1351D01*
X1372Y2385D01*
X1376Y2388D01*
X1522D01*
X1549Y2391D01*
X1573Y2401D01*
X1594Y2418D01*
X1611Y2439D01*
X1621Y2463D01*
X1624Y2490D01*
X1621Y2517D01*
X1611Y2541D01*
X1594Y2562D01*
X1573Y2579D01*
X1549Y2589D01*
X1522Y2592D01*
X1363D01*
X1351Y2595D01*
D02*
G37*
G36*
X5229Y2493D02*
X4903D01*
Y2299D01*
X5229D01*
Y2337D01*
X5373D01*
X5391Y2327D01*
X5411Y2321D01*
X5433D01*
X5453Y2327D01*
X5472Y2337D01*
X5487Y2352D01*
X5497Y2371D01*
X5503Y2391D01*
Y2413D01*
X5497Y2433D01*
X5487Y2452D01*
X5472Y2467D01*
X5453Y2477D01*
X5433Y2483D01*
X5411D01*
X5391Y2477D01*
X5373Y2467D01*
X5229D01*
Y2493D01*
D02*
G37*
G36*
X7039Y2769D02*
X7017D01*
X6997Y2763D01*
X6978Y2753D01*
X6963Y2738D01*
X6953Y2719D01*
X6947Y2699D01*
Y2677D01*
X6946Y2676D01*
X6931D01*
Y2304D01*
X7133D01*
Y2676D01*
X7110D01*
X7109Y2677D01*
Y2699D01*
X7103Y2719D01*
X7093Y2738D01*
X7078Y2753D01*
X7059Y2763D01*
X7039Y2769D01*
D02*
G37*
G36*
X2175Y2129D02*
X1803D01*
Y1927D01*
X2175D01*
Y2129D01*
D02*
G37*
G36*
X5334Y2091D02*
X4962D01*
Y1889D01*
X5334D01*
Y1927D01*
X5373D01*
X5391Y1917D01*
X5411Y1911D01*
X5433D01*
X5453Y1917D01*
X5472Y1927D01*
X5487Y1942D01*
X5497Y1961D01*
X5503Y1981D01*
Y2003D01*
X5497Y2023D01*
X5487Y2042D01*
X5472Y2057D01*
X5453Y2067D01*
X5433Y2073D01*
X5411D01*
X5391Y2067D01*
X5373Y2057D01*
X5334D01*
Y2091D01*
D02*
G37*
G36*
X4894D02*
X4522D01*
Y1889D01*
X4894D01*
Y2091D01*
D02*
G37*
G36*
X7133Y2236D02*
X6931D01*
Y1864D01*
X7133D01*
Y2236D01*
D02*
G37*
G36*
X6252Y2019D02*
X5800D01*
Y1567D01*
X5949D01*
Y1472D01*
X5920Y1442D01*
X5907Y1426D01*
X5901Y1412D01*
X5767D01*
Y1301D01*
X5452D01*
Y1250D01*
X5442Y1242D01*
X5433Y1245D01*
X5411D01*
X5397Y1241D01*
X5385D01*
Y1394D01*
X4933D01*
Y942D01*
X5385D01*
Y1087D01*
X5397D01*
X5411Y1083D01*
X5433D01*
X5442Y1086D01*
X5452Y1078D01*
Y976D01*
X5488D01*
X5490Y964D01*
X5504Y943D01*
X5503Y931D01*
X5492Y924D01*
X5478Y909D01*
X5464Y888D01*
X5459Y863D01*
Y850D01*
X5394D01*
Y667D01*
X6136D01*
Y850D01*
X5867D01*
X5862Y862D01*
X6002Y1001D01*
X6287D01*
Y1012D01*
X6298Y1016D01*
X6377Y938D01*
Y882D01*
X6376Y882D01*
X6371Y857D01*
Y855D01*
X6307D01*
Y672D01*
X6807D01*
Y855D01*
X6742D01*
Y857D01*
X6737Y882D01*
X6723Y903D01*
X6722Y904D01*
X6737Y918D01*
X6747Y937D01*
X6753Y957D01*
Y979D01*
X6747Y999D01*
X6743Y1006D01*
X6751Y1019D01*
X6801D01*
X6823Y1023D01*
X6842Y1036D01*
X6843Y1038D01*
X6856D01*
X6857Y1036D01*
X6876Y1023D01*
X6898Y1019D01*
X6947D01*
X6955Y1006D01*
X6951Y999D01*
X6945Y979D01*
Y958D01*
X6940Y951D01*
X6881D01*
Y778D01*
Y625D01*
X6947D01*
X6954Y618D01*
X6952Y603D01*
X6940Y595D01*
X6905Y560D01*
X6878Y519D01*
X6859Y473D01*
X6849Y425D01*
Y375D01*
X6859Y327D01*
X6878Y281D01*
X6905Y240D01*
X6940Y205D01*
X6981Y178D01*
X7027Y159D01*
X7075Y149D01*
X7125D01*
X7173Y159D01*
X7219Y178D01*
X7260Y205D01*
X7295Y240D01*
X7322Y281D01*
X7341Y327D01*
X7351Y375D01*
Y425D01*
X7341Y473D01*
X7322Y519D01*
X7295Y560D01*
X7264Y591D01*
X7267Y603D01*
Y631D01*
X7332D01*
Y814D01*
X7075D01*
Y826D01*
X7332D01*
Y1009D01*
X7174D01*
X7173Y1022D01*
X7179Y1023D01*
X7197Y1036D01*
X7210Y1054D01*
X7214Y1076D01*
Y1175D01*
X7210Y1197D01*
X7197Y1216D01*
X7179Y1228D01*
X7157Y1233D01*
X6898D01*
X6876Y1228D01*
X6857Y1216D01*
X6856Y1214D01*
X6843D01*
X6842Y1216D01*
X6823Y1228D01*
X6801Y1233D01*
X6542D01*
X6529Y1230D01*
X6517Y1240D01*
Y1302D01*
X6521Y1306D01*
X6529Y1311D01*
X6542Y1309D01*
X6801D01*
X6823Y1313D01*
X6842Y1326D01*
X6843Y1328D01*
X6856D01*
X6857Y1326D01*
X6876Y1313D01*
X6898Y1309D01*
X7157D01*
X7179Y1313D01*
X7197Y1326D01*
X7210Y1344D01*
X7214Y1366D01*
Y1465D01*
X7210Y1487D01*
X7197Y1506D01*
X7179Y1518D01*
X7157Y1523D01*
X6898D01*
X6876Y1518D01*
X6857Y1506D01*
X6856Y1504D01*
X6843D01*
X6842Y1506D01*
X6823Y1518D01*
X6801Y1523D01*
X6542D01*
X6520Y1518D01*
X6502Y1506D01*
X6489Y1487D01*
X6487Y1477D01*
X6323D01*
Y1304D01*
Y1241D01*
X6318D01*
X6299Y1238D01*
X6295Y1239D01*
X6287Y1245D01*
Y1276D01*
X6053D01*
X6051Y1276D01*
Y1356D01*
X6080Y1386D01*
X6080Y1386D01*
X6093Y1402D01*
X6100Y1420D01*
X6103Y1440D01*
Y1567D01*
X6252D01*
Y2019D01*
D02*
G37*
G36*
X372Y995D02*
X112D01*
Y812D01*
X372D01*
Y995D01*
D02*
G37*
G36*
X587Y951D02*
X393D01*
Y778D01*
Y696D01*
X372D01*
Y800D01*
X112D01*
Y617D01*
X191D01*
X193Y606D01*
X207Y585D01*
X215Y580D01*
X216Y567D01*
X209Y560D01*
X182Y519D01*
X163Y473D01*
X153Y425D01*
Y375D01*
X163Y327D01*
X182Y281D01*
X209Y240D01*
X244Y205D01*
X285Y178D01*
X331Y159D01*
X379Y149D01*
X429D01*
X477Y159D01*
X523Y178D01*
X564Y205D01*
X599Y240D01*
X626Y281D01*
X645Y327D01*
X655Y375D01*
Y425D01*
X645Y473D01*
X626Y519D01*
X599Y560D01*
X564Y595D01*
X537Y613D01*
X541Y625D01*
X587D01*
Y778D01*
Y951D01*
D02*
G37*
G36*
X5315Y703D02*
X5293D01*
X5273Y697D01*
X5254Y687D01*
X5239Y672D01*
X5229Y653D01*
X5223Y633D01*
Y611D01*
X5229Y591D01*
X5239Y572D01*
X5254Y557D01*
X5273Y547D01*
X5293Y541D01*
X5317Y518D01*
X5338Y503D01*
X5363Y499D01*
X5394D01*
Y472D01*
X5700D01*
Y467D01*
X5705Y442D01*
X5719Y421D01*
X5734Y406D01*
X5755Y392D01*
X5780Y387D01*
X5991D01*
X6016Y392D01*
X6037Y406D01*
X6052Y421D01*
X6066Y442D01*
X6071Y467D01*
Y472D01*
X6136D01*
Y655D01*
X5394D01*
Y648D01*
X5381Y646D01*
X5379Y653D01*
X5369Y672D01*
X5354Y687D01*
X5335Y697D01*
X5315Y703D01*
D02*
G37*
G36*
X6807Y660D02*
X6307D01*
Y477D01*
X6607D01*
Y249D01*
X6597Y231D01*
X6591Y211D01*
Y189D01*
X6597Y169D01*
X6607Y150D01*
X6622Y135D01*
X6641Y125D01*
X6661Y119D01*
X6683D01*
X6703Y125D01*
X6722Y135D01*
X6737Y150D01*
X6747Y169D01*
X6753Y189D01*
Y211D01*
X6747Y231D01*
X6737Y249D01*
Y477D01*
X6807D01*
Y660D01*
D02*
G37*
%LPD*%
G36*
X1154Y1259D02*
X1149Y1247D01*
X975D01*
Y1374D01*
Y1421D01*
X987Y1426D01*
X1154Y1259D01*
D02*
G37*
D12*
X6269Y1214D02*
X6318Y1263D01*
X6200Y1214D02*
X6269D01*
X3780Y1212D02*
X3780Y1212D01*
X3681Y1220D02*
Y1288D01*
X3690Y1212D02*
X3780D01*
X3681Y1220D02*
X3690Y1212D01*
X3054Y1024D02*
X3058Y1020D01*
X992Y1254D02*
X1047D01*
X967Y1228D02*
X992Y1254D01*
X913Y1237D02*
Y1300D01*
X922Y1228D02*
X967D01*
X913Y1237D02*
X922Y1228D01*
X6436Y857D02*
Y963D01*
X5979Y1064D02*
X6040D01*
X5794Y878D02*
X5979Y1064D01*
X5750Y878D02*
X5794D01*
X5973Y1325D02*
X5974Y1326D01*
X5864Y1325D02*
X5973D01*
X5937Y1173D02*
X5947Y1164D01*
X5864Y1173D02*
X5937D01*
X5947Y1164D02*
X6040D01*
X6285Y1114D02*
X6291Y1108D01*
X6436Y963D01*
X6200Y1114D02*
X6285D01*
X3525Y1539D02*
X3531Y1533D01*
X3631Y1448D02*
Y1571D01*
X3662Y1602D01*
Y1612D01*
X3577Y1240D02*
Y1284D01*
X3254Y1020D02*
X3357D01*
X3577Y1284D02*
X3581Y1288D01*
X3357Y1020D02*
X3577Y1240D01*
X863Y1639D02*
X872Y1648D01*
X863Y1460D02*
Y1639D01*
D13*
X1744Y2020D02*
X1981D01*
X1989Y2028D01*
X6260Y1062D02*
X6283Y1039D01*
Y983D02*
Y1039D01*
Y983D02*
X6288Y979D01*
X6202Y1062D02*
X6260D01*
X6200Y1064D02*
X6202Y1062D01*
X1023Y3195D02*
Y4343D01*
X2692Y4029D02*
Y4696D01*
Y4029D02*
X2721Y4001D01*
X5321Y5622D02*
X5326Y5617D01*
Y4872D02*
Y5617D01*
X2462Y4007D02*
X2564D01*
X2456Y4001D02*
X2462Y4007D01*
X3560Y4168D02*
X3632Y4096D01*
X3558Y4168D02*
X3560D01*
X3632Y4021D02*
Y4096D01*
X3750Y1932D02*
X3824D01*
X3843Y1912D01*
Y1863D02*
X3850Y1856D01*
X3843Y1793D02*
Y1849D01*
Y1863D02*
Y1912D01*
Y1849D02*
X3850Y1856D01*
X3828Y1778D02*
X3843Y1793D01*
X4414Y1990D02*
X4708D01*
X5586Y3678D02*
X5588Y3676D01*
Y2884D02*
Y3676D01*
X248Y1000D02*
X285Y1037D01*
X304D01*
X248Y910D02*
Y1000D01*
X372Y1034D02*
X379Y1041D01*
X439D02*
X439Y1041D01*
X304Y1037D02*
X369D01*
X372Y1034D01*
X379Y1041D02*
X439D01*
X439Y1041D02*
X475D01*
X251Y2100D02*
X364D01*
X183Y1224D02*
Y3391D01*
Y1224D02*
X241Y1166D01*
X183Y3391D02*
X754Y3962D01*
X1659Y3196D02*
X1699Y3156D01*
X1818D01*
X1650Y3196D02*
X1659D01*
X2858Y1792D02*
X2865Y1799D01*
X2456Y3156D02*
X2463Y3163D01*
X2556D01*
X2858Y824D02*
Y1792D01*
X2865Y1799D02*
Y2776D01*
X2858Y824D02*
X2873Y809D01*
X236Y4679D02*
X251Y4664D01*
X236Y4679D02*
Y4808D01*
X251Y4664D02*
X374D01*
X462Y4679D02*
Y4854D01*
X374Y4664D02*
X447D01*
X462Y4679D01*
X7132Y4752D02*
X7253D01*
X7268Y4767D01*
Y4878D01*
X7060Y4824D02*
Y4930D01*
Y4824D02*
X7132Y4752D01*
X7243Y1059D02*
X7303D01*
X7306Y1062D01*
X7202Y1018D02*
X7243Y1059D01*
X7202Y918D02*
Y1018D01*
X7082Y890D02*
X7174D01*
X7202Y918D01*
X7056Y864D02*
X7082Y890D01*
X6978Y864D02*
X7056D01*
X6299Y446D02*
X6423D01*
X6282Y463D02*
Y570D01*
Y463D02*
X6299Y446D01*
X6438Y461D02*
Y566D01*
X6423Y446D02*
X6438Y461D01*
X6436Y568D02*
X6438Y566D01*
X6622Y5402D02*
X6756D01*
X6760Y5406D01*
X5511D02*
X5880D01*
X4629Y5404D02*
X4631Y5406D01*
X4448Y5404D02*
X4629D01*
X4263Y5406D02*
X4265Y5404D01*
X4448D01*
X3381Y5408D02*
X3383Y5406D01*
X3014D02*
X3016Y5408D01*
X3381D01*
X1999D02*
X2133D01*
X2134Y5406D01*
X3545Y4006D02*
X3617D01*
X3540Y4001D02*
X3545Y4006D01*
X3617D02*
X3632Y4021D01*
X3560Y3156D02*
X3650D01*
X2128Y2400D02*
X2226D01*
X4912Y2396D02*
X4990D01*
X4990Y2396D01*
X6640Y2342D02*
X6640Y2341D01*
Y2236D02*
Y2341D01*
X7032Y1420D02*
Y1554D01*
X7027Y1416D02*
X7032Y1420D01*
X6418Y1392D02*
X6420Y1390D01*
X6418Y1392D02*
Y1528D01*
X4016Y514D02*
Y580D01*
X3938Y436D02*
X4016Y514D01*
X3857Y436D02*
X3938D01*
X3853Y432D02*
X3857Y436D01*
X3866Y1078D02*
X3996D01*
X738Y422D02*
X875D01*
X726Y766D02*
X877D01*
X475Y1041D02*
X490Y1026D01*
Y864D02*
Y1026D01*
X7030Y1814D02*
Y2048D01*
X7032Y2050D01*
X6006Y759D02*
Y863D01*
X5710Y1324D02*
X5727Y1307D01*
X5628Y1324D02*
X5710D01*
X5727Y1215D02*
Y1307D01*
X5625Y1321D02*
X5628Y1324D01*
X5549Y1305D02*
X5565Y1321D01*
X5549Y1215D02*
Y1305D01*
X5565Y1321D02*
X5625D01*
X6678Y1422D02*
Y1560D01*
X6672Y1416D02*
X6678Y1422D01*
X3413Y1482D02*
X3428Y1467D01*
X3348Y1482D02*
X3413D01*
X3428Y1376D02*
Y1467D01*
X3756Y1778D02*
X3828D01*
X3863Y804D02*
X4008D01*
X3857Y810D02*
X3863Y804D01*
X3866Y1078D02*
X3870Y1082D01*
X594Y1607D02*
Y1628D01*
X618Y1576D02*
Y1583D01*
X594Y1607D02*
X618Y1583D01*
X522Y1628D02*
X594D01*
X697Y1688D02*
X813Y1572D01*
X646Y1659D02*
Y1859D01*
Y1659D02*
X760Y1545D01*
X697Y1688D02*
Y1787D01*
X522Y1604D02*
Y1628D01*
X760Y1462D02*
Y1545D01*
X261Y1628D02*
X326D01*
X246Y1643D02*
Y1844D01*
Y1643D02*
X261Y1628D01*
X246Y1844D02*
X261Y1859D01*
X328D01*
X524D02*
X646D01*
X1016Y1846D02*
Y1912D01*
X1011Y1841D02*
X1016Y1846D01*
X1011Y1797D02*
Y1841D01*
X1001Y1787D02*
X1011Y1797D01*
X927Y1787D02*
X1001D01*
X927D02*
X929Y1784D01*
X1001Y1926D02*
X1016Y1912D01*
X927Y1926D02*
X1001D01*
X726Y1050D02*
X727Y1049D01*
X242Y904D02*
X248Y910D01*
X871Y772D02*
X877Y766D01*
X861Y408D02*
X875Y422D01*
X726Y1050D02*
X904D01*
X268Y1380D02*
X362D01*
X1887Y4801D02*
Y5037D01*
Y4801D02*
X1890Y4798D01*
X1884Y5040D02*
X1887Y5037D01*
X5838Y3562D02*
Y4784D01*
X5194Y4788D02*
Y4988D01*
Y4788D02*
X5196Y4786D01*
X5150Y5032D02*
X5194Y4988D01*
X5071Y5047D02*
X5086Y5032D01*
X5150D01*
X5071Y5047D02*
Y5622D01*
X5950Y3384D02*
X5952Y3386D01*
Y4858D02*
X5954Y4860D01*
X5952Y3386D02*
Y4858D01*
X6064Y5615D02*
X6070Y5622D01*
X6064Y3138D02*
Y5615D01*
X6320Y3710D02*
Y5622D01*
X4856Y3544D02*
Y3646D01*
Y3544D02*
X4930Y3470D01*
X4824Y3678D02*
X4856Y3646D01*
X5080Y3386D02*
Y3676D01*
X5078Y3678D02*
X5080Y3676D01*
X5334Y3140D02*
Y3676D01*
X5332Y3678D02*
X5334Y3676D01*
X7100Y5168D02*
X7199D01*
X7075D02*
X7100D01*
Y5406D01*
X7060Y5153D02*
X7075Y5168D01*
X7060Y5082D02*
Y5153D01*
X7199Y5168D02*
X7199Y5168D01*
X7253D02*
X7268Y5153D01*
X7199Y5168D02*
X7253D01*
X7268Y5074D02*
Y5153D01*
X7202Y603D02*
Y646D01*
X7100Y501D02*
X7202Y603D01*
X6978Y712D02*
X6988D01*
X7026Y646D02*
X7202D01*
Y722D01*
X6988Y712D02*
X7011Y689D01*
Y661D02*
Y689D01*
Y661D02*
X7026Y646D01*
X3148Y4254D02*
X3152Y4250D01*
Y4142D02*
Y4250D01*
Y4142D02*
X3166Y4128D01*
X3218Y4001D02*
X3344D01*
X3098D02*
X3218D01*
X3148Y4254D02*
X3156Y4262D01*
X3203Y4128D02*
X3218Y4113D01*
Y4001D02*
Y4113D01*
X3166Y4128D02*
X3203D01*
X3228Y3156D02*
X3364D01*
X3098D02*
X3228D01*
X3156Y3301D02*
X3171Y3286D01*
X3213D01*
X3156Y3301D02*
Y3400D01*
X3228Y3156D02*
Y3271D01*
X3213Y3286D02*
X3228Y3271D01*
X2137Y3156D02*
X2260D01*
X2014D02*
X2137D01*
X2066Y3396D02*
X2071Y3400D01*
X2066Y3302D02*
Y3396D01*
X2137Y3156D02*
Y3231D01*
X2066Y3302D02*
X2137Y3231D01*
X2122Y4001D02*
X2260D01*
X2014D02*
X2122D01*
X2071Y4169D02*
X2086Y4154D01*
X2107D01*
X2071Y4169D02*
Y4262D01*
X2122Y4001D02*
Y4139D01*
X2107Y4154D02*
X2122Y4139D01*
X236Y5004D02*
Y5083D01*
X251Y5098D01*
X425D01*
X468Y5012D02*
Y5083D01*
X453Y5098D02*
X468Y5083D01*
X425Y5098D02*
X453D01*
X462Y5006D02*
X468Y5012D01*
X410Y5113D02*
X425Y5098D01*
X410Y5113D02*
Y5400D01*
X404Y5406D02*
X410Y5400D01*
X2896Y3162D02*
X2902Y3156D01*
X2682Y3162D02*
X2896D01*
X1110Y3274D02*
Y4585D01*
X754Y4941D02*
Y4962D01*
Y4941D02*
X1110Y4585D01*
X903Y4462D02*
X1023Y4343D01*
X2721Y4001D02*
X2902D01*
X754Y4462D02*
X903D01*
X946Y3120D02*
Y3520D01*
X754Y3712D02*
X946Y3520D01*
X7100Y400D02*
Y501D01*
X6678Y764D02*
Y857D01*
X6663Y872D02*
X6678Y857D01*
X6451Y872D02*
X6663D01*
X6436Y764D02*
Y857D01*
X6451Y872D01*
X5765Y467D02*
X5780Y452D01*
X5991D01*
X5765Y467D02*
Y563D01*
X6006Y467D02*
Y563D01*
X5991Y452D02*
X6006Y467D01*
X3059Y1482D02*
X3153D01*
X3044Y1497D02*
Y1708D01*
X3153Y1482D02*
X3153Y1482D01*
X3044Y1497D02*
X3059Y1482D01*
Y1723D02*
X3153D01*
X3044Y1708D02*
X3059Y1723D01*
X468Y631D02*
Y690D01*
Y464D02*
Y631D01*
X242Y708D02*
X253Y697D01*
Y631D02*
X468D01*
X253D02*
Y697D01*
X404Y400D02*
X468Y464D01*
Y690D02*
X490Y712D01*
X558Y1170D02*
X679D01*
X1813Y4006D02*
X1818Y4001D01*
X1674Y4006D02*
X1813D01*
X1184Y4708D02*
Y4990D01*
X1134Y5040D02*
X1184Y4990D01*
X1134Y5040D02*
X1384D01*
X1526Y2958D02*
Y2966D01*
X1485Y3008D02*
Y4708D01*
Y3008D02*
X1526Y2966D01*
X5304Y622D02*
X5363Y563D01*
X5523D01*
X5724Y974D02*
X5825D01*
X5965Y1114D01*
X5750Y878D02*
X5765Y863D01*
X5538Y878D02*
X5750D01*
X5765Y759D02*
Y863D01*
X5523Y759D02*
Y863D01*
X5538Y878D01*
X5974Y1214D02*
X6040D01*
X5965Y1114D02*
X6040D01*
X5565Y974D02*
X5724D01*
X5727Y977D02*
Y1062D01*
X5724Y974D02*
X5727Y977D01*
X5549Y1062D02*
X5550Y1061D01*
Y989D02*
Y1061D01*
Y989D02*
X5565Y974D01*
X6412Y1163D02*
X6420Y1171D01*
Y1238D01*
X7026Y1124D02*
X7027Y1126D01*
X7026Y968D02*
Y1124D01*
X6672Y1126D02*
X6672Y1126D01*
Y968D02*
Y1126D01*
Y563D02*
X6678Y568D01*
X6672Y200D02*
Y563D01*
X3014Y1965D02*
X3153D01*
X3440Y1726D02*
Y1950D01*
Y1624D02*
Y1726D01*
X3437Y1723D02*
X3440Y1726D01*
X3348Y1723D02*
X3437D01*
X3582Y1448D02*
Y1604D01*
X3794Y1502D02*
X3814Y1522D01*
Y1612D01*
X3508Y1678D02*
X3582Y1604D01*
X3440Y1624D02*
X3525Y1539D01*
X3348Y1965D02*
X3425D01*
X3440Y1950D01*
X3508Y1678D02*
Y1778D01*
X3581Y1448D02*
X3582Y1448D01*
X3681D02*
X3681Y1448D01*
X3681Y1448D02*
Y1492D01*
X3508Y1778D02*
Y1913D01*
Y1778D02*
X3604D01*
X3594Y1928D02*
X3598Y1932D01*
X3523Y1928D02*
X3594D01*
X3508Y1913D02*
X3523Y1928D01*
X3631Y1089D02*
X3703D01*
X3714Y1078D01*
X3255Y809D02*
Y1019D01*
X3254Y1020D02*
X3255Y1019D01*
X2873Y809D02*
X3059D01*
X646Y1859D02*
Y2089D01*
X697Y1787D02*
Y1913D01*
Y1787D02*
X774D01*
X697Y1913D02*
X712Y1928D01*
X773D01*
X560Y2100D02*
X564Y2104D01*
X631D01*
X646Y2089D01*
X773Y1928D02*
X774Y1926D01*
X813Y1460D02*
Y1572D01*
X913Y1460D02*
Y1521D01*
X1024Y1545D02*
Y1648D01*
X1000Y1521D02*
X1024Y1545D01*
X799Y1190D02*
Y1219D01*
X812Y1231D02*
Y1260D01*
X636Y1380D02*
X664Y1352D01*
X679Y1170D02*
X779D01*
X799Y1219D02*
X812Y1231D01*
X779Y1170D02*
X799Y1190D01*
X664Y1185D02*
Y1352D01*
X1056Y1050D02*
X1214D01*
X1334Y766D02*
X1336Y768D01*
X1167Y766D02*
X1334D01*
X1165Y422D02*
X1530D01*
X863Y1170D02*
Y1300D01*
X664Y1185D02*
X679Y1170D01*
X558Y1380D02*
X636D01*
X358Y1166D02*
X362Y1170D01*
X241Y1166D02*
X358D01*
X1634Y5040D02*
X1884D01*
X6200Y1164D02*
X6318D01*
X3631Y1180D02*
Y1288D01*
X3432Y810D02*
X3567D01*
X3430Y432D02*
X3563D01*
X2378Y2400D02*
X2384Y2394D01*
X5148Y2402D02*
X5422D01*
X2429Y2028D02*
X2433Y2024D01*
X5150Y1992D02*
X5422D01*
X2384Y2394D02*
X2784D01*
X5148Y1990D02*
X5150Y1992D01*
X2433Y2024D02*
X2784D01*
X5142Y2396D02*
X5148Y2402D01*
X6640Y2494D02*
X6640Y2495D01*
X7028Y2494D02*
Y2688D01*
Y2494D02*
X7032Y2490D01*
X6640Y2495D02*
Y2688D01*
D17*
X5511Y5406D02*
D03*
X4631D02*
D03*
X5880D02*
D03*
X6760D02*
D03*
X3383D02*
D03*
X4263D02*
D03*
X2134D02*
D03*
X3014D02*
D03*
D18*
X5321Y5622D02*
D03*
X5071D02*
D03*
X4821D02*
D03*
X6070D02*
D03*
X6320D02*
D03*
X6570D02*
D03*
X3573D02*
D03*
X3823D02*
D03*
X4073D02*
D03*
X2324D02*
D03*
X2574D02*
D03*
X2824D02*
D03*
D19*
X3866Y1078D02*
D03*
X3714D02*
D03*
X3662Y1612D02*
D03*
X3814D02*
D03*
X3604Y1778D02*
D03*
X3756D02*
D03*
X3598Y1932D02*
D03*
X3750D02*
D03*
X5142Y2396D02*
D03*
X4990D02*
D03*
X2378Y2400D02*
D03*
X2226D02*
D03*
X872Y1648D02*
D03*
X1024D02*
D03*
X774Y1926D02*
D03*
X927D02*
D03*
X774Y1787D02*
D03*
X927D02*
D03*
X1056Y1050D02*
D03*
X904D02*
D03*
D20*
X590Y2834D02*
D03*
Y2434D02*
D03*
D21*
X236Y4808D02*
D03*
Y5004D02*
D03*
X7268Y4878D02*
D03*
Y5074D02*
D03*
X242Y904D02*
D03*
Y708D02*
D03*
X7202Y918D02*
D03*
Y722D02*
D03*
X6006Y759D02*
D03*
Y563D02*
D03*
X5765D02*
D03*
Y759D02*
D03*
X5523D02*
D03*
Y563D02*
D03*
X6678Y568D02*
D03*
Y764D02*
D03*
X6436D02*
D03*
Y568D02*
D03*
D22*
X462Y4854D02*
D03*
Y5006D02*
D03*
X7060Y5082D02*
D03*
Y4930D02*
D03*
X490Y712D02*
D03*
Y864D02*
D03*
X6978Y712D02*
D03*
Y864D02*
D03*
X6640Y2494D02*
D03*
Y2342D02*
D03*
X5864Y1173D02*
D03*
Y1325D02*
D03*
X5549Y1062D02*
D03*
Y1215D02*
D03*
X5727Y1062D02*
D03*
Y1215D02*
D03*
X6420Y1238D02*
D03*
Y1390D02*
D03*
D23*
X558Y1170D02*
D03*
X362D02*
D03*
X2014Y4001D02*
D03*
X1818D02*
D03*
X2260D02*
D03*
X2456D02*
D03*
X3344D02*
D03*
X3540D02*
D03*
X2456Y3156D02*
D03*
X2260D02*
D03*
X1818D02*
D03*
X2014D02*
D03*
X3098Y4001D02*
D03*
X2902D02*
D03*
Y3156D02*
D03*
X3098D02*
D03*
X3560D02*
D03*
X3364D02*
D03*
X3348Y1965D02*
D03*
X3153D02*
D03*
Y1723D02*
D03*
X3348D02*
D03*
Y1482D02*
D03*
X3153D02*
D03*
X3254Y1020D02*
D03*
X3058D02*
D03*
X3059Y809D02*
D03*
X3255D02*
D03*
X560Y2100D02*
D03*
X364D02*
D03*
X522Y1628D02*
D03*
X326D02*
D03*
X558Y1380D02*
D03*
X362D02*
D03*
X328Y1859D02*
D03*
X524D02*
D03*
D24*
X1290Y2724D02*
D03*
X1015D02*
D03*
X1294Y2488D02*
D03*
X1019D02*
D03*
X1298Y2958D02*
D03*
X1023D02*
D03*
D25*
X1184Y4708D02*
D03*
X1485D02*
D03*
D26*
X6026Y2683D02*
D03*
Y1793D02*
D03*
D27*
X7032Y2490D02*
D03*
Y2050D02*
D03*
D28*
X2166Y3635D02*
D03*
X2261Y3400D02*
D03*
X2071D02*
D03*
X3251Y3635D02*
D03*
X3346Y3400D02*
D03*
X3156D02*
D03*
X2166Y4497D02*
D03*
X2261Y4262D02*
D03*
X2071D02*
D03*
X3251Y4497D02*
D03*
X3346Y4262D02*
D03*
X3156D02*
D03*
D29*
X4269Y1168D02*
D03*
X5159D02*
D03*
X1548Y1190D02*
D03*
X2438D02*
D03*
D30*
X6672Y1416D02*
D03*
Y1126D02*
D03*
X7027Y1416D02*
D03*
Y1126D02*
D03*
D31*
X6200Y1064D02*
D03*
Y1114D02*
D03*
Y1164D02*
D03*
Y1214D02*
D03*
X6040D02*
D03*
Y1164D02*
D03*
Y1114D02*
D03*
Y1064D02*
D03*
D32*
X4708Y1990D02*
D03*
X5148D02*
D03*
X1989Y2028D02*
D03*
X2429D02*
D03*
D33*
X3857Y810D02*
D03*
X3567D02*
D03*
X3853Y432D02*
D03*
X3563D02*
D03*
X877Y766D02*
D03*
X1167D02*
D03*
X875Y422D02*
D03*
X1165D02*
D03*
D34*
X3531Y1288D02*
D03*
X3581D02*
D03*
X3631D02*
D03*
X3681D02*
D03*
Y1448D02*
D03*
X3631D02*
D03*
X3581D02*
D03*
X3531D02*
D03*
X763Y1300D02*
D03*
X813D02*
D03*
X863D02*
D03*
X913D02*
D03*
Y1460D02*
D03*
X863D02*
D03*
X813D02*
D03*
X763D02*
D03*
D58*
X2261Y3293D02*
Y3400D01*
X3346Y4170D02*
Y4262D01*
X3344Y4168D02*
X3346Y4170D01*
X2261Y4154D02*
Y4262D01*
X2260Y4154D02*
X2261Y4154D01*
X3346Y3295D02*
Y3400D01*
X3344Y3293D02*
X3346Y3295D01*
X3546Y3676D02*
X3548Y3678D01*
X3808D01*
Y4021D01*
X863Y1170D02*
X1184D01*
X1000Y1521D02*
X1300Y1222D01*
Y1190D02*
Y1222D01*
X6026Y2683D02*
Y2972D01*
X4821Y4786D02*
X4824Y4784D01*
Y4021D02*
Y4784D01*
X2570Y4642D02*
Y5617D01*
X3532Y4870D02*
X3546D01*
X3016D02*
X3532D01*
X5078Y4021D02*
Y4862D01*
X5084Y4868D01*
X5586Y4021D02*
Y4504D01*
X5332Y4021D02*
X5342Y4031D01*
Y4666D01*
X4068Y4506D02*
Y5617D01*
X4073Y5622D01*
X3251Y3635D02*
Y3781D01*
X3254Y3784D01*
X3573Y5622D02*
X3576Y5618D01*
Y4900D02*
Y5618D01*
X3546Y4870D02*
X3576Y4900D01*
X2986Y4840D02*
X3016Y4870D01*
X2986Y4382D02*
Y4840D01*
X3570Y5619D02*
X3573Y5622D01*
X2166Y3635D02*
Y3780D01*
X2166Y3780D01*
X3250Y4499D02*
X3251Y4497D01*
X3250Y4499D02*
Y4664D01*
X3820Y4674D02*
X3823Y4677D01*
Y5622D01*
X2570Y5617D02*
X2574Y5622D01*
X2196Y4612D02*
X2540D01*
X2570Y4642D01*
X2166Y4498D02*
Y4582D01*
X2196Y4612D01*
X2166Y4497D02*
X2166Y4498D01*
X5974Y1326D02*
Y1388D01*
Y1232D02*
Y1326D01*
X6026Y1440D02*
Y1793D01*
X5974Y1388D02*
X6026Y1440D01*
X2784Y5472D02*
X2816Y5504D01*
X2784Y5424D02*
Y5472D01*
X2816Y5504D02*
Y5613D01*
X2824Y5622D01*
X4821Y5462D02*
Y5622D01*
X3696Y1502D02*
X3794D01*
X3824Y1472D01*
Y1346D02*
Y1472D01*
Y1346D02*
X3960Y1210D01*
X4227D01*
X4269Y1168D01*
X3506Y1078D02*
X3620D01*
X3631Y1089D01*
X927Y1521D02*
X1000D01*
X1300Y1190D02*
X1548D01*
X6478Y5448D02*
X6538D01*
X6570Y5480D01*
Y5622D01*
X2438Y1190D02*
X2784D01*
X2438Y1190D02*
X2438Y1190D01*
X5159Y1168D02*
X5163Y1164D01*
X5422D01*
X6412Y1096D02*
Y1163D01*
X6318Y1164D02*
X6411D01*
X6412Y1163D01*
Y1230D02*
X6420Y1238D01*
X6412Y1096D02*
X6540Y968D01*
X6672D01*
X1184Y1170D02*
X1214Y1140D01*
Y1050D02*
Y1140D01*
X1338Y766D02*
X1530D01*
X1336Y768D02*
Y928D01*
Y768D02*
X1338Y766D01*
X1214Y1050D02*
X1336Y928D01*
X3631Y1089D02*
Y1180D01*
X3428Y814D02*
Y1000D01*
Y434D02*
Y814D01*
X3432Y810D01*
X3428Y1000D02*
X3506Y1078D01*
X3428Y434D02*
X3430Y432D01*
D59*
X2324Y5374D02*
Y5622D01*
X2324Y5374D02*
X2324Y5374D01*
X596Y2840D02*
Y3034D01*
X590Y2834D02*
X596Y2840D01*
X1294Y2488D02*
X1295Y2490D01*
X1522D01*
X1290Y2724D02*
X1530D01*
X1298Y2958D02*
X1526D01*
X846D02*
X1023D01*
X840Y2720D02*
X1011D01*
X1015Y2724D01*
X841Y2488D02*
X1019D01*
X827Y2255D02*
X844Y2272D01*
X650Y2255D02*
X827D01*
X590Y2314D02*
Y2434D01*
Y2314D02*
X650Y2255D01*
X3561Y434D02*
X3563Y432D01*
X6556Y5621D02*
X6557Y5622D01*
X6570D01*
D60*
X2944Y1024D02*
X3054D01*
D61*
X3531Y1448D02*
Y1533D01*
D62*
X3808Y3678D02*
D03*
X4062D02*
D03*
X4316D02*
D03*
X4570D02*
D03*
X5078D02*
D03*
X5332D02*
D03*
X4824D02*
D03*
Y4021D02*
D03*
X5332D02*
D03*
X5078D02*
D03*
X4570D02*
D03*
X4316D02*
D03*
X4062D02*
D03*
X3808D02*
D03*
D63*
X5586Y3678D02*
D03*
Y4021D02*
D03*
D64*
X1134Y5040D02*
D03*
D65*
X1384D02*
D03*
X1634D02*
D03*
X1884D02*
D03*
X754Y3462D02*
D03*
Y3712D02*
D03*
Y3962D02*
D03*
Y4212D02*
D03*
Y4462D02*
D03*
Y4712D02*
D03*
Y4962D02*
D03*
X6748Y2886D02*
D03*
Y3136D02*
D03*
Y3386D02*
D03*
Y3636D02*
D03*
Y3886D02*
D03*
Y4136D02*
D03*
Y4386D02*
D03*
D66*
X754Y3212D02*
D03*
X6748Y4636D02*
D03*
D67*
X404Y5406D02*
D03*
X7100D02*
D03*
Y400D02*
D03*
X404D02*
D03*
D68*
X1744Y2020D02*
D03*
X6288Y979D02*
D03*
X1023Y3195D02*
D03*
X2692Y4696D02*
D03*
X5326Y4872D02*
D03*
X2564Y4007D02*
D03*
X3558Y4168D02*
D03*
X3850Y1856D02*
D03*
X4414Y1990D02*
D03*
X5588Y2884D02*
D03*
X372Y1034D02*
D03*
X251Y2100D02*
D03*
X1650Y3196D02*
D03*
X2261Y3293D02*
D03*
X2556Y3163D02*
D03*
X2865Y2776D02*
D03*
X374Y4664D02*
D03*
X7132Y4752D02*
D03*
X7306Y1062D02*
D03*
X6282Y570D02*
D03*
X6622Y5402D02*
D03*
X5698Y5406D02*
D03*
X4448Y5404D02*
D03*
X3204Y5408D02*
D03*
X1999D02*
D03*
X2324Y5374D02*
D03*
X3344Y4168D02*
D03*
X2260Y4154D02*
D03*
X3344Y3293D02*
D03*
X3650Y3156D02*
D03*
X2128Y2400D02*
D03*
X4912Y2396D02*
D03*
X6640Y2236D02*
D03*
X7032Y1554D02*
D03*
X6418Y1528D02*
D03*
X4016Y580D02*
D03*
X3996Y1078D02*
D03*
X738Y422D02*
D03*
X726Y766D02*
D03*
X3546Y3676D02*
D03*
X7030Y1814D02*
D03*
X6006Y863D02*
D03*
X5628Y1324D02*
D03*
X6318Y1263D02*
D03*
X6678Y1560D02*
D03*
X3428Y1376D02*
D03*
X3780Y1212D02*
D03*
X4008Y804D02*
D03*
X2944Y1024D02*
D03*
X1047Y1254D02*
D03*
X618Y1576D02*
D03*
X1016Y1846D02*
D03*
X726Y1050D02*
D03*
X268Y1380D02*
D03*
X1890Y4798D02*
D03*
X596Y3034D02*
D03*
X1348Y1620D02*
D03*
X310Y2624D02*
D03*
X1354Y1980D02*
D03*
X5838Y3562D02*
D03*
Y4784D02*
D03*
X5196Y4786D02*
D03*
X5954Y4860D02*
D03*
X5950Y3384D02*
D03*
X6064Y3138D02*
D03*
X6320Y3710D02*
D03*
X4930Y3470D02*
D03*
X6026Y2972D02*
D03*
X5080Y3386D02*
D03*
X5334Y3140D02*
D03*
X4821Y4786D02*
D03*
X2564D02*
D03*
X3532Y4870D02*
D03*
X5084Y4868D02*
D03*
X5586Y4504D02*
D03*
X5342Y4666D02*
D03*
X4068Y4506D02*
D03*
X3254Y3784D02*
D03*
X2986Y4382D02*
D03*
X2166Y3780D02*
D03*
X3250Y4664D02*
D03*
X3820Y4674D02*
D03*
X2682Y3162D02*
D03*
X1110Y3274D02*
D03*
X1674Y4006D02*
D03*
X5304Y622D02*
D03*
X6672Y200D02*
D03*
X4821Y5462D02*
D03*
X3014Y1965D02*
D03*
X946Y3120D02*
D03*
X7026Y968D02*
D03*
X6672Y968D02*
D03*
X1530Y766D02*
D03*
Y422D02*
D03*
X844Y2272D02*
D03*
X3428Y434D02*
D03*
X846Y2958D02*
D03*
X840Y2720D02*
D03*
X841Y2488D02*
D03*
X1522Y2490D02*
D03*
X1530Y2724D02*
D03*
Y2962D02*
D03*
X6640Y2688D02*
D03*
X7028D02*
D03*
X6478Y5448D02*
D03*
X5422Y2402D02*
D03*
Y1992D02*
D03*
Y1164D02*
D03*
X2784Y2394D02*
D03*
Y2024D02*
D03*
X2784Y5424D02*
D03*
X2784Y1190D02*
D03*
M02*
