G04*
G04 #@! TF.GenerationSoftware,Altium Limited,Altium Designer,22.8.2 (66)*
G04*
G04 Layer_Color=16711935*
%FSLAX42Y42*%
%MOMM*%
G71*
G04*
G04 #@! TF.SameCoordinates,0533CB18-9495-43A3-8B9C-2A5BF5C5928D*
G04*
G04*
G04 #@! TF.FilePolarity,Negative*
G04*
G01*
G75*
%ADD51P,2.17X8X202.5*%
%ADD52R,2.00X2.00*%
%ADD53R,1.85X1.85*%
%ADD54C,1.85*%
%ADD55R,1.85X1.85*%
%ADD56C,4.20*%
%ADD57C,0.40*%
%ADD71R,2.74X1.47*%
%ADD72R,1.85X3.63*%
D51*
X3808Y3678D02*
D03*
X4062D02*
D03*
X4316D02*
D03*
X4570D02*
D03*
X5078D02*
D03*
X5332D02*
D03*
X4824D02*
D03*
Y4021D02*
D03*
X5332D02*
D03*
X5078D02*
D03*
X4570D02*
D03*
X4316D02*
D03*
X4062D02*
D03*
X3808D02*
D03*
D52*
X5586Y3678D02*
D03*
Y4021D02*
D03*
D53*
X1134Y5040D02*
D03*
D54*
X1384D02*
D03*
X1634D02*
D03*
X1884D02*
D03*
X754Y3462D02*
D03*
Y3712D02*
D03*
Y3962D02*
D03*
Y4212D02*
D03*
Y4462D02*
D03*
Y4712D02*
D03*
Y4962D02*
D03*
X6748Y2886D02*
D03*
Y3136D02*
D03*
Y3386D02*
D03*
Y3636D02*
D03*
Y3886D02*
D03*
Y4136D02*
D03*
Y4386D02*
D03*
D55*
X754Y3212D02*
D03*
X6748Y4636D02*
D03*
D56*
X404Y5406D02*
D03*
X7100D02*
D03*
Y400D02*
D03*
X404D02*
D03*
D57*
X1744Y2020D02*
D03*
X6288Y979D02*
D03*
X1023Y3195D02*
D03*
X2692Y4696D02*
D03*
X5326Y4872D02*
D03*
X2564Y4007D02*
D03*
X3558Y4168D02*
D03*
X3850Y1856D02*
D03*
X4414Y1990D02*
D03*
X5588Y2884D02*
D03*
X372Y1034D02*
D03*
X251Y2100D02*
D03*
X1650Y3196D02*
D03*
X2261Y3293D02*
D03*
X2556Y3163D02*
D03*
X2865Y2776D02*
D03*
X374Y4664D02*
D03*
X7132Y4752D02*
D03*
X7306Y1062D02*
D03*
X6282Y570D02*
D03*
X6622Y5402D02*
D03*
X5698Y5406D02*
D03*
X4448Y5404D02*
D03*
X3204Y5408D02*
D03*
X1999D02*
D03*
X2324Y5374D02*
D03*
X3344Y4168D02*
D03*
X2260Y4154D02*
D03*
X3344Y3293D02*
D03*
X3650Y3156D02*
D03*
X2128Y2400D02*
D03*
X4912Y2396D02*
D03*
X6640Y2236D02*
D03*
X7032Y1554D02*
D03*
X6418Y1528D02*
D03*
X4016Y580D02*
D03*
X3996Y1078D02*
D03*
X738Y422D02*
D03*
X726Y766D02*
D03*
X3546Y3676D02*
D03*
X7030Y1814D02*
D03*
X6006Y863D02*
D03*
X5628Y1324D02*
D03*
X6318Y1263D02*
D03*
X6678Y1560D02*
D03*
X3428Y1376D02*
D03*
X3780Y1212D02*
D03*
X4008Y804D02*
D03*
X2944Y1024D02*
D03*
X1047Y1254D02*
D03*
X618Y1576D02*
D03*
X1016Y1846D02*
D03*
X726Y1050D02*
D03*
X268Y1380D02*
D03*
X1890Y4798D02*
D03*
X596Y3034D02*
D03*
X1348Y1620D02*
D03*
X310Y2624D02*
D03*
X1354Y1980D02*
D03*
X5838Y3562D02*
D03*
Y4784D02*
D03*
X5196Y4786D02*
D03*
X5954Y4860D02*
D03*
X5950Y3384D02*
D03*
X6064Y3138D02*
D03*
X6320Y3710D02*
D03*
X4930Y3470D02*
D03*
X6026Y2972D02*
D03*
X5080Y3386D02*
D03*
X5334Y3140D02*
D03*
X4821Y4786D02*
D03*
X2564D02*
D03*
X3532Y4870D02*
D03*
X5084Y4868D02*
D03*
X5586Y4504D02*
D03*
X5342Y4666D02*
D03*
X4068Y4506D02*
D03*
X3254Y3784D02*
D03*
X2986Y4382D02*
D03*
X2166Y3780D02*
D03*
X3250Y4664D02*
D03*
X3820Y4674D02*
D03*
X2682Y3162D02*
D03*
X1110Y3274D02*
D03*
X1674Y4006D02*
D03*
X5304Y622D02*
D03*
X6672Y200D02*
D03*
X4821Y5462D02*
D03*
X3014Y1965D02*
D03*
X946Y3120D02*
D03*
X7026Y968D02*
D03*
X6672Y968D02*
D03*
X1530Y766D02*
D03*
Y422D02*
D03*
X844Y2272D02*
D03*
X3428Y434D02*
D03*
X846Y2958D02*
D03*
X840Y2720D02*
D03*
X841Y2488D02*
D03*
X1522Y2490D02*
D03*
X1530Y2724D02*
D03*
Y2962D02*
D03*
X6640Y2688D02*
D03*
X7028D02*
D03*
X6478Y5448D02*
D03*
X5422Y2402D02*
D03*
Y1992D02*
D03*
Y1164D02*
D03*
X2784Y2394D02*
D03*
Y2024D02*
D03*
X2784Y5424D02*
D03*
X2784Y1190D02*
D03*
D71*
X1014Y1972D02*
D03*
Y2272D02*
D03*
D72*
X460Y1614D02*
D03*
Y2630D02*
D03*
M02*
