G04*
G04 #@! TF.GenerationSoftware,Altium Limited,Altium Designer,22.8.2 (66)*
G04*
G04 Layer_Color=128*
%FSLAX42Y42*%
%MOMM*%
G71*
G04*
G04 #@! TF.SameCoordinates,0533CB18-9495-43A3-8B9C-2A5BF5C5928D*
G04*
G04*
G04 #@! TF.FilePolarity,Positive*
G04*
G01*
G75*
%ADD74C,0.05*%
D74*
X3758Y3678D02*
X3858D01*
X3808Y3628D02*
Y3728D01*
X4012Y3678D02*
X4112D01*
X4062Y3628D02*
Y3728D01*
X4266Y3678D02*
X4366D01*
X4316Y3628D02*
Y3728D01*
X4520Y3678D02*
X4620D01*
X4570Y3628D02*
Y3728D01*
X5028Y3678D02*
X5128D01*
X5078Y3628D02*
Y3728D01*
X5282Y3678D02*
X5382D01*
X5332Y3628D02*
Y3728D01*
X5536Y3678D02*
X5636D01*
X5586Y3628D02*
Y3728D01*
X4774Y3678D02*
X4874D01*
X4824Y3628D02*
Y3728D01*
X4774Y4021D02*
X4874D01*
X4824Y3971D02*
Y4071D01*
X5536Y4021D02*
X5636D01*
X5586Y3971D02*
Y4071D01*
X5282Y4021D02*
X5382D01*
X5332Y3971D02*
Y4071D01*
X5028Y4021D02*
X5128D01*
X5078Y3971D02*
Y4071D01*
X4520Y4021D02*
X4620D01*
X4570Y3971D02*
Y4071D01*
X4266Y4021D02*
X4366D01*
X4316Y3971D02*
Y4071D01*
X4012Y4021D02*
X4112D01*
X4062Y3971D02*
Y4071D01*
X3758Y4021D02*
X3858D01*
X3808Y3971D02*
Y4071D01*
X1079Y5040D02*
X1189D01*
X1134Y4985D02*
Y5095D01*
X1329Y5040D02*
X1439D01*
X1384Y4985D02*
Y5095D01*
X1579Y5040D02*
X1689D01*
X1634Y4985D02*
Y5095D01*
X1829Y5040D02*
X1939D01*
X1884Y4985D02*
Y5095D01*
X699Y3212D02*
X809D01*
X754Y3157D02*
Y3267D01*
X699Y3462D02*
X809D01*
X754Y3407D02*
Y3517D01*
X699Y3712D02*
X809D01*
X754Y3657D02*
Y3767D01*
X699Y3962D02*
X809D01*
X754Y3907D02*
Y4017D01*
X699Y4212D02*
X809D01*
X754Y4157D02*
Y4267D01*
X699Y4462D02*
X809D01*
X754Y4407D02*
Y4517D01*
X699Y4712D02*
X809D01*
X754Y4657D02*
Y4767D01*
X699Y4962D02*
X809D01*
X754Y4907D02*
Y5017D01*
X274Y5406D02*
X534D01*
X404Y5276D02*
Y5536D01*
X6970Y5406D02*
X7230D01*
X7100Y5276D02*
Y5536D01*
X6970Y400D02*
X7230D01*
X7100Y270D02*
Y530D01*
X274Y400D02*
X534D01*
X404Y270D02*
Y530D01*
X6693Y2886D02*
X6803D01*
X6748Y2831D02*
Y2941D01*
X6693Y3136D02*
X6803D01*
X6748Y3081D02*
Y3191D01*
X6693Y3386D02*
X6803D01*
X6748Y3331D02*
Y3441D01*
X6693Y3636D02*
X6803D01*
X6748Y3581D02*
Y3691D01*
X6693Y3886D02*
X6803D01*
X6748Y3831D02*
Y3941D01*
X6693Y4136D02*
X6803D01*
X6748Y4081D02*
Y4191D01*
X6693Y4386D02*
X6803D01*
X6748Y4331D02*
Y4441D01*
X6693Y4636D02*
X6803D01*
X6748Y4581D02*
Y4691D01*
X1729Y2020D02*
X1759D01*
X1744Y2005D02*
Y2035D01*
X6273Y979D02*
X6303D01*
X6288Y964D02*
Y994D01*
X1007Y3195D02*
X1038D01*
X1023Y3180D02*
Y3210D01*
X2677Y4696D02*
X2707D01*
X2692Y4681D02*
Y4711D01*
X5311Y4872D02*
X5341D01*
X5326Y4857D02*
Y4887D01*
X2549Y4007D02*
X2579D01*
X2564Y3992D02*
Y4022D01*
X3543Y4168D02*
X3573D01*
X3558Y4153D02*
Y4183D01*
X3835Y1856D02*
X3865D01*
X3850Y1841D02*
Y1871D01*
X4399Y1990D02*
X4429D01*
X4414Y1975D02*
Y2005D01*
X5573Y2884D02*
X5603D01*
X5588Y2869D02*
Y2899D01*
X357Y1034D02*
X387D01*
X372Y1019D02*
Y1049D01*
X236Y2100D02*
X266D01*
X251Y2085D02*
Y2115D01*
X1635Y3196D02*
X1665D01*
X1650Y3181D02*
Y3211D01*
X2246Y3293D02*
X2276D01*
X2261Y3278D02*
Y3308D01*
X2541Y3163D02*
X2571D01*
X2556Y3148D02*
Y3178D01*
X2850Y2776D02*
X2880D01*
X2865Y2761D02*
Y2791D01*
X359Y4664D02*
X389D01*
X374Y4649D02*
Y4679D01*
X7117Y4752D02*
X7147D01*
X7132Y4737D02*
Y4767D01*
X7291Y1062D02*
X7321D01*
X7306Y1047D02*
Y1077D01*
X6267Y570D02*
X6297D01*
X6282Y555D02*
Y585D01*
X6607Y5402D02*
X6637D01*
X6622Y5387D02*
Y5417D01*
X5683Y5406D02*
X5713D01*
X5698Y5392D02*
Y5422D01*
X4433Y5404D02*
X4463D01*
X4448Y5389D02*
Y5419D01*
X3189Y5408D02*
X3219D01*
X3204Y5393D02*
Y5423D01*
X1983Y5408D02*
X2014D01*
X1999Y5393D02*
Y5423D01*
X2309Y5374D02*
X2339D01*
X2324Y5359D02*
Y5389D01*
X3329Y4168D02*
X3359D01*
X3344Y4153D02*
Y4183D01*
X2245Y4154D02*
X2275D01*
X2260Y4139D02*
Y4169D01*
X3329Y3293D02*
X3359D01*
X3344Y3278D02*
Y3308D01*
X3635Y3156D02*
X3665D01*
X3650Y3141D02*
Y3171D01*
X2113Y2400D02*
X2143D01*
X2128Y2385D02*
Y2415D01*
X4897Y2396D02*
X4927D01*
X4912Y2381D02*
Y2411D01*
X6625Y2236D02*
X6656D01*
X6640Y2221D02*
Y2251D01*
X7017Y1554D02*
X7047D01*
X7032Y1539D02*
Y1569D01*
X6403Y1528D02*
X6433D01*
X6418Y1513D02*
Y1543D01*
X4001Y580D02*
X4031D01*
X4016Y565D02*
Y595D01*
X3981Y1078D02*
X4011D01*
X3996Y1063D02*
Y1093D01*
X723Y422D02*
X753D01*
X738Y407D02*
Y437D01*
X711Y766D02*
X741D01*
X726Y751D02*
Y781D01*
X3531Y3676D02*
X3561D01*
X3546Y3661D02*
Y3691D01*
X7015Y1814D02*
X7045D01*
X7030Y1799D02*
Y1829D01*
X5991Y863D02*
X6021D01*
X6006Y848D02*
Y878D01*
X5613Y1324D02*
X5643D01*
X5628Y1309D02*
Y1339D01*
X6303Y1263D02*
X6333D01*
X6318Y1248D02*
Y1278D01*
X6663Y1560D02*
X6693D01*
X6678Y1545D02*
Y1575D01*
X3413Y1376D02*
X3443D01*
X3428Y1361D02*
Y1391D01*
X3765Y1212D02*
X3795D01*
X3780Y1197D02*
Y1227D01*
X3993Y804D02*
X4023D01*
X4008Y789D02*
Y819D01*
X2929Y1024D02*
X2959D01*
X2944Y1009D02*
Y1039D01*
X1032Y1254D02*
X1062D01*
X1047Y1239D02*
Y1269D01*
X603Y1576D02*
X633D01*
X618Y1561D02*
Y1591D01*
X1001Y1846D02*
X1031D01*
X1016Y1831D02*
Y1861D01*
X711Y1050D02*
X741D01*
X726Y1035D02*
Y1065D01*
X253Y1380D02*
X283D01*
X268Y1365D02*
Y1395D01*
X1875Y4798D02*
X1905D01*
X1890Y4783D02*
Y4813D01*
X581Y3034D02*
X611D01*
X596Y3019D02*
Y3049D01*
X1333Y1620D02*
X1363D01*
X1348Y1605D02*
Y1635D01*
X295Y2624D02*
X325D01*
X310Y2609D02*
Y2639D01*
X1339Y1980D02*
X1369D01*
X1354Y1965D02*
Y1995D01*
X5823Y3562D02*
X5853D01*
X5838Y3547D02*
Y3577D01*
X5823Y4784D02*
X5853D01*
X5838Y4769D02*
Y4799D01*
X5181Y4786D02*
X5211D01*
X5196Y4771D02*
Y4801D01*
X5939Y4860D02*
X5969D01*
X5954Y4845D02*
Y4875D01*
X5935Y3384D02*
X5965D01*
X5950Y3369D02*
Y3399D01*
X6049Y3138D02*
X6079D01*
X6064Y3123D02*
Y3153D01*
X6305Y3710D02*
X6335D01*
X6320Y3695D02*
Y3725D01*
X4915Y3470D02*
X4945D01*
X4930Y3455D02*
Y3485D01*
X6011Y2972D02*
X6041D01*
X6026Y2957D02*
Y2987D01*
X5065Y3386D02*
X5095D01*
X5080Y3371D02*
Y3401D01*
X5319Y3140D02*
X5349D01*
X5334Y3125D02*
Y3155D01*
X4806Y4786D02*
X4836D01*
X4821Y4771D02*
Y4801D01*
X2549Y4786D02*
X2579D01*
X2564Y4771D02*
Y4801D01*
X3517Y4870D02*
X3547D01*
X3532Y4855D02*
Y4885D01*
X5069Y4868D02*
X5099D01*
X5084Y4853D02*
Y4883D01*
X5571Y4504D02*
X5601D01*
X5586Y4489D02*
Y4519D01*
X5327Y4666D02*
X5357D01*
X5342Y4651D02*
Y4681D01*
X4053Y4506D02*
X4083D01*
X4068Y4491D02*
Y4521D01*
X3239Y3784D02*
X3269D01*
X3254Y3769D02*
Y3799D01*
X2971Y4382D02*
X3001D01*
X2986Y4367D02*
Y4397D01*
X2151Y3780D02*
X2181D01*
X2166Y3765D02*
Y3795D01*
X3235Y4664D02*
X3265D01*
X3250Y4649D02*
Y4679D01*
X3805Y4674D02*
X3835D01*
X3820Y4659D02*
Y4689D01*
X2667Y3162D02*
X2697D01*
X2682Y3147D02*
Y3177D01*
X1095Y3274D02*
X1125D01*
X1110Y3259D02*
Y3289D01*
X1659Y4006D02*
X1689D01*
X1674Y3991D02*
Y4021D01*
X5289Y622D02*
X5319D01*
X5304Y607D02*
Y637D01*
X6657Y200D02*
X6687D01*
X6672Y185D02*
Y215D01*
X4806Y5462D02*
X4836D01*
X4821Y5447D02*
Y5477D01*
X2999Y1965D02*
X3029D01*
X3014Y1950D02*
Y1980D01*
X931Y3120D02*
X961D01*
X946Y3105D02*
Y3135D01*
X7011Y968D02*
X7041D01*
X7026Y953D02*
Y983D01*
X6657Y968D02*
X6687D01*
X6672Y953D02*
Y983D01*
X1515Y766D02*
X1545D01*
X1530Y751D02*
Y781D01*
X1515Y422D02*
X1545D01*
X1530Y407D02*
Y437D01*
X829Y2272D02*
X859D01*
X844Y2257D02*
Y2287D01*
X3413Y434D02*
X3443D01*
X3428Y419D02*
Y449D01*
X831Y2958D02*
X861D01*
X846Y2943D02*
Y2973D01*
X825Y2720D02*
X855D01*
X840Y2705D02*
Y2735D01*
X826Y2488D02*
X856D01*
X841Y2473D02*
Y2503D01*
X1507Y2490D02*
X1537D01*
X1522Y2475D02*
Y2505D01*
X1515Y2724D02*
X1545D01*
X1530Y2709D02*
Y2739D01*
X1515Y2962D02*
X1545D01*
X1530Y2947D02*
Y2977D01*
X6625Y2688D02*
X6656D01*
X6640Y2673D02*
Y2703D01*
X7013Y2688D02*
X7043D01*
X7028Y2673D02*
Y2703D01*
X6463Y5448D02*
X6493D01*
X6478Y5433D02*
Y5463D01*
X5407Y2402D02*
X5437D01*
X5422Y2387D02*
Y2417D01*
X5407Y1992D02*
X5437D01*
X5422Y1977D02*
Y2007D01*
X5407Y1164D02*
X5437D01*
X5422Y1149D02*
Y1179D01*
X2769Y2394D02*
X2799D01*
X2784Y2379D02*
Y2409D01*
X2769Y2024D02*
X2799D01*
X2784Y2009D02*
Y2039D01*
X2769Y5424D02*
X2800D01*
X2784Y5410D02*
Y5440D01*
X2769Y1190D02*
X2799D01*
X2784Y1175D02*
Y1205D01*
M02*
