G04*
G04 #@! TF.GenerationSoftware,Altium Limited,Altium Designer,22.8.2 (66)*
G04*
G04 Layer_Color=32896*
%FSLAX42Y42*%
%MOMM*%
G71*
G04*
G04 #@! TF.SameCoordinates,0533CB18-9495-43A3-8B9C-2A5BF5C5928D*
G04*
G04*
G04 #@! TF.FilePolarity,Positive*
G04*
G01*
G75*
%ADD11C,0.20*%
%ADD13C,0.25*%
%ADD15C,0.13*%
%ADD73C,0.30*%
D11*
X869Y5040D02*
G03*
X869Y5040I-10J0D01*
G01*
X764Y2937D02*
G03*
X764Y2937I-10J0D01*
G01*
X6758Y4911D02*
G03*
X6758Y4911I-10J0D01*
G01*
D13*
X1413Y2202D02*
Y2050D01*
X1337D01*
X1311Y2075D01*
Y2101D01*
X1337Y2126D01*
X1413D01*
X1337D01*
X1311Y2151D01*
Y2177D01*
X1337Y2202D01*
X1413D01*
X1159Y2177D02*
X1184Y2202D01*
X1235D01*
X1261Y2177D01*
Y2075D01*
X1235Y2050D01*
X1184D01*
X1159Y2075D01*
D15*
X766Y2622D02*
X1009D01*
X804Y1622D02*
X1047D01*
X6718Y4846D02*
X7468D01*
X6718Y2676D02*
X7468D01*
X6718Y4751D02*
Y4846D01*
Y2676D02*
Y2772D01*
X7468Y2676D02*
Y4846D01*
X34Y3002D02*
Y5172D01*
X784Y5076D02*
Y5172D01*
Y3002D02*
Y3098D01*
X34Y5172D02*
X784D01*
X34Y3002D02*
X784D01*
X924Y5760D02*
X2094D01*
X1999Y5010D02*
X2094D01*
X924D02*
X1019D01*
X2094D02*
Y5760D01*
X924Y5010D02*
Y5760D01*
X1089Y3499D02*
Y3423D01*
X1051D01*
X1039Y3436D01*
Y3487D01*
X1051Y3499D01*
X1089D01*
X975D02*
X1000D01*
X1013Y3487D01*
Y3436D01*
X1000Y3423D01*
X975D01*
X962Y3436D01*
Y3487D01*
X975Y3499D01*
X937D02*
X886D01*
Y3487D01*
X937Y3436D01*
Y3423D01*
X1089Y3747D02*
Y3671D01*
X1051D01*
X1039Y3683D01*
Y3734D01*
X1051Y3747D01*
X1089D01*
X975D02*
X1000D01*
X1013Y3734D01*
Y3683D01*
X1000Y3671D01*
X975D01*
X962Y3683D01*
Y3734D01*
X975Y3747D01*
X886D02*
X912Y3734D01*
X937Y3709D01*
Y3683D01*
X924Y3671D01*
X899D01*
X886Y3683D01*
Y3696D01*
X899Y3709D01*
X937D01*
X1089Y4003D02*
Y3927D01*
X1051D01*
X1039Y3939D01*
Y3990D01*
X1051Y4003D01*
X1089D01*
X975D02*
X1000D01*
X1013Y3990D01*
Y3939D01*
X1000Y3927D01*
X975D01*
X962Y3939D01*
Y3990D01*
X975Y4003D01*
X886D02*
X937D01*
Y3965D01*
X912Y3977D01*
X899D01*
X886Y3965D01*
Y3939D01*
X899Y3927D01*
X924D01*
X937Y3939D01*
X1089Y4255D02*
Y4179D01*
X1051D01*
X1039Y4191D01*
Y4242D01*
X1051Y4255D01*
X1089D01*
X975D02*
X1000D01*
X1013Y4242D01*
Y4191D01*
X1000Y4179D01*
X975D01*
X962Y4191D01*
Y4242D01*
X975Y4255D01*
X899Y4179D02*
Y4255D01*
X937Y4217D01*
X886D01*
X1089Y4505D02*
Y4429D01*
X1051D01*
X1039Y4441D01*
Y4492D01*
X1051Y4505D01*
X1089D01*
X975D02*
X1000D01*
X1013Y4492D01*
Y4441D01*
X1000Y4429D01*
X975D01*
X962Y4441D01*
Y4492D01*
X975Y4505D01*
X937Y4492D02*
X924Y4505D01*
X899D01*
X886Y4492D01*
Y4479D01*
X899Y4467D01*
X912D01*
X899D01*
X886Y4454D01*
Y4441D01*
X899Y4429D01*
X924D01*
X937Y4441D01*
X1089Y4745D02*
Y4669D01*
X1051D01*
X1039Y4681D01*
Y4732D01*
X1051Y4745D01*
X1089D01*
X975D02*
X1000D01*
X1013Y4732D01*
Y4681D01*
X1000Y4669D01*
X975D01*
X962Y4681D01*
Y4732D01*
X975Y4745D01*
X886Y4669D02*
X937D01*
X886Y4719D01*
Y4732D01*
X899Y4745D01*
X924D01*
X937Y4732D01*
X1055Y4913D02*
Y4837D01*
X1017D01*
X1005Y4849D01*
Y4900D01*
X1017Y4913D01*
X1055D01*
X941D02*
X966D01*
X979Y4900D01*
Y4849D01*
X966Y4837D01*
X941D01*
X928Y4849D01*
Y4900D01*
X941Y4913D01*
X903Y4837D02*
X878D01*
X890D01*
Y4913D01*
X903Y4900D01*
X6583Y3677D02*
Y3601D01*
X6545D01*
X6533Y3613D01*
Y3664D01*
X6545Y3677D01*
X6583D01*
X6507D02*
X6482D01*
X6494D01*
Y3601D01*
X6507D01*
X6482D01*
X6406D02*
Y3677D01*
X6444Y3639D01*
X6393D01*
X6583Y3423D02*
Y3347D01*
X6545D01*
X6533Y3360D01*
Y3411D01*
X6545Y3423D01*
X6583D01*
X6507D02*
X6482D01*
X6494D01*
Y3347D01*
X6507D01*
X6482D01*
X6444Y3411D02*
X6431Y3423D01*
X6406D01*
X6393Y3411D01*
Y3398D01*
X6406Y3385D01*
X6418D01*
X6406D01*
X6393Y3373D01*
Y3360D01*
X6406Y3347D01*
X6431D01*
X6444Y3360D01*
X6583Y3175D02*
Y3099D01*
X6545D01*
X6533Y3111D01*
Y3162D01*
X6545Y3175D01*
X6583D01*
X6507D02*
X6482D01*
X6494D01*
Y3099D01*
X6507D01*
X6482D01*
X6393D02*
X6444D01*
X6393Y3149D01*
Y3162D01*
X6406Y3175D01*
X6431D01*
X6444Y3162D01*
X6583Y2931D02*
Y2855D01*
X6545D01*
X6533Y2867D01*
Y2918D01*
X6545Y2931D01*
X6583D01*
X6507D02*
X6482D01*
X6494D01*
Y2855D01*
X6507D01*
X6482D01*
X6444D02*
X6418D01*
X6431D01*
Y2931D01*
X6444Y2918D01*
X1099Y4862D02*
X1149D01*
X1124Y4887D02*
Y4837D01*
X1355Y4862D02*
X1405D01*
X1380Y4887D02*
Y4837D01*
X1633D02*
Y4887D01*
X1889Y4837D02*
Y4887D01*
X2147Y2316D02*
Y2265D01*
X2122Y2239D01*
X2097Y2265D01*
Y2316D01*
X2071Y2227D02*
X2020D01*
X1995Y2316D02*
Y2239D01*
X1957D01*
X1944Y2252D01*
Y2265D01*
X1957Y2277D01*
X1995D01*
X1957D01*
X1944Y2290D01*
Y2303D01*
X1957Y2316D01*
X1995D01*
X1906Y2290D02*
X1881D01*
X1868Y2277D01*
Y2239D01*
X1906D01*
X1919Y2252D01*
X1906Y2265D01*
X1868D01*
X1830Y2303D02*
Y2290D01*
X1843D01*
X1817D01*
X1830D01*
Y2252D01*
X1817Y2239D01*
X1766Y2303D02*
Y2290D01*
X1779D01*
X1754D01*
X1766D01*
Y2252D01*
X1754Y2239D01*
X1678D02*
X1703D01*
X1716Y2252D01*
Y2277D01*
X1703Y2290D01*
X1678D01*
X1665Y2277D01*
Y2265D01*
X1716D01*
X1639Y2290D02*
Y2239D01*
Y2265D01*
X1627Y2277D01*
X1614Y2290D01*
X1601D01*
X1563Y2239D02*
X1538D01*
X1551D01*
Y2290D01*
X1563D01*
X1462Y2239D02*
X1487D01*
X1500Y2252D01*
Y2277D01*
X1487Y2290D01*
X1462D01*
X1449Y2277D01*
Y2265D01*
X1500D01*
X1627Y2008D02*
X1639Y2021D01*
X1665D01*
X1677Y2008D01*
Y1957D01*
X1665Y1945D01*
X1639D01*
X1627Y1957D01*
Y1983D01*
X1652D01*
X1601Y1945D02*
Y2021D01*
X1550Y1945D01*
Y2021D01*
X1525D02*
Y1945D01*
X1487D01*
X1474Y1957D01*
Y2008D01*
X1487Y2021D01*
X1525D01*
X3485Y5670D02*
X3498Y5683D01*
X3524D01*
X3536Y5670D01*
Y5657D01*
X3524Y5645D01*
X3498D01*
X3485Y5632D01*
Y5619D01*
X3498Y5607D01*
X3524D01*
X3536Y5619D01*
X3460Y5657D02*
Y5619D01*
X3447Y5607D01*
X3409D01*
Y5657D01*
X3384Y5581D02*
Y5657D01*
X3346D01*
X3333Y5645D01*
Y5619D01*
X3346Y5607D01*
X3384D01*
X3308Y5581D02*
Y5657D01*
X3270D01*
X3257Y5645D01*
Y5619D01*
X3270Y5607D01*
X3308D01*
X3232D02*
X3206D01*
X3219D01*
Y5683D01*
X3232D01*
X3168Y5657D02*
Y5619D01*
X3155Y5607D01*
X3117D01*
Y5594D01*
X3130Y5581D01*
X3143D01*
X3117Y5607D02*
Y5657D01*
X3092Y5594D02*
X3041D01*
X3016Y5607D02*
Y5683D01*
X2978D01*
X2965Y5670D01*
Y5645D01*
X2978Y5632D01*
X3016D01*
X2940Y5594D02*
X2889D01*
X2863Y5607D02*
Y5683D01*
X2825D01*
X2813Y5670D01*
Y5645D01*
X2825Y5632D01*
X2863D01*
X2838D02*
X2813Y5607D01*
X2775D02*
X2749D01*
X2736Y5619D01*
Y5645D01*
X2749Y5657D01*
X2775D01*
X2787Y5645D01*
Y5619D01*
X2775Y5607D01*
X2711Y5683D02*
Y5607D01*
X2673D01*
X2660Y5619D01*
Y5632D01*
Y5645D01*
X2673Y5657D01*
X2711D01*
X2635Y5594D02*
X2584D01*
X2559Y5670D02*
X2546Y5683D01*
X2521D01*
X2508Y5670D01*
Y5657D01*
X2521Y5645D01*
X2533D01*
X2521D01*
X2508Y5632D01*
Y5619D01*
X2521Y5607D01*
X2546D01*
X2559Y5619D01*
X2483Y5594D02*
X2432D01*
X2356Y5670D02*
X2368Y5683D01*
X2394D01*
X2406Y5670D01*
Y5619D01*
X2394Y5607D01*
X2368D01*
X2356Y5619D01*
Y5645D01*
X2381D01*
X2330Y5607D02*
Y5683D01*
X2292D01*
X2279Y5670D01*
Y5645D01*
X2292Y5632D01*
X2330D01*
X2254Y5683D02*
X2229D01*
X2241D01*
Y5607D01*
X2254D01*
X2229D01*
X2152Y5683D02*
X2178D01*
X2191Y5670D01*
Y5619D01*
X2178Y5607D01*
X2152D01*
X2140Y5619D01*
Y5670D01*
X2152Y5683D01*
X1149Y4299D02*
Y4324D01*
X1162Y4337D01*
X1213D01*
X1225Y4324D01*
Y4299D01*
X1213Y4286D01*
X1162D01*
X1149Y4299D01*
X1175Y4261D02*
X1213D01*
X1225Y4248D01*
Y4210D01*
X1175D01*
X1162Y4172D02*
X1175D01*
Y4185D01*
Y4159D01*
Y4172D01*
X1213D01*
X1225Y4159D01*
X1251Y4121D02*
X1175D01*
Y4083D01*
X1187Y4071D01*
X1213D01*
X1225Y4083D01*
Y4121D01*
X1175Y4045D02*
X1213D01*
X1225Y4032D01*
Y3994D01*
X1175D01*
X1162Y3956D02*
X1175D01*
Y3969D01*
Y3944D01*
Y3956D01*
X1213D01*
X1225Y3944D01*
X1238Y3905D02*
Y3855D01*
X1149Y3829D02*
X1225D01*
Y3779D01*
Y3753D02*
Y3728D01*
Y3740D01*
X1175D01*
Y3753D01*
X1225Y3677D02*
Y3652D01*
X1213Y3639D01*
X1187D01*
X1175Y3652D01*
Y3677D01*
X1187Y3690D01*
X1213D01*
X1225Y3677D01*
X7139Y5087D02*
X7114D01*
X7126D01*
Y5011D01*
X7139D01*
X7114D01*
X7076D02*
Y5061D01*
X7037D01*
X7025Y5049D01*
Y5011D01*
X6999Y4985D02*
Y5061D01*
X6961D01*
X6949Y5049D01*
Y5023D01*
X6961Y5011D01*
X6999D01*
X6923Y5061D02*
Y5023D01*
X6911Y5011D01*
X6872D01*
Y5061D01*
X6834Y5074D02*
Y5061D01*
X6847D01*
X6822D01*
X6834D01*
Y5023D01*
X6822Y5011D01*
X6784Y4998D02*
X6733D01*
X6707Y5087D02*
Y5011D01*
X6657D01*
X6631D02*
X6606D01*
X6619D01*
Y5061D01*
X6631D01*
X6555Y5011D02*
X6530D01*
X6517Y5023D01*
Y5049D01*
X6530Y5061D01*
X6555D01*
X6568Y5049D01*
Y5023D01*
X6555Y5011D01*
D73*
X1254Y2272D02*
G03*
X1254Y2272I-15J0D01*
G01*
M02*
