G04*
G04 #@! TF.GenerationSoftware,Altium Limited,Altium Designer,22.8.2 (66)*
G04*
G04 Layer_Color=8421504*
%FSLAX42Y42*%
%MOMM*%
G71*
G04*
G04 #@! TF.SameCoordinates,0533CB18-9495-43A3-8B9C-2A5BF5C5928D*
G04*
G04*
G04 #@! TF.FilePolarity,Positive*
G04*
G01*
G75*
%ADD17R,1.50X2.15*%
%ADD18R,1.30X1.00*%
%ADD19R,0.71X0.91*%
G04:AMPARAMS|DCode=20|XSize=1.5mm|YSize=1.7mm|CornerRadius=0.08mm|HoleSize=0mm|Usage=FLASHONLY|Rotation=90.000|XOffset=0mm|YOffset=0mm|HoleType=Round|Shape=RoundedRectangle|*
%AMROUNDEDRECTD20*
21,1,1.50,1.55,0,0,90.0*
21,1,1.35,1.70,0,0,90.0*
1,1,0.15,0.78,0.68*
1,1,0.15,0.78,-0.68*
1,1,0.15,-0.78,-0.68*
1,1,0.15,-0.78,0.68*
%
%ADD20ROUNDEDRECTD20*%
%ADD21R,1.57X0.81*%
%ADD22R,0.91X0.71*%
%ADD23R,0.81X1.57*%
G04:AMPARAMS|DCode=24|XSize=1.1mm|YSize=1.25mm|CornerRadius=0.06mm|HoleSize=0mm|Usage=FLASHONLY|Rotation=270.000|XOffset=0mm|YOffset=0mm|HoleType=Round|Shape=RoundedRectangle|*
%AMROUNDEDRECTD24*
21,1,1.10,1.14,0,0,270.0*
21,1,0.99,1.25,0,0,270.0*
1,1,0.11,-0.57,-0.50*
1,1,0.11,-0.57,0.50*
1,1,0.11,0.57,0.50*
1,1,0.11,0.57,-0.50*
%
%ADD24ROUNDEDRECTD24*%
G04:AMPARAMS|DCode=25|XSize=1.2mm|YSize=1.82mm|CornerRadius=0.15mm|HoleSize=0mm|Usage=FLASHONLY|Rotation=180.000|XOffset=0mm|YOffset=0mm|HoleType=Round|Shape=RoundedRectangle|*
%AMROUNDEDRECTD25*
21,1,1.20,1.52,0,0,180.0*
21,1,0.90,1.82,0,0,180.0*
1,1,0.30,-0.45,0.76*
1,1,0.30,0.45,0.76*
1,1,0.30,0.45,-0.76*
1,1,0.30,-0.45,-0.76*
%
%ADD25ROUNDEDRECTD25*%
%ADD26R,3.50X3.50*%
%ADD27R,1.00X2.70*%
%ADD28R,0.85X0.85*%
%ADD29R,3.50X3.50*%
G04:AMPARAMS|DCode=30|XSize=2.7mm|YSize=1.1mm|CornerRadius=0.06mm|HoleSize=0mm|Usage=FLASHONLY|Rotation=180.000|XOffset=0mm|YOffset=0mm|HoleType=Round|Shape=RoundedRectangle|*
%AMROUNDEDRECTD30*
21,1,2.70,0.99,0,0,180.0*
21,1,2.59,1.10,0,0,180.0*
1,1,0.11,-1.30,0.50*
1,1,0.11,1.30,0.50*
1,1,0.11,1.30,-0.50*
1,1,0.11,-1.30,-0.50*
%
%ADD30ROUNDEDRECTD30*%
%ADD31R,0.71X0.23*%
%ADD32R,2.70X1.00*%
G04:AMPARAMS|DCode=33|XSize=2.7mm|YSize=1.1mm|CornerRadius=0.06mm|HoleSize=0mm|Usage=FLASHONLY|Rotation=90.000|XOffset=0mm|YOffset=0mm|HoleType=Round|Shape=RoundedRectangle|*
%AMROUNDEDRECTD33*
21,1,2.70,0.99,0,0,90.0*
21,1,2.59,1.10,0,0,90.0*
1,1,0.11,0.50,1.30*
1,1,0.11,0.50,-1.30*
1,1,0.11,-0.50,-1.30*
1,1,0.11,-0.50,1.30*
%
%ADD33ROUNDEDRECTD33*%
%ADD34R,0.23X0.71*%
D17*
X5511Y5406D02*
D03*
X4631D02*
D03*
X5880D02*
D03*
X6760D02*
D03*
X3383D02*
D03*
X4263D02*
D03*
X2134D02*
D03*
X3014D02*
D03*
D18*
X5321Y5622D02*
D03*
X5071D02*
D03*
X4821D02*
D03*
X6070D02*
D03*
X6320D02*
D03*
X6570D02*
D03*
X3573D02*
D03*
X3823D02*
D03*
X4073D02*
D03*
X2324D02*
D03*
X2574D02*
D03*
X2824D02*
D03*
D19*
X3866Y1078D02*
D03*
X3714D02*
D03*
X3662Y1612D02*
D03*
X3814D02*
D03*
X3604Y1778D02*
D03*
X3756D02*
D03*
X3598Y1932D02*
D03*
X3750D02*
D03*
X5142Y2396D02*
D03*
X4990D02*
D03*
X2378Y2400D02*
D03*
X2226D02*
D03*
X872Y1648D02*
D03*
X1024D02*
D03*
X774Y1926D02*
D03*
X927D02*
D03*
X774Y1787D02*
D03*
X927D02*
D03*
X1056Y1050D02*
D03*
X904D02*
D03*
D20*
X590Y2834D02*
D03*
Y2434D02*
D03*
D21*
X236Y4808D02*
D03*
Y5004D02*
D03*
X7268Y4878D02*
D03*
Y5074D02*
D03*
X242Y904D02*
D03*
Y708D02*
D03*
X7202Y918D02*
D03*
Y722D02*
D03*
X6006Y759D02*
D03*
Y563D02*
D03*
X5765D02*
D03*
Y759D02*
D03*
X5523D02*
D03*
Y563D02*
D03*
X6678Y568D02*
D03*
Y764D02*
D03*
X6436D02*
D03*
Y568D02*
D03*
D22*
X462Y4854D02*
D03*
Y5006D02*
D03*
X7060Y5082D02*
D03*
Y4930D02*
D03*
X490Y712D02*
D03*
Y864D02*
D03*
X6978Y712D02*
D03*
Y864D02*
D03*
X6640Y2494D02*
D03*
Y2342D02*
D03*
X5864Y1173D02*
D03*
Y1325D02*
D03*
X5549Y1062D02*
D03*
Y1215D02*
D03*
X5727Y1062D02*
D03*
Y1215D02*
D03*
X6420Y1238D02*
D03*
Y1390D02*
D03*
D23*
X558Y1170D02*
D03*
X362D02*
D03*
X2014Y4001D02*
D03*
X1818D02*
D03*
X2260D02*
D03*
X2456D02*
D03*
X3344D02*
D03*
X3540D02*
D03*
X2456Y3156D02*
D03*
X2260D02*
D03*
X1818D02*
D03*
X2014D02*
D03*
X3098Y4001D02*
D03*
X2902D02*
D03*
Y3156D02*
D03*
X3098D02*
D03*
X3560D02*
D03*
X3364D02*
D03*
X3348Y1965D02*
D03*
X3153D02*
D03*
Y1723D02*
D03*
X3348D02*
D03*
Y1482D02*
D03*
X3153D02*
D03*
X3254Y1020D02*
D03*
X3058D02*
D03*
X3059Y809D02*
D03*
X3255D02*
D03*
X560Y2100D02*
D03*
X364D02*
D03*
X522Y1628D02*
D03*
X326D02*
D03*
X558Y1380D02*
D03*
X362D02*
D03*
X328Y1859D02*
D03*
X524D02*
D03*
D24*
X1290Y2724D02*
D03*
X1015D02*
D03*
X1294Y2488D02*
D03*
X1019D02*
D03*
X1298Y2958D02*
D03*
X1023D02*
D03*
D25*
X1184Y4708D02*
D03*
X1485D02*
D03*
D26*
X6026Y2683D02*
D03*
Y1793D02*
D03*
D27*
X7032Y2490D02*
D03*
Y2050D02*
D03*
D28*
X2166Y3635D02*
D03*
X2261Y3400D02*
D03*
X2071D02*
D03*
X3251Y3635D02*
D03*
X3346Y3400D02*
D03*
X3156D02*
D03*
X2166Y4497D02*
D03*
X2261Y4262D02*
D03*
X2071D02*
D03*
X3251Y4497D02*
D03*
X3346Y4262D02*
D03*
X3156D02*
D03*
D29*
X4269Y1168D02*
D03*
X5159D02*
D03*
X1548Y1190D02*
D03*
X2438D02*
D03*
D30*
X6672Y1416D02*
D03*
Y1126D02*
D03*
X7027Y1416D02*
D03*
Y1126D02*
D03*
D31*
X6200Y1064D02*
D03*
Y1114D02*
D03*
Y1164D02*
D03*
Y1214D02*
D03*
X6040D02*
D03*
Y1164D02*
D03*
Y1114D02*
D03*
Y1064D02*
D03*
D32*
X4708Y1990D02*
D03*
X5148D02*
D03*
X1989Y2028D02*
D03*
X2429D02*
D03*
D33*
X3857Y810D02*
D03*
X3567D02*
D03*
X3853Y432D02*
D03*
X3563D02*
D03*
X877Y766D02*
D03*
X1167D02*
D03*
X875Y422D02*
D03*
X1165D02*
D03*
D34*
X3531Y1288D02*
D03*
X3581D02*
D03*
X3631D02*
D03*
X3681D02*
D03*
Y1448D02*
D03*
X3631D02*
D03*
X3581D02*
D03*
X3531D02*
D03*
X763Y1300D02*
D03*
X813D02*
D03*
X863D02*
D03*
X913D02*
D03*
Y1460D02*
D03*
X863D02*
D03*
X813D02*
D03*
X763D02*
D03*
M02*
